ply
format ascii 1.0
comment VCGLIB generated
element vertex 335
property float x
property float y
property float z
element face 662
property list uchar int vertex_indices
end_header
-35.8191 -2.31445 69.5003 
-35.8454 -0.239768 69.5354 
-34.9844 -3.94651 67.8505 
-30.9331 -3.85144 65.3386 
-31.5462 -4.28359 66.06 
-31.1224 -4.30324 66.7265 
-31.826 -4.66512 67.675 
-32.6838 -5.10925 68.9182 
-31.9668 -4.63683 68.9083 
-31.241 -3.86503 68.7081 
-32.3259 -4.84749 70.1372 
-31.4614 -4.37692 69.9308 
-31.9717 -4.42865 70.8791 
-31.3733 -4.02839 71.4307 
-30.5736 -3.62044 71.9943 
-33.6467 -5.09311 70.1279 
-35.0396 -4.04163 69.9826 
-35.6948 -1.10622 67.335 
-28.6531 -4.71194 65.2722 
-29.5221 -4.40575 66.5112 
-29.5503 -4.36932 67.2905 
-28.7739 -4.03878 67.1456 
-27.9139 -4.69312 66.0395 
-26.8702 -3.49864 67.0624 
-27.7034 -4.02218 68.3402 
-27.0688 -4.1261 68.3853 
-27.6879 -3.91376 69.2025 
-28.2687 -4.26712 69.9053 
-27.2255 -4.46168 69.9846 
-29.1194 -3.67087 69.0979 
-27.9501 -3.55885 71.7044 
-28.8709 -3.87234 71.3298 
-29.5062 -3.84379 70.6131 
-29.7793 -3.76779 69.832 
-28.7202 -3.01139 72.5798 
-29.8039 12.9134 63.3802 
-29.972 12.2689 63.6592 
-30.0289 11.7439 64.0165 
-30.1052 11.1687 64.3383 
-30.1246 10.4796 64.4595 
-30.1813 9.83836 64.421 
-30.03 9.1883 64.5777 
-30.0486 8.52514 64.3768 
-29.916 7.895 64.4129 
-29.916 7.16748 64.2524 
-29.916 6.49688 64.2524 
-29.9538 5.86364 64.2535 
-29.9349 5.18975 64.213 
-29.9349 4.48234 64.213 
-29.9159 3.83265 63.9337 
-29.9535 3.2025 63.9349 
-29.7653 2.50103 64.0085 
-29.8783 1.94684 64.0915 
-29.8971 1.24309 64.2118 
-29.8404 0.498749 64.2501 
-29.8971 -0.05995 64.1319 
-29.9348 -0.654117 64.0534 
-29.8032 -1.42953 63.8511 
-29.8595 -2.0232 63.8924 
-29.8219 -3.02715 63.9705 
-30.8563 13.1554 63.4798 
-30.9043 12.5961 63.9124 
-30.973 11.9395 64.3076 
-31.1877 11.2677 64.6683 
-31.4027 10.615 64.9432 
-31.5238 9.8466 64.7686 
-31.6074 9.23047 64.7714 
-31.8387 8.45632 64.8238 
-31.9476 7.77347 64.9617 
-31.97 7.03636 65.0073 
-32.0959 6.2942 65.0115 
-32.2185 5.62669 64.9261 
-32.2378 4.88173 64.882 
-32.212 4.17308 64.7474 
-32.2571 3.43828 64.838 
-32.2505 2.69023 64.6598 
-32.1638 1.98984 64.5682 
-32.1029 1.3351 64.6104 
-32.0358 0.67765 64.4755 
-32.1352 -0.099565 64.3467 
-32.0018 -0.831127 64.0796 
-31.993 -1.51624 63.8188 
-32.1036 -2.21236 64.0394 
-31.9691 -2.99858 64.3411 
-31.886 -3.57006 64.3383 
-31.5269 13.6092 63.8767 
-31.8082 12.9303 64.2336 
-32.0709 12.2787 64.7696 
-32.1866 11.6162 65.189 
-32.4571 10.9395 65.3965 
-32.822 10.1801 65.3167 
-33.058 9.43329 65.2122 
-33.4354 8.70179 65.2884 
-33.7826 7.97143 65.3282 
-34.0272 7.25714 65.438 
-34.4054 6.49302 65.4541 
-34.7152 5.81062 65.5167 
-34.8589 5.14551 65.6961 
-35.1102 4.39309 65.6865 
-35.0936 3.69935 65.9243 
-35.1514 2.99261 65.9964 
-35.267 2.28628 66.1407 
-35.3039 1.53948 66.0571 
-35.288 0.869543 66.297 
-35.313 0.159184 66.3934 
-35.3962 -0.552959 66.5629 
-35.4001 -1.26429 66.5024 
-35.3671 -1.97724 66.5265 
-35.1682 -2.73471 66.6717 
-34.571 -4.00041 66.5855 
-31.5839 13.7949 64.2042 
-32.2732 13.0321 64.8999 
-32.5136 12.3447 65.4931 
-32.7993 11.5525 65.9094 
-33.4519 10.7382 66.2071 
-33.917 9.956 66.4371 
-34.112 9.22388 66.7802 
-34.3192 8.49712 67.2281 
-34.9217 7.70958 67.3747 
-35.1941 6.95807 67.3613 
-35.3354 6.27225 67.5284 
-35.5345 5.53721 67.5529 
-35.6496 4.80962 67.5122 
-35.8341 4.0795 67.4334 
-35.9228 3.36059 67.4289 
-35.9608 2.68659 67.4961 
-36.0308 1.93449 67.6998 
-35.9613 1.18274 67.7382 
-36.0246 0.50739 67.7694 
-36.0252 -0.206941 68.0123 
-35.9239 -0.884534 68.1577 
-35.8793 -1.68243 68.1604 
-35.873 -2.36153 68.2307 
-35.6877 -3.08923 68.3124 
-35.0329 -4.17467 68.5668 
-32.312 13.0395 65.7628 
-32.7288 12.0844 66.6737 
-33.133 11.3 67.4743 
-33.4598 10.4868 67.9429 
-33.6521 9.77487 68.1192 
-33.8848 9.01865 68.3048 
-34.0109 8.28594 68.4204 
-34.5695 7.54856 68.6867 
-34.6719 6.77868 68.9178 
-34.7533 6.10578 69.1015 
-34.9151 5.43452 69.2229 
-34.9952 4.72239 69.4853 
-35.1746 4.01095 69.7297 
-35.1746 3.32221 69.7297 
-35.4113 2.6173 70.0254 
-35.2526 1.97875 70.0676 
-35.2518 1.37648 70.2262 
-35.3092 0.688588 70.5947 
-35.4056 -0.03552 70.8906 
-35.4046 -0.670657 71.0463 
-35.5013 -1.34462 71.1841 
-35.3062 -2.02617 71.1414 
-35.1294 -2.66747 71.1417 
-34.9714 -3.30682 71.2632 
-34.1522 -4.38142 71.0471 
-31.6691 14.0104 65.4541 
-32.0054 13.0788 66.4579 
-32.1128 12.1838 67.6089 
-31.8946 11.4783 68.0598 
-32.4101 10.5437 68.4174 
-32.6042 9.76333 68.7365 
-32.5569 9.01526 69.084 
-32.7486 8.26416 69.2191 
-32.7487 7.48533 69.3969 
-32.7963 6.75216 69.5852 
-32.891 5.97085 69.7834 
-32.8671 5.3388 70.0849 
-32.8904 4.56522 70.3951 
-33.2397 3.82523 70.7741 
-33.4225 3.10335 71.1554 
-33.4911 2.44816 71.2124 
-33.3982 1.65751 71.3625 
-33.3046 0.912221 71.6812 
-33.2798 0.262064 72.0541 
-33.3922 -0.429181 72.3679 
-33.5721 -1.11432 72.5682 
-33.3907 -1.85025 72.6161 
-33.1857 -2.58869 72.7011 
-33.0945 -3.28235 72.6839 
-32.6345 -4.28438 72.4302 
-30.8302 14.3315 64.9667 
-30.9678 13.3908 66.3598 
-31.1089 12.4772 67.2706 
-31.2201 11.7313 67.769 
-31.2767 11.0272 68.0375 
-31.3414 10.2682 68.433 
-31.3202 9.5326 68.6819 
-31.1606 8.84231 68.567 
-31.0253 8.15289 68.7925 
-31.3516 7.39022 69.1473 
-31.377 6.66117 69.5235 
-31.2511 5.89749 69.8662 
-31.1584 5.22908 70.131 
-31.3144 4.54232 70.2421 
-31.2648 3.839 70.5919 
-31.3451 3.15712 70.6872 
-31.3218 2.43185 70.8803 
-31.2413 1.82304 71.2952 
-31.2353 1.10456 71.7195 
-31.2631 0.473475 72.1072 
-31.3351 -0.189124 72.612 
-31.3432 -0.846582 72.7258 
-31.279 -1.46299 72.8245 
-31.068 -2.15476 72.8561 
-30.9627 -3.00064 72.8718 
-29.9747 13.841 64.9936 
-29.5811 12.2612 67.5209 
-29.5626 11.6084 67.7879 
-29.5014 10.959 68.0483 
-29.4709 10.2893 68.1777 
-29.321 9.56004 68.3815 
-29.2189 8.87783 68.6325 
-28.8735 8.18406 68.9407 
-28.7607 7.57373 69.057 
-28.704 6.8637 69.3067 
-28.5923 6.21483 69.4216 
-28.5552 5.62245 69.4597 
-28.5274 4.9797 69.5832 
-28.4537 4.3172 70.0349 
-28.4675 3.63851 70.1609 
-28.4539 3.09011 70.4067 
-28.4359 2.36963 70.6094 
-28.5176 1.82681 70.9844 
-28.4591 1.10966 71.5383 
-28.326 0.534549 72.1126 
-28.4239 -0.029702 72.2801 
-28.5788 -0.63362 72.6081 
-28.7013 -1.18809 73.0057 
-28.9934 -1.79646 72.8127 
-29.3433 -3.12142 73.1614 
-29.3686 13.4709 65.4421 
-28.8635 12.5608 67.0632 
-28.7796 11.8012 67.303 
-28.5805 11.186 67.6766 
-28.4273 10.4238 67.9642 
-28.297 9.79968 68.2086 
-28.1892 9.06131 68.4109 
-27.9857 8.44059 68.6326 
-27.8586 7.83115 68.8717 
-27.6257 7.10155 68.9911 
-27.3888 6.42234 69.0408 
-27.3682 5.88615 69.0801 
-27.2594 5.13629 69.2075 
-27.0293 4.49586 69.5667 
-26.9949 3.92075 69.7114 
-26.9205 3.26289 69.9321 
-26.7347 2.64424 70.2073 
-26.7148 2.08044 70.2451 
-26.799 1.39719 70.3983 
-26.7505 0.831119 70.8792 
-26.7024 0.151793 71.3551 
-26.8296 -0.443021 71.7301 
-26.6454 -1.06668 72.4487 
-27.0037 -1.73951 72.6183 
-27.2674 -2.29605 72.739 
-30.0204 13.8368 64.3598 
-29.2156 12.8707 65.6403 
-28.846 12.0213 66.3381 
-28.5243 11.2019 66.6469 
-28.3424 10.4146 66.8591 
-28.025 9.65348 67.0331 
-27.7554 8.86753 67.1748 
-27.5325 8.13341 67.2848 
-27.3552 7.29325 67.3637 
-27.18 6.573 67.527 
-26.9608 5.77741 67.5924 
-26.8301 5.03256 67.6398 
-26.6568 4.36476 67.7168 
-26.4864 3.62297 67.9191 
-26.2333 2.72868 68.2619 
-26.0246 2.03419 68.5727 
-25.9419 1.38602 68.7129 
-25.817 0.626067 68.8397 
-25.7785 -0.055128 69.0743 
-25.6966 -0.696505 69.2129 
-25.3252 -1.44093 69.4638 
-25.3717 -2.11585 69.7628 
-25.3751 -2.86439 69.9667 
-25.4244 -3.57475 70.4283 
-26.1009 -4.59421 70.8142 
-29.4277 12.9994 64.215 
-29.6158 12.3581 64.7594 
-29.6413 11.7637 65.3054 
-29.2898 11.0715 65.3307 
-29.3579 10.3707 65.4785 
-29.2627 9.7665 65.621 
-29.0457 9.01925 65.6133 
-29.0524 8.26488 65.6863 
-28.7526 7.59325 65.6391 
-28.669 6.86762 65.5999 
-28.5811 6.27304 65.8139 
-28.2554 5.49146 65.7292 
-28.232 4.85818 65.7643 
-27.7932 4.19526 65.533 
-27.8513 3.49287 65.6066 
-27.6019 2.9358 65.7403 
-27.4805 2.2281 65.8428 
-27.3076 1.52081 65.9429 
-27.279 0.894672 65.9061 
-27.073 0.230261 65.8977 
-26.8506 -0.508403 65.9951 
-26.81 -1.13097 66.1354 
-26.5379 -1.86344 66.2297 
-26.5811 -2.45123 66.4805 
-26.5838 -3.5497 66.8733 
-29.2691 12.7252 63.9101 
-29.3709 12.1231 64.3334 
-29.4274 11.5311 64.6266 
-29.2786 10.8617 64.8392 
-29.3196 10.1752 65.0902 
-29.2114 9.4513 65.1638 
-29.0272 8.77901 65.0105 
-29.0935 8.15196 65.0766 
-29.0272 7.46205 65.0105 
-28.7727 6.79794 64.9071 
-28.8535 6.09481 65.0179 
-28.9857 5.47273 65.15 
-28.6299 4.68896 65.0046 
-28.6299 3.93386 65.0046 
-28.2568 3.32223 64.9296 
-28.2294 2.6544 65.1128 
-27.9444 1.93383 65.0339 
-27.824 1.30107 65.0617 
-27.7605 0.592144 65.2687 
-27.6331 -0.039898 65.4104 
-27.379 -0.709705 65.4203 
-27.0636 -1.37416 65.3647 
-26.9503 -2.04342 65.5504 
-26.9152 -2.78971 65.5745 
-27.0754 -3.82235 65.6823 
3 4 5 6 
3 5 20 6 
3 4 19 5 
3 20 9 6 
3 5 19 20 
3 19 21 20 
3 9 8 6 
3 20 29 9 
3 21 24 20 
3 19 22 21 
3 8 7 6 
3 9 11 8 
3 29 33 9 
3 20 24 29 
3 24 27 29 
3 21 22 24 
3 22 25 24 
3 19 18 22 
3 8 10 7 
3 11 10 8 
3 11 12 10 
3 9 33 11 
3 33 32 11 
3 29 27 33 
3 27 32 33 
3 27 31 32 
3 24 26 27 
3 25 26 24 
3 25 28 26 
3 22 23 25 
3 18 334 22 
3 10 15 7 
3 12 15 10 
3 12 159 15 
3 11 13 12 
3 32 13 11 
3 32 14 13 
3 31 14 32 
3 31 234 14 
3 27 28 31 
3 28 27 26 
3 23 309 25 
3 22 309 23 
3 22 334 309 
3 334 333 309 
3 15 134 7 
3 159 16 15 
3 12 184 159 
3 13 184 12 
3 13 14 184 
3 14 209 184 
3 234 209 14 
3 234 208 209 
3 31 34 234 
3 28 30 31 
3 333 308 309 
3 15 16 134 
3 16 133 134 
3 159 158 16 
3 184 183 159 
3 209 183 184 
3 209 182 183 
3 208 182 209 
3 208 207 182 
3 234 233 208 
3 34 233 234 
3 34 259 233 
3 31 30 34 
3 30 259 34 
3 28 284 30 
3 333 307 308 
3 133 109 134 
3 158 157 16 
3 159 183 158 
3 183 182 158 
3 182 157 158 
3 182 181 157 
3 207 181 182 
3 207 206 181 
3 208 233 207 
3 233 206 207 
3 259 232 233 
3 333 332 307 
3 133 108 109 
3 181 156 157 
3 206 180 181 
3 232 231 233 
3 259 258 232 
3 332 331 307 
3 133 132 108 
3 181 180 156 
3 180 155 156 
3 206 179 180 
3 232 257 231 
3 258 257 232 
3 331 306 307 
3 132 107 108 
3 180 154 155 
3 179 154 180 
3 179 153 154 
3 206 205 179 
3 257 230 231 
3 331 305 306 
3 132 131 107 
3 179 178 153 
3 205 178 179 
3 205 204 178 
3 257 256 230 
3 331 330 305 
3 131 17 107 
3 178 177 153 
3 204 177 178 
3 204 203 177 
3 256 229 230 
3 330 304 305 
3 17 106 107 
3 131 130 17 
3 177 152 153 
3 203 176 177 
3 256 255 229 
3 330 329 304 
3 17 105 106 
3 130 129 17 
3 177 176 152 
3 176 151 152 
3 203 202 176 
3 255 254 229 
3 329 328 304 
3 17 129 105 
3 129 128 105 
3 176 175 151 
3 202 175 176 
3 202 201 175 
3 254 228 229 
3 255 278 254 
3 328 303 304 
3 329 55 328 
3 128 104 105 
3 175 150 151 
3 201 174 175 
3 254 227 228 
3 278 277 254 
3 255 279 278 
3 328 327 303 
3 55 54 328 
3 128 103 104 
3 175 149 150 
3 174 149 175 
3 174 148 149 
3 201 200 174 
3 254 253 227 
3 277 253 254 
3 277 276 253 
3 327 302 303 
3 328 54 327 
3 54 53 327 
3 55 78 54 
3 128 127 103 
3 149 126 150 
3 174 147 148 
3 200 173 174 
3 253 252 227 
3 276 252 253 
3 276 275 252 
3 327 326 302 
3 53 326 327 
3 53 52 326 
3 54 78 53 
3 78 77 53 
3 55 79 78 
3 127 102 103 
3 126 127 150 
3 149 125 126 
3 147 124 148 
3 174 173 147 
3 173 146 147 
3 200 199 173 
3 252 226 227 
3 275 251 252 
3 326 301 302 
3 52 51 326 
3 53 77 52 
3 77 76 52 
3 55 80 79 
3 127 126 102 
3 126 101 102 
3 127 151 150 
3 125 101 126 
3 125 100 101 
3 149 148 125 
3 148 124 125 
3 124 100 125 
3 124 99 100 
3 147 123 124 
3 146 123 147 
3 146 122 123 
3 173 172 146 
3 199 172 173 
3 199 198 172 
3 252 251 226 
3 251 225 226 
3 275 274 251 
3 326 300 301 
3 51 325 326 
3 52 76 51 
3 76 50 51 
3 55 56 80 
3 124 123 99 
3 123 98 99 
3 122 98 123 
3 122 97 98 
3 146 145 122 
3 172 171 146 
3 198 197 172 
3 251 250 225 
3 274 250 251 
3 274 249 250 
3 326 325 300 
3 325 324 300 
3 51 324 325 
3 51 50 324 
3 50 49 324 
3 76 75 50 
3 56 81 80 
3 122 121 97 
3 145 121 122 
3 145 144 121 
3 146 171 145 
3 171 170 145 
3 172 197 171 
3 197 196 171 
3 250 224 225 
3 249 224 250 
3 249 223 224 
3 274 273 249 
3 324 299 300 
3 49 323 324 
3 50 74 49 
3 75 74 50 
3 56 57 81 
3 121 96 97 
3 144 120 121 
3 145 170 144 
3 170 169 144 
3 171 196 170 
3 196 169 170 
3 196 195 169 
3 249 248 223 
3 273 248 249 
3 273 272 248 
3 299 298 300 
3 324 298 299 
3 324 323 298 
3 323 322 298 
3 49 322 323 
3 49 48 322 
3 74 73 49 
3 57 58 81 
3 121 120 96 
3 120 119 96 
3 144 143 120 
3 169 143 144 
3 169 168 143 
3 195 168 169 
3 195 194 168 
3 248 222 223 
3 272 247 248 
3 273 300 272 
3 298 272 300 
3 298 271 272 
3 322 296 298 
3 48 47 322 
3 49 73 48 
3 73 72 48 
3 58 82 81 
3 119 95 96 
3 120 143 119 
3 143 142 119 
3 168 142 143 
3 168 167 142 
3 194 167 168 
3 194 193 167 
3 248 247 222 
3 247 221 222 
3 272 271 247 
3 271 246 247 
3 298 297 271 
3 322 320 296 
3 47 321 322 
3 48 72 47 
3 72 71 47 
3 58 59 82 
3 119 94 95 
3 142 118 119 
3 167 141 142 
3 193 166 167 
3 194 218 193 
3 247 246 221 
3 246 220 221 
3 271 270 246 
3 297 296 271 
3 320 319 296 
3 322 321 320 
3 321 47 320 
3 47 46 320 
3 71 46 47 
3 71 70 46 
3 59 83 82 
3 94 70 95 
3 119 118 94 
3 118 93 94 
3 142 141 118 
3 141 117 118 
3 167 140 141 
3 166 140 167 
3 166 165 140 
3 193 192 166 
3 218 217 193 
3 246 245 220 
3 270 245 246 
3 270 269 245 
3 296 270 271 
3 296 269 270 
3 296 295 269 
3 319 295 296 
3 319 294 295 
3 320 45 319 
3 46 45 320 
3 70 45 46 
3 70 69 45 
3 71 95 70 
3 71 96 95 
3 59 84 83 
3 94 69 70 
3 94 93 69 
3 93 68 69 
3 118 117 93 
3 117 116 93 
3 141 140 117 
3 140 116 117 
3 140 139 116 
3 165 139 140 
3 165 138 139 
3 166 191 165 
3 192 191 166 
3 192 216 191 
3 193 216 192 
3 193 217 216 
3 217 241 216 
3 218 243 217 
3 245 244 220 
3 269 244 245 
3 269 268 244 
3 295 268 269 
3 295 294 268 
3 294 293 268 
3 319 293 294 
3 319 318 293 
3 45 44 319 
3 69 44 45 
3 69 68 44 
3 68 43 44 
3 93 92 68 
3 116 92 93 
3 116 115 92 
3 139 115 116 
3 139 138 115 
3 138 137 115 
3 165 164 138 
3 191 190 165 
3 216 215 191 
3 241 215 216 
3 241 240 215 
3 217 242 241 
3 243 242 217 
3 243 267 242 
3 218 219 243 
3 244 219 220 
3 268 243 244 
3 293 267 268 
3 318 317 293 
3 319 44 318 
3 44 43 318 
3 43 317 318 
3 43 316 317 
3 68 67 43 
3 92 67 68 
3 92 91 67 
3 115 91 92 
3 115 90 91 
3 137 114 115 
3 138 164 137 
3 164 163 137 
3 165 190 164 
3 190 163 164 
3 190 189 163 
3 191 214 190 
3 215 214 191 
3 215 240 214 
3 240 239 214 
3 241 266 240 
3 242 266 241 
3 267 266 242 
3 267 293 266 
3 293 292 266 
3 243 268 267 
3 219 244 243 
3 317 316 293 
3 316 292 293 
3 316 291 292 
3 43 42 316 
3 67 42 43 
3 67 66 42 
3 91 66 67 
3 91 65 66 
3 90 65 91 
3 90 64 65 
3 115 114 90 
3 114 89 90 
3 137 136 114 
3 163 162 137 
3 189 188 163 
3 190 213 189 
3 214 213 190 
3 214 239 213 
3 239 238 213 
3 240 265 239 
3 266 265 240 
3 266 291 265 
3 291 266 292 
3 316 315 291 
3 42 41 316 
3 66 40 42 
3 65 40 66 
3 65 39 40 
3 64 63 65 
3 90 89 64 
3 89 88 64 
3 114 113 89 
3 136 113 114 
3 136 112 113 
3 137 162 136 
3 162 161 136 
3 163 188 162 
3 188 187 162 
3 189 212 188 
3 213 212 189 
3 213 238 212 
3 238 237 212 
3 239 264 238 
3 265 264 239 
3 265 290 264 
3 291 290 265 
3 291 315 290 
3 315 314 290 
3 316 41 315 
3 41 40 315 
3 40 41 42 
3 39 313 40 
3 65 63 39 
3 63 38 39 
3 64 88 63 
3 88 87 63 
3 89 113 88 
3 113 112 88 
3 112 87 88 
3 112 111 87 
3 136 135 112 
3 161 135 136 
3 161 160 135 
3 162 187 161 
3 187 186 161 
3 188 211 187 
3 212 211 188 
3 212 237 211 
3 237 236 211 
3 238 263 237 
3 264 263 238 
3 264 289 263 
3 290 289 264 
3 290 314 289 
3 314 313 289 
3 315 40 314 
3 313 314 40 
3 39 38 313 
3 38 312 313 
3 63 62 38 
3 87 62 63 
3 87 86 62 
3 111 86 87 
3 111 110 86 
3 112 135 111 
3 135 160 111 
3 160 110 111 
3 160 185 110 
3 161 186 160 
3 186 185 160 
3 186 210 185 
3 187 211 186 
3 211 236 186 
3 236 235 186 
3 237 262 236 
3 263 262 237 
3 263 288 262 
3 289 288 263 
3 289 313 288 
3 313 312 288 
3 312 262 288 
3 312 311 262 
3 38 37 312 
3 62 37 38 
3 62 36 37 
3 86 61 62 
3 110 85 86 
3 185 260 110 
3 210 260 185 
3 210 235 260 
3 235 210 186 
3 236 261 235 
3 262 261 236 
3 262 311 261 
3 311 310 261 
3 312 37 311 
3 37 36 311 
3 36 310 311 
3 36 35 310 
3 62 61 36 
3 61 60 36 
3 86 60 61 
3 86 85 60 
3 85 260 60 
3 260 85 110 
3 235 285 260 
3 261 285 235 
3 261 310 285 
3 310 35 285 
3 35 260 285 
3 35 60 260 
3 35 36 60 
3 133 0 132 
3 132 0 131 
3 130 1 129 
3 6 109 4 
3 4 3 19 
3 19 3 18 
3 3 59 18 
3 25 284 28 
3 25 283 284 
3 18 333 334 
3 134 2 7 
3 308 25 309 
3 16 0 133 
3 16 157 0 
3 157 156 0 
3 156 155 0 
3 155 1 0 
3 30 284 259 
3 284 283 259 
3 283 258 259 
3 283 282 258 
3 307 279 308 
3 233 231 206 
3 231 205 206 
3 231 230 205 
3 230 204 205 
3 230 229 204 
3 229 203 204 
3 229 228 203 
3 228 202 203 
3 228 227 202 
3 227 201 202 
3 227 226 201 
3 226 225 201 
3 225 200 201 
3 225 199 200 
3 225 224 199 
3 224 223 199 
3 223 198 199 
3 223 197 198 
3 223 222 197 
3 222 221 197 
3 221 220 197 
3 220 196 197 
3 220 219 196 
3 219 195 196 
3 219 194 195 
3 219 218 194 
3 332 58 331 
3 258 282 257 
3 282 281 257 
3 305 278 306 
3 257 281 256 
3 281 280 256 
3 331 57 330 
3 304 277 305 
3 131 0 130 
3 256 280 255 
3 330 56 329 
3 303 276 304 
3 278 305 277 
3 255 280 279 
3 279 306 278 
3 279 307 306 
3 277 304 276 
3 302 276 303 
3 302 275 276 
3 302 274 275 
3 302 301 274 
3 301 273 274 
3 301 300 273 
3 99 74 100 
3 55 329 56 
3 97 73 98 
3 81 82 80 
3 75 100 74 
3 56 330 57 
3 96 72 97 
3 74 98 73 
3 74 99 98 
3 57 331 58 
3 73 97 72 
3 72 96 71 
3 59 3 84 
3 3 4 84 
3 84 4 83 
3 130 0 1 
3 1 128 129 
3 1 127 128 
3 1 151 127 
3 1 152 151 
3 1 153 152 
3 1 154 153 
3 1 155 154 
3 6 7 109 
3 7 2 109 
3 59 333 18 
3 25 282 283 
3 25 281 282 
3 333 59 332 
3 59 58 332 
3 108 83 109 
3 107 82 108 
3 105 104 106 
3 104 79 106 
3 78 102 77 
3 79 103 78 
3 102 78 103 
3 77 102 76 
3 102 101 76 
3 101 100 76 
3 100 75 76 
3 80 106 79 
3 83 108 82 
3 109 83 4 
3 279 281 308 
3 82 106 80 
3 82 107 106 
3 104 103 79 
3 281 25 308 
3 109 2 134 
3 296 297 298 
3 281 279 280 
