ply
format ascii 1.0
comment VCGLIB generated
element vertex 279
property float x
property float y
property float z
element face 396
property list uchar int vertex_indices
end_header
-33.7942 -5.10146 70.1213 
-35.1079 -3.91882 69.9204 
-35.7953 -2.14555 69.4483 
-35.0003 -3.82727 67.8196 
-31.5973 -4.09682 68.966 
-31.3131 -3.95315 68.9439 
-30.9762 -3.74781 68.9901 
-30.6038 -3.52653 68.9795 
-30.2345 -3.37138 69.0269 
-29.9928 -3.33755 69.0033 
-29.6466 -3.35236 68.9526 
-29.3566 -3.43659 68.8519 
-29.2244 -3.58759 68.7286 
-29.0072 -3.71566 68.685 
-28.5631 -3.47491 68.8399 
-28.1746 -3.45179 69.3286 
-28.0581 -3.82992 69.6127 
-28.0022 -4.17569 69.679 
-27.787 -4.20301 69.7135 
-27.5871 -4.25959 69.8253 
-27.4485 -4.53633 69.8741 
-28.9341 -3.18401 64.0241 
-31.1327 -2.64312 63.9701 
-31.1471 -4.22569 66.7187 
-31.0794 -3.8311 67.3504 
-31.0237 -3.53007 67.9163 
-30.8104 -3.41076 68.366 
-30.6764 -3.08239 68.9965 
-30.8592 -3.42763 69.2792 
-30.9831 -3.47111 69.7415 
-31.2226 -3.52951 70.2161 
-31.0416 -3.58244 70.626 
-30.7793 -3.56226 71.0903 
-30.4089 -3.52236 71.5679 
-30.0162 -3.90385 71.6585 
-29.8219 -3.02715 63.9705 
-31.9691 -2.99858 64.3411 
-31.886 -3.57006 64.3383 
-35.3671 -1.97724 66.5265 
-35.1682 -2.73471 66.6717 
-34.571 -4.00041 66.5855 
-35.8793 -1.68243 68.1604 
-35.873 -2.36153 68.2307 
-35.6877 -3.08923 68.3124 
-35.0329 -4.17467 68.5668 
-35.5013 -1.34462 71.1841 
-35.3062 -2.02617 71.1414 
-35.1294 -2.66747 71.1417 
-34.9714 -3.30682 71.2632 
-34.1522 -4.38142 71.0471 
-33.5721 -1.11432 72.5682 
-33.3907 -1.85025 72.6161 
-33.1857 -2.58869 72.7011 
-33.0945 -3.28235 72.6839 
-32.6345 -4.28438 72.4302 
-31.3432 -0.846582 72.7258 
-31.279 -1.46299 72.8245 
-31.068 -2.15476 72.8561 
-30.9627 -3.00064 72.8718 
-28.5788 -0.63362 72.6081 
-28.7013 -1.18809 73.0057 
-28.9934 -1.79646 72.8127 
-29.3433 -3.12142 73.1614 
-26.6454 -1.06668 72.4487 
-27.0037 -1.73951 72.6183 
-27.2674 -2.29605 72.739 
-25.3252 -1.44093 69.4638 
-25.3717 -2.11585 69.7628 
-25.3751 -2.86439 69.9667 
-25.4244 -3.57475 70.4283 
-26.1009 -4.59421 70.8142 
-26.5811 -2.45123 66.4805 
-26.5838 -3.5497 66.8733 
-26.9152 -2.78971 65.5745 
-27.0754 -3.82235 65.6823 
-33.7942 -5.10146 70.1213 
-35.1079 -3.91882 69.9204 
-35.7953 -2.14555 69.4483 
-35.0003 -3.82727 67.8196 
-32.6331 -4.41605 66.6539 
-32.4661 -4.66809 65.9748 
-32.1127 -4.3207 65.816 
-31.8977 -4.24908 65.7406 
-31.5588 -4.08258 65.6592 
-31.3153 -3.99807 65.5745 
-31.1166 -3.96787 65.5519 
-30.765 -3.78059 65.5785 
-30.5708 -3.81019 65.5646 
-30.3811 -3.84813 65.6054 
-30.091 -3.76235 65.5482 
-29.9683 -3.99866 65.3589 
-29.8572 -4.25275 65.298 
-29.443 -3.87155 64.9303 
-29.2689 -4.03531 64.9075 
-29.1091 -4.09593 64.911 
-28.9678 -4.19396 64.9328 
-28.7988 -4.32121 64.9462 
-28.6031 -4.43635 64.9508 
-28.47 -4.54975 64.9634 
-28.2599 -4.59207 64.986 
-28.018 -4.57124 65.0453 
-27.7432 -4.52203 65.4443 
-27.7039 -4.92542 66.3312 
-27.4365 -4.97685 66.6215 
-33.7942 -5.10146 70.1213 
-35.1079 -3.91882 69.9204 
-35.7953 -2.14555 69.4483 
-35.0003 -3.82727 67.8196 
-33.2689 -5.05225 71.7898 
-32.836 -4.70611 72.2566 
-32.3699 -4.52212 72.5061 
-32.0283 -4.4225 72.6357 
-31.4993 -3.95019 72.6315 
-31.0644 -3.87248 72.7134 
-30.6971 -3.73968 72.7361 
-30.2239 -3.3778 72.8459 
-29.7877 -3.23439 72.9456 
-29.4286 -3.34533 73.0635 
-29.0636 -3.24423 72.9485 
-28.7478 -3.36889 72.9907 
-28.3846 -3.35158 73.2055 
-28.0653 -3.43459 73.0826 
-27.8355 -3.7383 72.883 
-27.6933 -4.09137 72.7087 
-27.4043 -4.272 72.3518 
-27.3239 -4.77261 72.1522 
-27.2252 -5.23197 71.794 
-27.1332 -5.69781 71.2655 
-28.9341 -3.18401 64.0241 
-31.1283 -2.62453 64.0686 
-30.1255 -3.5206 64.317 
-29.6236 -4.30131 64.4153 
-29.1676 -4.75315 64.6243 
-28.9488 -4.93855 64.8613 
-28.734 -5.20742 65.0354 
-28.6027 -5.35942 65.3324 
-28.396 -5.48509 65.6023 
-28.2424 -5.47421 65.8657 
-28.0082 -5.25191 66.2892 
-27.8149 -4.82898 66.7515 
-27.4169 -4.91767 67.0186 
-27.0314 -4.25943 67.5724 
-27.0036 -4.2934 67.9374 
-26.9277 -4.47629 68.1391 
-26.8953 -4.60427 68.3967 
-26.8667 -4.71414 68.7147 
-26.8022 -4.89384 68.9688 
-26.8242 -4.85768 69.272 
-26.828 -4.91061 69.5767 
-26.8065 -5.02236 69.8394 
-26.8718 -4.95613 70.2856 
-27.0469 -4.97716 70.5345 
-27.0955 -5.15617 70.7154 
-27.2155 -5.07214 71.1007 
-27.5278 -5.08906 71.3919 
-28.9341 -3.18401 64.0241 
-31.1283 -2.62453 64.0686 
-32.6078 -4.30602 65.954 
-32.6868 -4.39708 66.1987 
-32.7045 -4.35665 66.4143 
-32.8093 -4.1581 66.7779 
-33.4053 -4.33794 67.0148 
-33.4023 -4.54582 67.1818 
-33.4376 -4.68662 67.3905 
-33.5076 -4.69705 67.7574 
-33.5621 -4.74432 68.0003 
-33.5305 -4.82356 68.212 
-33.3779 -4.98751 68.4089 
-33.3779 -5.06531 68.6766 
-33.3881 -5.05621 68.9596 
-33.3931 -5.02558 69.2332 
-33.361 -4.99892 69.5245 
-33.3522 -5.07817 69.7553 
-33.4416 -4.97127 70.0823 
-33.3546 -4.97521 70.4009 
-33.2688 -4.88725 70.683 
-33.1901 -4.87028 70.9744 
-32.9932 -4.63338 71.3212 
-32.7472 -4.49805 71.7028 
-32.4877 -4.39638 72.0523 
-32.0862 -3.78651 72.569 
-31.7341 -3.43245 72.9181 
-33.6467 -5.09311 70.1279 
-35.0396 -4.04163 69.9826 
-35.8191 -2.31445 69.5003 
-34.9844 -3.94651 67.8505 
-30.9331 -3.85144 65.3386 
-31.5462 -4.28359 66.06 
-31.1224 -4.30324 66.7265 
-31.826 -4.66512 67.675 
-32.6838 -5.10925 68.9182 
-31.9668 -4.63683 68.9083 
-31.241 -3.86503 68.7081 
-32.3259 -4.84749 70.1372 
-31.4614 -4.37692 69.9308 
-31.9717 -4.42865 70.8791 
-31.3733 -4.02839 71.4307 
-30.5736 -3.62044 71.9943 
-33.6467 -5.09311 70.1279 
-35.0396 -4.04163 69.9826 
-35.8191 -2.31445 69.5003 
-34.9844 -3.94651 67.8505 
-28.6531 -4.71194 65.2722 
-29.5221 -4.40575 66.5112 
-29.5503 -4.36932 67.2905 
-28.7739 -4.03878 67.1456 
-27.9139 -4.69312 66.0395 
-26.8702 -3.49864 67.0624 
-27.7034 -4.02218 68.3402 
-27.0688 -4.1261 68.3853 
-27.6879 -3.91376 69.2025 
-28.2687 -4.26712 69.9053 
-27.2255 -4.46168 69.9846 
-29.1194 -3.67087 69.0979 
-27.9501 -3.55885 71.7044 
-28.8709 -3.87234 71.3298 
-29.5062 -3.84379 70.6131 
-29.7793 -3.76779 69.832 
-28.7202 -3.01139 72.5798 
-29.8971 -0.05995 64.1319 
-29.9348 -0.654117 64.0534 
-29.8032 -1.42953 63.8511 
-29.8595 -2.0232 63.8924 
-29.8219 -3.02715 63.9705 
-32.0018 -0.831127 64.0796 
-31.993 -1.51624 63.8188 
-32.1036 -2.21236 64.0394 
-31.9691 -2.99858 64.3411 
-31.886 -3.57006 64.3383 
-35.3962 -0.552959 66.5629 
-35.4001 -1.26429 66.5024 
-35.3671 -1.97724 66.5265 
-35.1682 -2.73471 66.6717 
-34.571 -4.00041 66.5855 
-35.9239 -0.884534 68.1577 
-35.8793 -1.68243 68.1604 
-35.873 -2.36153 68.2307 
-35.6877 -3.08923 68.3124 
-35.0329 -4.17467 68.5668 
-35.5013 -1.34462 71.1841 
-35.3062 -2.02617 71.1414 
-35.1294 -2.66747 71.1417 
-34.9714 -3.30682 71.2632 
-34.1522 -4.38142 71.0471 
-33.5721 -1.11432 72.5682 
-33.3907 -1.85025 72.6161 
-33.1857 -2.58869 72.7011 
-33.0945 -3.28235 72.6839 
-32.6345 -4.28438 72.4302 
-31.3351 -0.189124 72.612 
-31.3432 -0.846582 72.7258 
-31.279 -1.46299 72.8245 
-31.068 -2.15476 72.8561 
-30.9627 -3.00064 72.8718 
-28.4239 -0.029702 72.2801 
-28.5788 -0.63362 72.6081 
-28.7013 -1.18809 73.0057 
-28.9934 -1.79646 72.8127 
-29.3433 -3.12142 73.1614 
-26.7024 0.151793 71.3551 
-26.8296 -0.443021 71.7301 
-26.6454 -1.06668 72.4487 
-27.0037 -1.73951 72.6183 
-27.2674 -2.29605 72.739 
-25.3252 -1.44093 69.4638 
-25.3717 -2.11585 69.7628 
-25.3751 -2.86439 69.9667 
-25.4244 -3.57475 70.4283 
-26.1009 -4.59421 70.8142 
-26.8506 -0.508403 65.9951 
-26.81 -1.13097 66.1354 
-26.5379 -1.86344 66.2297 
-26.5811 -2.45123 66.4805 
-26.5838 -3.5497 66.8733 
-27.379 -0.709705 65.4203 
-27.0636 -1.37416 65.3647 
-26.9503 -2.04342 65.5504 
-26.9152 -2.78971 65.5745 
-27.0754 -3.82235 65.6823 
3 170 169 190 
3 190 172 170 
3 169 168 190 
3 172 104 170 
3 190 193 172 
3 168 167 190 
3 169 166 168 
3 172 174 104 
3 193 174 172 
3 193 175 174 
3 190 191 193 
3 167 189 190 
3 168 166 167 
3 166 165 167 
3 174 175 104 
3 175 243 104 
3 193 176 175 
3 191 194 193 
3 190 189 191 
3 189 192 191 
3 167 164 189 
3 165 164 167 
3 165 185 164 
3 166 238 165 
3 243 199 104 
3 175 176 243 
3 176 108 243 
3 193 195 176 
3 194 195 193 
3 194 196 195 
3 191 4 194 
3 192 4 191 
3 192 5 4 
3 189 24 192 
3 164 163 189 
3 185 163 164 
3 185 233 163 
3 165 238 185 
3 238 43 185 
3 243 242 199 
3 176 177 108 
3 195 177 176 
3 195 178 177 
3 196 179 195 
3 194 31 196 
3 4 5 194 
3 5 6 194 
3 192 6 5 
3 192 26 6 
3 24 25 192 
3 189 188 24 
3 163 79 189 
3 233 162 163 
3 177 178 108 
3 178 109 108 
3 195 179 178 
3 179 109 178 
3 179 110 109 
3 196 111 179 
3 31 32 196 
3 194 29 31 
3 6 29 194 
3 6 217 29 
3 26 7 6 
3 192 25 26 
3 24 204 25 
3 188 204 24 
3 188 203 204 
3 189 79 188 
3 79 187 188 
3 163 162 79 
3 162 159 79 
3 233 161 162 
3 179 111 110 
3 196 112 111 
3 32 34 196 
3 31 216 32 
3 29 217 31 
3 217 216 31 
3 217 211 216 
3 6 7 217 
3 7 8 217 
3 26 8 7 
3 26 9 8 
3 203 205 204 
3 188 88 203 
3 187 85 188 
3 79 80 187 
3 159 80 79 
3 159 158 80 
3 162 161 159 
3 161 158 159 
3 112 181 111 
3 196 113 112 
3 34 197 196 
3 32 216 34 
3 216 215 34 
3 211 215 216 
3 217 213 211 
3 8 9 217 
3 9 10 217 
3 26 10 9 
3 205 13 204 
3 203 139 205 
3 88 91 203 
3 188 85 88 
3 85 91 88 
3 187 84 85 
3 80 82 187 
3 158 157 80 
3 181 180 111 
3 112 113 181 
3 113 253 181 
3 196 197 113 
3 197 114 113 
3 34 114 197 
3 34 115 114 
3 213 17 211 
3 217 10 213 
3 10 12 213 
3 13 12 204 
3 205 208 13 
3 139 141 205 
3 203 138 139 
3 91 202 203 
3 84 186 85 
3 187 83 84 
3 82 83 187 
3 82 228 83 
3 80 81 82 
3 157 81 80 
3 157 160 81 
3 158 160 157 
3 158 161 160 
3 180 54 111 
3 181 247 180 
3 253 57 181 
3 113 114 253 
3 114 115 253 
3 115 116 253 
3 34 116 115 
3 34 117 116 
3 17 20 211 
3 213 13 17 
3 13 213 12 
3 208 210 13 
3 205 141 208 
3 138 140 139 
3 203 137 138 
3 202 135 203 
3 91 133 202 
3 186 91 85 
3 186 131 91 
3 84 228 186 
3 228 84 83 
3 54 110 111 
3 54 109 110 
3 180 247 54 
3 181 246 247 
3 253 116 57 
3 117 258 116 
3 34 118 117 
3 17 18 20 
3 13 210 17 
3 210 18 17 
3 210 145 18 
3 208 145 210 
3 208 144 145 
3 140 208 139 
3 138 103 140 
3 203 136 137 
3 135 136 203 
3 202 133 135 
3 133 134 135 
3 91 132 133 
3 131 132 91 
3 186 130 131 
3 228 130 186 
3 228 22 130 
3 258 61 116 
3 117 119 258 
3 118 119 117 
3 118 215 119 
3 34 218 118 
3 18 145 20 
3 145 146 20 
3 208 143 144 
3 140 142 208 
3 103 72 140 
3 138 102 103 
3 132 98 133 
3 130 223 131 
3 22 223 130 
3 22 222 223 
3 228 36 22 
3 258 218 61 
3 119 120 258 
3 215 214 119 
3 146 147 20 
3 208 142 143 
3 142 140 143 
3 72 141 140 
3 103 74 72 
3 102 74 103 
3 102 101 74 
3 138 137 102 
3 137 101 102 
3 137 136 101 
3 136 100 101 
3 98 99 133 
3 132 96 98 
3 223 21 131 
3 222 21 223 
3 36 226 22 
3 258 120 218 
3 120 65 218 
3 119 122 120 
3 214 122 119 
3 214 123 122 
3 215 154 214 
3 147 148 20 
3 141 143 140 
3 141 209 143 
3 72 207 141 
3 74 73 72 
3 101 100 74 
3 136 135 100 
3 135 134 100 
3 134 99 100 
3 99 134 133 
3 98 96 99 
3 96 100 99 
3 96 206 100 
3 132 95 96 
3 21 95 131 
3 226 225 22 
3 120 121 65 
3 122 121 120 
3 122 65 121 
3 214 124 123 
3 154 125 214 
3 148 149 20 
3 209 144 143 
3 209 145 144 
3 209 147 145 
3 72 71 207 
3 73 71 72 
3 73 271 71 
3 206 74 100 
3 206 139 74 
3 95 21 96 
3 132 131 95 
3 124 125 123 
3 125 124 214 
3 154 126 125 
3 149 151 20 
3 147 146 145 
3 209 19 147 
3 73 276 271 
3 139 207 74 
3 154 127 126 
3 151 152 20 
3 149 152 151 
3 19 212 147 
3 209 16 19 
3 276 275 271 
3 207 73 74 
3 154 152 127 
3 152 153 20 
3 212 148 147 
3 212 149 148 
3 212 70 149 
3 16 211 19 
3 209 15 16 
3 275 270 271 
3 152 70 127 
3 154 153 152 
3 211 20 19 
3 20 212 19 
3 20 153 212 
3 153 150 212 
3 16 15 211 
3 15 11 211 
3 209 208 15 
3 275 269 270 
3 152 150 70 
3 15 14 11 
3 208 14 15 
3 275 274 269 
3 150 149 70 
3 150 152 149 
3 14 12 11 
3 12 10 11 
3 170 238 169 
3 166 169 238 
3 199 238 104 
3 108 247 243 
3 185 232 233 
3 238 199 43 
3 199 184 43 
3 43 232 185 
3 43 236 232 
3 242 241 199 
3 25 12 26 
3 233 160 161 
3 82 81 228 
3 81 36 228 
3 57 246 181 
3 57 251 246 
3 247 109 54 
3 247 108 109 
3 246 242 247 
3 116 61 57 
3 61 251 57 
3 208 204 139 
3 118 33 215 
3 34 33 218 
3 218 123 118 
3 22 221 222 
3 218 65 61 
3 65 256 61 
3 226 224 225 
3 225 221 22 
3 225 220 221 
3 212 266 70 
3 70 126 127 
3 70 125 126 
3 150 69 212 
3 10 211 11 
3 170 104 238 
3 184 236 43 
3 184 235 236 
3 199 241 184 
3 241 46 184 
3 236 231 232 
3 251 245 246 
3 242 243 247 
3 34 30 33 
3 256 59 61 
3 65 64 256 
3 225 224 220 
3 224 219 220 
3 235 231 236 
3 235 230 231 
3 184 234 235 
3 46 45 184 
3 241 245 46 
3 251 55 245 
3 256 64 59 
3 64 63 59 
3 235 234 230 
3 234 229 230 
3 46 244 45 
3 55 244 245 
3 63 254 59 
3 55 249 244 
3 63 260 254 
3 260 259 254 
3 160 25 81 
3 222 221 21 
3 221 275 21 
3 141 71 209 
3 207 266 141 
3 96 92 206 
3 271 270 71 
3 21 73 96 
3 73 21 276 
3 276 21 275 
3 275 221 274 
3 221 220 274 
3 220 219 274 
3 232 160 233 
3 12 28 26 
3 61 55 251 
3 61 59 55 
3 59 249 55 
3 59 254 249 
3 218 154 123 
3 70 65 125 
3 10 34 211 
3 245 242 246 
3 245 241 242 
3 65 69 64 
3 184 45 234 
3 46 245 244 
3 63 265 260 
3 260 264 259 
3 266 212 141 
3 218 211 154 
3 69 266 64 
3 65 70 69 
3 265 264 260 
3 211 153 154 
3 211 150 153 
3 266 63 64 
3 266 265 63 
