ply
format ascii 1.0
element vertex 495
property float x
property float y
property float z
element face 0
property list uchar int vertext index
end_header
-33.794159 -5.101461 70.121307
-35.107911 -3.918820 69.920355
-35.795290 -2.145550 69.448310
-35.000286 -3.827265 67.819652
-31.597324 -4.096819 68.966017
-31.313129 -3.953146 68.943936
-30.976171 -3.747811 68.990115
-30.603776 -3.526525 68.979543
-30.234457 -3.371380 69.026864
-29.992838 -3.337549 69.003253
-29.646617 -3.352358 68.952631
-29.356628 -3.436589 68.851927
-29.224419 -3.587590 68.728594
-29.007176 -3.715655 68.684973
-28.563068 -3.474906 68.839849
-28.174584 -3.451790 69.328621
-28.058150 -3.829923 69.612708
-28.002170 -4.175694 69.678952
-27.786977 -4.203013 69.713496
-27.587097 -4.259590 69.825303
-27.448452 -4.536330 69.874127
-28.934111 -3.184012 64.024117
-28.934612 -1.770379 64.082478
-28.562891 1.269582 64.377742
-31.132715 -2.643115 63.970098
-29.884950 12.760518 63.337747
-30.827425 12.616841 63.605278
-31.147060 -4.225688 66.718695
-31.079422 -3.831103 67.350359
-31.023666 -3.530071 67.916293
-30.810416 -3.410763 68.366028
-30.676409 -3.082391 68.996499
-30.859179 -3.427634 69.279192
-30.983112 -3.471110 69.741536
-31.222569 -3.529513 70.216080
-31.041581 -3.582444 70.626018
-30.779267 -3.562260 71.090298
-30.408878 -3.522357 71.567871
-30.016172 -3.903851 71.658550
-29.803919 12.913380 63.380226
-29.971999 12.268896 63.659164
-30.028893 11.743871 64.016521
-30.105236 11.168718 64.338327
-30.124583 10.479628 64.459550
-30.181285 9.838361 64.421024
-30.030040 9.188302 64.577736
-30.048562 8.525139 64.376754
-29.916044 7.895003 64.412910
-29.916000 7.167476 64.252383
-29.916000 6.496879 64.252383
-29.953792 5.863644 64.253536
-29.934873 5.189755 64.212952
-29.934873 4.482338 64.212952
-29.915911 3.832646 63.933717
-29.953516 3.202503 63.934859
-29.765337 2.501028 64.008508
-29.878257 1.946839 64.091506
-29.897104 1.243089 64.211800
-29.840418 0.498749 64.250076
-29.897105 -0.059950 64.131937
-29.934781 -0.654117 64.053418
-29.803220 -1.429528 63.851127
-29.859529 -2.023197 63.892395
-29.821855 -3.027153 63.970519
-30.856268 13.155443 63.479828
-30.904301 12.596144 63.912413
-30.972983 11.939458 64.307647
-31.187708 11.267710 64.668263
-31.402714 10.614982 64.943168
-31.523814 9.846602 64.768596
-31.607400 9.230467 64.771425
-31.838664 8.456322 64.823838
-31.947582 7.773474 64.961660
-31.970006 7.036358 65.007256
-32.095878 6.294200 65.011531
-32.218499 5.626686 64.926075
-32.237808 4.881726 64.882012
-32.211990 4.173080 64.747354
-32.257091 3.438284 64.838009
-32.250485 2.690229 64.659772
-32.163840 1.989837 64.568209
-32.102872 1.335104 64.610439
-32.035827 0.677650 64.475503
-32.135174 -0.099565 64.346713
-32.001773 -0.831127 64.079594
-31.993031 -1.516242 63.818802
-32.103638 -2.212361 64.039437
-31.969061 -2.998578 64.341130
-31.886015 -3.570061 64.338338
-31.526889 13.609194 63.876654
-31.808240 12.930316 64.233603
-32.070877 12.278663 64.769618
-32.186599 11.616229 65.188995
-32.457064 10.939495 65.396489
-32.821988 10.180095 65.316727
-33.058040 9.433290 65.212172
-33.435415 8.701793 65.288352
-33.782591 7.971429 65.328227
-34.027202 7.257145 65.438006
-34.405429 6.493017 65.454063
-34.715239 5.810620 65.516655
-34.858906 5.145508 65.696060
-35.110216 4.393088 65.686484
-35.093646 3.699349 65.924300
-35.151384 2.992607 65.996368
-35.267024 2.286279 66.140713
-35.303948 1.539481 66.057124
-35.287963 0.869543 66.296954
-35.312977 0.159184 66.393438
-35.396216 -0.552959 66.562863
-35.400143 -1.264286 66.502380
-35.367123 -1.977240 66.526487
-35.168190 -2.734715 66.671723
-34.570978 -4.000409 66.585542
-31.583943 13.794947 64.204234
-32.273164 13.032113 64.899858
-32.513608 12.344718 65.493146
-32.799295 11.552476 65.909359
-33.451895 10.738176 66.207098
-33.916955 9.955998 66.437069
-34.112046 9.223881 66.780188
-34.319176 8.497123 67.228055
-34.921687 7.709578 67.374661
-35.194066 6.958073 67.361270
-35.335409 6.272252 67.528399
-35.534450 5.537209 67.552872
-35.649562 4.809618 67.512154
-35.834074 4.079502 67.433438
-35.922776 3.360593 67.428942
-35.960841 2.686595 67.496058
-36.030797 1.934486 67.699774
-35.961267 1.182742 67.738234
-36.024629 0.507390 67.769367
-36.025165 -0.206941 68.012269
-35.923858 -0.884534 68.157692
-35.879306 -1.682426 68.160430
-35.873014 -2.361532 68.230677
-35.687674 -3.089227 68.312376
-35.032886 -4.174671 68.566769
-32.311983 13.039468 65.762800
-32.728774 12.084448 66.673683
-33.133011 11.300026 67.474316
-33.459815 10.486808 67.942916
-33.652107 9.774870 68.119189
-33.884758 9.018650 68.304774
-34.010855 8.285941 68.420441
-34.569452 7.548564 68.686661
-34.671900 6.778683 68.917793
-34.753328 6.105782 69.101504
-34.915151 5.434521 69.222855
-34.995202 4.722387 69.485300
-35.174586 4.010951 69.729654
-35.174586 3.322213 69.729654
-35.411297 2.617297 70.025417
-35.252630 1.978752 70.067569
-35.251847 1.376485 70.226212
-35.309182 0.688588 70.594704
-35.405633 -0.035520 70.890649
-35.404614 -0.670657 71.046329
-35.501258 -1.344623 71.184062
-35.306154 -2.026167 71.141400
-35.129417 -2.667473 71.141723
-34.971382 -3.306817 71.263190
-34.152180 -4.381423 71.047069
-31.669100 14.010391 65.454143
-32.005422 13.078837 66.457909
-32.112758 12.183836 67.608910
-31.894647 11.478326 68.059831
-32.410125 10.543689 68.417387
-32.604243 9.763326 68.736535
-32.556936 9.015263 69.083997
-32.748569 8.264161 69.219106
-32.748660 7.485332 69.396903
-32.796271 6.752165 69.585172
-32.890956 5.970853 69.783445
-32.867109 5.338800 70.084866
-32.890409 4.565215 70.395101
-33.239668 3.825228 70.774149
-33.422489 3.103352 71.155383
-33.491057 2.448158 71.212421
-33.398228 1.657512 71.362546
-33.304605 0.912221 71.681241
-33.279834 0.262064 72.054128
-33.392183 -0.429181 72.367913
-33.572115 -1.114322 72.568206
-33.390691 -1.850254 72.616085
-33.185664 -2.588691 72.701140
-33.094474 -3.282346 72.683927
-32.634531 -4.284380 72.430177
-30.830250 14.331527 64.966650
-30.967823 13.390836 66.359843
-31.108947 12.477229 67.270597
-31.220136 11.731322 67.769005
-31.276659 11.027161 68.037487
-31.341422 10.268157 68.432975
-31.320184 9.532601 68.681934
-31.160631 8.842313 68.566953
-31.025255 8.152895 68.792476
-31.351613 7.390223 69.147278
-31.377025 6.661173 69.523543
-31.251131 5.897489 69.866250
-31.158355 5.229084 70.130988
-31.314350 4.542318 70.242093
-31.264835 3.838996 70.591945
-31.345119 3.157120 70.687217
-31.321763 2.431853 70.880309
-31.241292 1.823043 71.295232
-31.235306 1.104563 71.719462
-31.263128 0.473475 72.107161
-31.335092 -0.189124 72.611992
-31.343198 -0.846582 72.725770
-31.279000 -1.462993 72.824541
-31.067997 -2.154760 72.856095
-30.962746 -3.000645 72.871835
-29.974732 13.841046 64.993622
-29.581139 12.261170 67.520867
-29.562621 11.608379 67.787895
-29.501375 10.959025 68.048288
-29.470936 10.289299 68.177704
-29.321049 9.560040 68.381525
-29.218937 8.877833 68.632454
-28.873456 8.184062 68.940676
-28.760739 7.573729 69.057020
-28.703975 6.863703 69.306743
-28.592330 6.214833 69.421553
-28.555226 5.622450 69.459709
-28.527383 4.979705 69.583171
-28.453734 4.317199 70.034911
-28.467539 3.638506 70.160869
-28.453940 3.090109 70.406711
-28.435865 2.369626 70.609400
-28.517589 1.826807 70.984430
-28.459052 1.109659 71.538275
-28.326050 0.534549 72.112571
-28.423943 -0.029702 72.280055
-28.578777 -0.633620 72.608110
-28.701265 -1.188086 73.005748
-28.993380 -1.796463 72.812665
-29.343306 -3.121416 73.161421
-29.368647 13.470892 65.442099
-28.863516 12.560775 67.063251
-28.779556 11.801222 67.303044
-28.580504 11.186035 67.676613
-28.427271 10.423778 67.964191
-28.297018 9.799685 68.208643
-28.189232 9.061314 68.410929
-27.985671 8.440594 68.632582
-27.858579 7.831146 68.871708
-27.625723 7.101555 68.991075
-27.388791 6.422336 69.040845
-27.368151 5.886151 69.080127
-27.259363 5.136295 69.207463
-27.029256 4.495861 69.566686
-26.994915 3.920752 69.711394
-26.920505 3.262890 69.932073
-26.734687 2.644243 70.207283
-26.714841 2.080440 70.245101
-26.799042 1.397189 70.398297
-26.750461 0.831119 70.879231
-26.702387 0.151793 71.355144
-26.829560 -0.443021 71.730072
-26.645379 -1.066676 72.448653
-27.003666 -1.739515 72.618263
-27.267363 -2.296050 72.739000
-30.020364 13.836789 64.359813
-29.215634 12.870711 65.640322
-28.846026 12.021335 66.338051
-28.524323 11.201862 66.646937
-28.342438 10.414638 66.859064
-28.024986 9.653476 67.033144
-27.755423 8.867526 67.174800
-27.532511 8.133409 67.284776
-27.355245 7.293247 67.363665
-27.180042 6.572995 67.527009
-26.960785 5.777409 67.592382
-26.830078 5.032557 67.639826
-26.656849 4.364763 67.716797
-26.486368 3.622974 67.919112
-26.233260 2.728676 68.261891
-26.024606 2.034186 68.572687
-25.941872 1.386016 68.712860
-25.816989 0.626067 68.839692
-25.778529 -0.055128 69.074254
-25.696628 -0.696505 69.212876
-25.325176 -1.440928 69.463840
-25.371713 -2.115855 69.762814
-25.375147 -2.864392 69.966732
-25.424378 -3.574755 70.428336
-26.100929 -4.594209 70.814222
-29.427725 12.999368 64.215026
-29.615791 12.358141 64.759376
-29.641258 11.763701 65.305378
-29.289798 11.071544 65.330753
-29.357941 10.370745 65.478534
-29.262726 9.766504 65.621050
-29.045696 9.019247 65.613320
-29.052380 8.264875 65.686315
-28.752605 7.593248 65.639102
-28.668961 6.867620 65.599902
-28.581138 6.273040 65.813855
-28.255429 5.491457 65.729176
-28.232017 4.858182 65.764329
-27.793154 4.195259 65.532980
-27.851332 3.492871 65.606554
-27.601929 2.935803 65.740323
-27.480522 2.228101 65.842781
-27.307608 1.520813 65.942917
-27.278999 0.894672 65.906077
-27.073005 0.230261 65.897716
-26.850564 -0.508403 65.995090
-26.810006 -1.130972 66.135417
-26.537887 -1.863442 66.229719
-26.581098 -2.451230 66.480481
-26.583781 -3.549695 66.873320
-29.269068 12.725216 63.910072
-29.370870 12.123064 64.333444
-29.427421 11.531137 64.626596
-29.278569 10.861699 64.839175
-29.319578 10.175236 65.090176
-29.211432 9.451298 65.163798
-29.027160 8.779012 65.010516
-29.093520 8.151964 65.076595
-29.027160 7.462048 65.010516
-28.772730 6.797942 64.907096
-28.853518 6.094815 65.017900
-28.985708 5.472731 65.150039
-28.629864 4.688961 65.004572
-28.629864 3.933863 65.004572
-28.256818 3.322231 64.929616
-28.229426 2.654400 65.112755
-27.944379 1.933831 65.033876
-27.823993 1.301067 65.061680
-27.760518 0.592144 65.268685
-27.633087 -0.039898 65.410396
-27.378956 -0.709705 65.420340
-27.063568 -1.374162 65.364740
-26.950343 -2.043421 65.550448
-26.915211 -2.789713 65.574476
-27.075397 -3.822349 65.682254
-33.794159 -5.101461 70.121307
-35.107911 -3.918820 69.920355
-35.795290 -2.145550 69.448310
-35.000286 -3.827265 67.819652
-32.633055 -4.416046 66.653861
-32.466090 -4.668089 65.974789
-32.112653 -4.320697 65.816009
-31.897738 -4.249079 65.740646
-31.558751 -4.082583 65.659157
-31.315314 -3.998067 65.574524
-31.116609 -3.967869 65.551917
-30.764961 -3.780594 65.578505
-30.570840 -3.810192 65.564634
-30.381093 -3.848132 65.605413
-30.091003 -3.762354 65.548182
-29.968324 -3.998661 65.358950
-29.857214 -4.252754 65.298048
-29.442969 -3.871545 64.930305
-29.268866 -4.035310 64.907503
-29.109149 -4.095929 64.911032
-28.967766 -4.193961 64.932798
-28.798751 -4.321205 64.946170
-28.603084 -4.436350 64.950819
-28.470044 -4.549750 64.963372
-28.259868 -4.592066 64.985962
-28.017997 -4.571241 65.045272
-27.743194 -4.522026 65.444329
-27.703878 -4.925415 66.331172
-27.436531 -4.976851 66.621489
-33.794159 -5.101461 70.121307
-35.107911 -3.918820 69.920355
-35.795290 -2.145550 69.448310
-35.000286 -3.827265 67.819652
-33.268854 -5.052252 71.789816
-32.836029 -4.706110 72.256562
-32.369914 -4.522116 72.506137
-32.028290 -4.422501 72.635679
-31.499327 -3.950192 72.631469
-31.064391 -3.872477 72.713419
-30.697122 -3.739682 72.736126
-30.223874 -3.377802 72.845925
-29.787725 -3.234394 72.945612
-29.428617 -3.345332 73.063524
-29.063593 -3.244234 72.948511
-28.747814 -3.368889 72.990684
-28.384614 -3.351578 73.205453
-28.065301 -3.434590 73.082607
-27.835536 -3.738300 72.882968
-27.693336 -4.091373 72.708720
-27.404318 -4.272000 72.351840
-27.323879 -4.772610 72.152157
-27.225231 -5.231966 71.793967
-27.133182 -5.697814 71.265535
-28.934111 -3.184012 64.024117
-28.920103 -1.770195 64.075957
-28.509787 1.267682 64.339898
-31.128272 -2.624530 64.068636
-29.782070 12.765058 63.309033
-30.712423 12.630585 63.620217
-30.125513 -3.520603 64.317001
-29.623614 -4.301309 64.415257
-29.167592 -4.753151 64.624325
-28.948751 -4.938554 64.861295
-28.733966 -5.207418 65.035406
-28.602691 -5.359421 65.332428
-28.395969 -5.485089 65.602284
-28.242362 -5.474209 65.865719
-28.008190 -5.251912 66.289214
-27.814897 -4.828976 66.751547
-27.416918 -4.917667 67.018615
-27.031360 -4.259431 67.572436
-27.003552 -4.293396 67.937395
-26.927706 -4.476287 68.139061
-26.895293 -4.604265 68.396654
-26.866743 -4.714137 68.714715
-26.802180 -4.893841 68.968834
-26.824241 -4.857677 69.272030
-26.828015 -4.910611 69.576739
-26.806466 -5.022363 69.839445
-26.871793 -4.956135 70.285569
-27.046923 -4.977157 70.534530
-27.095487 -5.156165 70.715423
-27.215526 -5.072140 71.100688
-27.527822 -5.089055 71.391876
-28.934111 -3.184012 64.024117
-28.920103 -1.770195 64.075957
-28.509787 1.267682 64.339898
-31.128272 -2.624530 64.068636
-29.782070 12.765058 63.309033
-30.712423 12.630585 63.620217
-32.607806 -4.306016 65.954023
-32.686770 -4.397081 66.198689
-32.704534 -4.356646 66.414319
-32.809350 -4.158102 66.777891
-33.405345 -4.337943 67.014785
-33.402279 -4.545821 67.181840
-33.437592 -4.686620 67.390496
-33.507649 -4.697049 67.757440
-33.562125 -4.744315 68.000268
-33.530476 -4.823562 68.212006
-33.377917 -4.987508 68.408934
-33.377905 -5.065314 68.676576
-33.388131 -5.056214 68.959590
-33.393054 -5.025582 69.233177
-33.360970 -4.998924 69.524464
-33.352191 -5.078174 69.755344
-33.441617 -4.971268 70.082327
-33.354630 -4.975208 70.400904
-33.268792 -4.887246 70.682994
-33.190061 -4.870277 70.974429
-32.993243 -4.633376 71.321239
-32.747249 -4.498052 71.702807
-32.487737 -4.396384 72.052257
-32.086161 -3.786511 72.569036
-31.734124 -3.432454 72.918137
-33.646737 -5.093115 70.127860
-35.039588 -4.041626 69.982583
-35.819096 -2.314447 69.500314
-35.845404 -0.239768 69.535373
-34.984423 -3.946506 67.850475
-35.694839 -1.106218 67.335016
-30.933138 -3.851439 65.338622
-31.546157 -4.283586 66.060001
-31.122401 -4.303241 66.726540
-31.826024 -4.665121 67.675041
-32.683820 -5.109255 68.918224
-31.966789 -4.636833 68.908255
-31.240951 -3.865029 68.708065
-32.325886 -4.847492 70.137239
-31.461407 -4.376924 69.930793
-31.971660 -4.428647 70.879099
-31.373287 -4.028391 71.430705
-30.573604 -3.620439 71.994283
-33.646737 -5.093115 70.127860
-35.039588 -4.041626 69.982583
-35.819096 -2.314447 69.500314
-35.845404 -0.239768 69.535373
-34.984423 -3.946506 67.850475
-35.694839 -1.106218 67.335016
-28.653138 -4.711942 65.272208
-29.522124 -4.405749 66.511168
-29.550324 -4.369323 67.290522
-28.773932 -4.038779 67.145645
-27.913937 -4.693122 66.039498
-26.870152 -3.498639 67.062415
-27.703375 -4.022182 68.340248
-27.068763 -4.126096 68.385298
-27.687901 -3.913756 69.202462
-28.268691 -4.267124 69.905346
-27.225452 -4.461683 69.984651
-29.119382 -3.670868 69.097916
-27.950104 -3.558852 71.704408
-28.870862 -3.872340 71.329835
-29.506210 -3.843789 70.613060
-29.779305 -3.767785 69.831996
-28.720210 -3.011391 72.579772
