ply
format ascii 1.0
comment VCGLIB generated
element vertex 462
property float x
property float y
property float z
element face 940
property list uchar int vertex_indices
end_header
-29.8039 12.9134 63.3802 
-29.972 12.2689 63.6592 
-30.0289 11.7439 64.0165 
-30.1052 11.1687 64.3383 
-30.1246 10.4796 64.4595 
-30.1813 9.83836 64.421 
-30.03 9.1883 64.5777 
-30.0486 8.52514 64.3768 
-29.916 7.895 64.4129 
-29.916 7.16748 64.2524 
-29.916 6.49688 64.2524 
-29.9538 5.86364 64.2535 
-29.9349 5.18975 64.213 
-29.9349 4.48234 64.213 
-29.9159 3.83265 63.9337 
-29.9535 3.2025 63.9349 
-29.7653 2.50103 64.0085 
-29.8783 1.94684 64.0915 
-29.8971 1.24309 64.2118 
-29.8404 0.498749 64.2501 
-29.9348 -0.654117 64.0534 
-29.8219 -3.02715 63.9705 
-30.8563 13.1554 63.4798 
-30.9043 12.5961 63.9124 
-30.973 11.9395 64.3076 
-31.1877 11.2677 64.6683 
-31.4027 10.615 64.9432 
-31.5238 9.8466 64.7686 
-31.6074 9.23047 64.7714 
-31.8387 8.45632 64.8238 
-31.9476 7.77347 64.9617 
-31.97 7.03636 65.0073 
-32.0959 6.2942 65.0115 
-32.2185 5.62669 64.9261 
-32.2378 4.88173 64.882 
-32.212 4.17308 64.7474 
-32.2571 3.43828 64.838 
-32.2505 2.69023 64.6598 
-32.1638 1.98984 64.5682 
-32.1029 1.3351 64.6104 
-32.0358 0.67765 64.4755 
-32.1352 -0.099565 64.3467 
-31.993 -1.51624 63.8188 
-31.9691 -2.99858 64.3411 
-31.886 -3.57006 64.3383 
-31.5269 13.6092 63.8767 
-31.8082 12.9303 64.2336 
-32.0709 12.2787 64.7696 
-32.1866 11.6162 65.189 
-32.4571 10.9395 65.3965 
-32.822 10.1801 65.3167 
-33.058 9.43329 65.2122 
-33.4354 8.70179 65.2884 
-33.7826 7.97143 65.3282 
-34.0272 7.25714 65.438 
-34.4054 6.49302 65.4541 
-34.7152 5.81062 65.5167 
-34.8589 5.14551 65.6961 
-35.1102 4.39309 65.6865 
-35.0936 3.69935 65.9243 
-35.1514 2.99261 65.9964 
-35.267 2.28628 66.1407 
-35.3039 1.53948 66.0571 
-35.288 0.869543 66.297 
-35.313 0.159184 66.3934 
-35.3962 -0.552959 66.5629 
-35.1682 -2.73471 66.6717 
-34.571 -4.00041 66.5855 
-31.5839 13.7949 64.2042 
-32.2732 13.0321 64.8999 
-32.5136 12.3447 65.4931 
-32.7993 11.5525 65.9094 
-33.4519 10.7382 66.2071 
-33.917 9.956 66.4371 
-34.112 9.22388 66.7802 
-34.3192 8.49712 67.2281 
-34.9217 7.70958 67.3747 
-35.1941 6.95807 67.3613 
-35.3354 6.27225 67.5284 
-35.5345 5.53721 67.5529 
-35.6496 4.80962 67.5122 
-35.8341 4.0795 67.4334 
-35.9228 3.36059 67.4289 
-35.9608 2.68659 67.4961 
-36.0308 1.93449 67.6998 
-35.9613 1.18274 67.7382 
-36.0246 0.50739 67.7694 
-36.0252 -0.206941 68.0123 
-35.9239 -0.884534 68.1577 
-35.8793 -1.68243 68.1604 
-35.873 -2.36153 68.2307 
-35.6877 -3.08923 68.3124 
-35.0329 -4.17467 68.5668 
-32.312 13.0395 65.7628 
-32.7288 12.0844 66.6737 
-33.133 11.3 67.4743 
-33.4598 10.4868 67.9429 
-33.6521 9.77487 68.1192 
-33.8848 9.01865 68.3048 
-34.0109 8.28594 68.4204 
-34.5695 7.54856 68.6867 
-34.6719 6.77868 68.9178 
-34.7533 6.10578 69.1015 
-34.9151 5.43452 69.2229 
-34.9952 4.72239 69.4853 
-35.1746 4.01095 69.7297 
-35.1746 3.32221 69.7297 
-35.4113 2.6173 70.0254 
-35.2526 1.97875 70.0676 
-35.2518 1.37648 70.2262 
-35.3092 0.688588 70.5947 
-35.4056 -0.03552 70.8906 
-35.4046 -0.670657 71.0463 
-35.5013 -1.34462 71.1841 
-35.3062 -2.02617 71.1414 
-35.1294 -2.66747 71.1417 
-31.6691 14.0104 65.4541 
-32.0054 13.0788 66.4579 
-32.1128 12.1838 67.6089 
-31.8946 11.4783 68.0598 
-32.4101 10.5437 68.4174 
-32.6042 9.76333 68.7365 
-32.5569 9.01526 69.084 
-32.7486 8.26416 69.2191 
-32.7487 7.48533 69.3969 
-32.7963 6.75216 69.5852 
-32.891 5.97085 69.7834 
-32.8671 5.3388 70.0849 
-32.8904 4.56522 70.3951 
-33.2397 3.82523 70.7741 
-33.4225 3.10335 71.1554 
-33.4911 2.44816 71.2124 
-33.3982 1.65751 71.3625 
-33.3046 0.912221 71.6812 
-33.2798 0.262064 72.0541 
-33.3922 -0.429181 72.3679 
-33.3907 -1.85025 72.6161 
-33.1857 -2.58869 72.7011 
-32.6345 -4.28438 72.4302 
-30.8302 14.3315 64.9667 
-30.9678 13.3908 66.3598 
-31.1089 12.4772 67.2706 
-31.2201 11.7313 67.769 
-31.2767 11.0272 68.0375 
-31.3414 10.2682 68.433 
-31.3202 9.5326 68.6819 
-31.1606 8.84231 68.567 
-31.0253 8.15289 68.7925 
-31.3516 7.39022 69.1473 
-31.377 6.66117 69.5235 
-31.2511 5.89749 69.8662 
-31.1584 5.22908 70.131 
-31.3144 4.54232 70.2421 
-31.2648 3.839 70.5919 
-31.3451 3.15712 70.6872 
-31.3218 2.43185 70.8803 
-31.2413 1.82304 71.2952 
-31.2353 1.10456 71.7195 
-31.2631 0.473475 72.1072 
-31.3432 -0.846582 72.7258 
-31.068 -2.15476 72.8561 
-30.9627 -3.00064 72.8718 
-29.9747 13.841 64.9936 
-29.5811 12.2612 67.5209 
-29.5626 11.6084 67.7879 
-29.5014 10.959 68.0483 
-29.4709 10.2893 68.1777 
-29.321 9.56004 68.3815 
-29.2189 8.87783 68.6325 
-28.8735 8.18406 68.9407 
-28.7607 7.57373 69.057 
-28.704 6.8637 69.3067 
-28.5923 6.21483 69.4216 
-28.5552 5.62245 69.4597 
-28.5274 4.9797 69.5832 
-28.4537 4.3172 70.0349 
-28.4675 3.63851 70.1609 
-28.4539 3.09011 70.4067 
-28.4359 2.36963 70.6094 
-28.5176 1.82681 70.9844 
-28.4591 1.10966 71.5383 
-28.326 0.534549 72.1126 
-28.5788 -0.63362 72.6081 
-28.9934 -1.79646 72.8127 
-29.3433 -3.12142 73.1614 
-29.3686 13.4709 65.4421 
-28.8635 12.5608 67.0632 
-28.7796 11.8012 67.303 
-28.5805 11.186 67.6766 
-28.4273 10.4238 67.9642 
-28.297 9.79968 68.2086 
-28.1892 9.06131 68.4109 
-27.9857 8.44059 68.6326 
-27.8586 7.83115 68.8717 
-27.6257 7.10155 68.9911 
-27.3888 6.42234 69.0408 
-27.3682 5.88615 69.0801 
-27.2594 5.13629 69.2075 
-27.0293 4.49586 69.5667 
-26.9949 3.92075 69.7114 
-26.9205 3.26289 69.9321 
-26.7347 2.64424 70.2073 
-26.7148 2.08044 70.2451 
-26.799 1.39719 70.3983 
-26.7505 0.831119 70.8792 
-26.8296 -0.443021 71.7301 
-26.6454 -1.06668 72.4487 
-27.0037 -1.73951 72.6183 
-27.2674 -2.29605 72.739 
-30.0204 13.8368 64.3598 
-29.2156 12.8707 65.6403 
-28.846 12.0213 66.3381 
-28.5243 11.2019 66.6469 
-28.3424 10.4146 66.8591 
-28.025 9.65348 67.0331 
-27.7554 8.86753 67.1748 
-27.5325 8.13341 67.2848 
-27.3552 7.29325 67.3637 
-27.18 6.573 67.527 
-26.9608 5.77741 67.5924 
-26.8301 5.03256 67.6398 
-26.6568 4.36476 67.7168 
-26.4864 3.62297 67.9191 
-26.2333 2.72868 68.2619 
-26.0246 2.03419 68.5727 
-25.9419 1.38602 68.7129 
-25.817 0.626067 68.8397 
-25.7785 -0.055128 69.0743 
-25.6966 -0.696505 69.2129 
-25.3252 -1.44093 69.4638 
-25.3717 -2.11585 69.7628 
-25.3751 -2.86439 69.9667 
-25.4244 -3.57475 70.4283 
-26.1009 -4.59421 70.8142 
-29.4277 12.9994 64.215 
-29.2898 11.0715 65.3307 
-29.3579 10.3707 65.4785 
-29.2627 9.7665 65.621 
-29.0457 9.01925 65.6133 
-29.0524 8.26488 65.6863 
-28.7526 7.59325 65.6391 
-28.669 6.86762 65.5999 
-28.5811 6.27304 65.8139 
-28.2554 5.49146 65.7292 
-28.232 4.85818 65.7643 
-27.7932 4.19526 65.533 
-27.8513 3.49287 65.6066 
-27.6019 2.9358 65.7403 
-27.4805 2.2281 65.8428 
-27.3076 1.52081 65.9429 
-27.279 0.894672 65.9061 
-27.073 0.230261 65.8977 
-26.5379 -1.86344 66.2297 
-26.5811 -2.45123 66.4805 
-26.5838 -3.5497 66.8733 
-29.2691 12.7252 63.9101 
-29.3709 12.1231 64.3334 
-29.4274 11.5311 64.6266 
-29.2786 10.8617 64.8392 
-29.3196 10.1752 65.0902 
-29.2114 9.4513 65.1638 
-29.0272 8.77901 65.0105 
-29.0935 8.15196 65.0766 
-29.0272 7.46205 65.0105 
-28.7727 6.79794 64.9071 
-28.8535 6.09481 65.0179 
-28.9857 5.47273 65.15 
-28.6299 4.68896 65.0046 
-28.6299 3.93386 65.0046 
-28.2568 3.32223 64.9296 
-28.2294 2.6544 65.1128 
-27.9444 1.93383 65.0339 
-27.824 1.30107 65.0617 
-27.7605 0.592144 65.2687 
-27.6331 -0.039898 65.4104 
-26.9152 -2.78971 65.5745 
-27.0754 -3.82235 65.6823 
-31.5973 -4.09682 68.966 
-31.3131 -3.95315 68.9439 
-30.9762 -3.74781 68.9901 
-30.6038 -3.52653 68.9795 
-30.2345 -3.37138 69.0269 
-29.9928 -3.33755 69.0033 
-29.6466 -3.35236 68.9526 
-29.3566 -3.43659 68.8519 
-29.2244 -3.58759 68.7286 
-29.0072 -3.71566 68.685 
-28.5631 -3.47491 68.8399 
-28.1746 -3.45179 69.3286 
-28.0581 -3.82992 69.6127 
-28.0022 -4.17569 69.679 
-27.787 -4.20301 69.7135 
-27.5871 -4.25959 69.8253 
-27.4485 -4.53633 69.8741 
-28.9341 -3.18401 64.0241 
-31.1327 -2.64312 63.9701 
-31.0794 -3.8311 67.3504 
-31.0237 -3.53007 67.9163 
-30.8104 -3.41076 68.366 
-30.9831 -3.47111 69.7415 
-31.2226 -3.52951 70.2161 
-31.0416 -3.58244 70.626 
-30.7793 -3.56226 71.0903 
-30.4089 -3.52236 71.5679 
-30.0162 -3.90385 71.6585 
-31.9691 -2.99858 64.3411 
-35.6877 -3.08923 68.3124 
-35.5013 -1.34462 71.1841 
-35.3062 -2.02617 71.1414 
-32.6345 -4.28438 72.4302 
-31.3432 -0.846582 72.7258 
-31.068 -2.15476 72.8561 
-28.5788 -0.63362 72.6081 
-28.9934 -1.79646 72.8127 
-26.6454 -1.06668 72.4487 
-27.0037 -1.73951 72.6183 
-27.2674 -2.29605 72.739 
-25.4244 -3.57475 70.4283 
-26.1009 -4.59421 70.8142 
-26.5811 -2.45123 66.4805 
-26.5838 -3.5497 66.8733 
-26.9152 -2.78971 65.5745 
-27.0754 -3.82235 65.6823 
-32.6331 -4.41605 66.6539 
-32.4661 -4.66809 65.9748 
-32.1127 -4.3207 65.816 
-31.8977 -4.24908 65.7406 
-31.5588 -4.08258 65.6592 
-31.3153 -3.99807 65.5745 
-31.1166 -3.96787 65.5519 
-30.3811 -3.84813 65.6054 
-29.8572 -4.25275 65.298 
-28.9678 -4.19396 64.9328 
-28.7988 -4.32121 64.9462 
-28.47 -4.54975 64.9634 
-28.2599 -4.59207 64.986 
-28.018 -4.57124 65.0453 
-27.7432 -4.52203 65.4443 
-27.7039 -4.92542 66.3312 
-27.4365 -4.97685 66.6215 
-33.7942 -5.10146 70.1213 
-33.2689 -5.05225 71.7898 
-32.836 -4.70611 72.2566 
-32.3699 -4.52212 72.5061 
-32.0283 -4.4225 72.6357 
-31.4993 -3.95019 72.6315 
-31.0644 -3.87248 72.7134 
-30.6971 -3.73968 72.7361 
-30.2239 -3.3778 72.8459 
-29.7877 -3.23439 72.9456 
-29.4286 -3.34533 73.0635 
-29.0636 -3.24423 72.9485 
-28.7478 -3.36889 72.9907 
-28.3846 -3.35158 73.2055 
-28.0653 -3.43459 73.0826 
-27.8355 -3.7383 72.883 
-27.6933 -4.09137 72.7087 
-27.4043 -4.272 72.3518 
-27.3239 -4.77261 72.1522 
-27.2252 -5.23197 71.794 
-27.1332 -5.69781 71.2655 
-30.1255 -3.5206 64.317 
-29.6236 -4.30131 64.4153 
-29.1676 -4.75315 64.6243 
-28.9488 -4.93855 64.8613 
-28.734 -5.20742 65.0354 
-28.6027 -5.35942 65.3324 
-28.396 -5.48509 65.6023 
-28.2424 -5.47421 65.8657 
-28.0082 -5.25191 66.2892 
-27.8149 -4.82898 66.7515 
-27.4169 -4.91767 67.0186 
-27.0314 -4.25943 67.5724 
-27.0036 -4.2934 67.9374 
-26.9277 -4.47629 68.1391 
-26.8953 -4.60427 68.3967 
-26.8667 -4.71414 68.7147 
-26.8022 -4.89384 68.9688 
-26.8242 -4.85768 69.272 
-26.828 -4.91061 69.5767 
-26.8065 -5.02236 69.8394 
-26.8718 -4.95613 70.2856 
-27.0469 -4.97716 70.5345 
-27.0955 -5.15617 70.7154 
-27.2155 -5.07214 71.1007 
-27.5278 -5.08906 71.3919 
-32.6078 -4.30602 65.954 
-32.6868 -4.39708 66.1987 
-32.7045 -4.35665 66.4143 
-32.8093 -4.1581 66.7779 
-33.4053 -4.33794 67.0148 
-33.4023 -4.54582 67.1818 
-33.4376 -4.68662 67.3905 
-33.5076 -4.69705 67.7574 
-33.5621 -4.74432 68.0003 
-33.5305 -4.82356 68.212 
-33.3779 -4.98751 68.4089 
-33.3779 -5.06531 68.6766 
-33.3881 -5.05621 68.9596 
-33.3931 -5.02558 69.2332 
-33.3522 -5.07817 69.7553 
-33.3546 -4.97521 70.4009 
-33.2688 -4.88725 70.683 
-33.1901 -4.87028 70.9744 
-32.9932 -4.63338 71.3212 
-32.7472 -4.49805 71.7028 
-32.4877 -4.39638 72.0523 
-32.0862 -3.78651 72.569 
-31.7341 -3.43245 72.9181 
-35.8191 -2.31445 69.5003 
-34.9844 -3.94651 67.8505 
-30.9331 -3.85144 65.3386 
-31.5462 -4.28359 66.06 
-31.1224 -4.30324 66.7265 
-31.826 -4.66512 67.675 
-32.6838 -5.10925 68.9182 
-31.9668 -4.63683 68.9083 
-31.241 -3.86503 68.7081 
-32.3259 -4.84749 70.1372 
-31.4614 -4.37692 69.9308 
-31.9717 -4.42865 70.8791 
-31.3733 -4.02839 71.4307 
-30.5736 -3.62044 71.9943 
-35.0396 -4.04163 69.9826 
-28.6531 -4.71194 65.2722 
-29.5221 -4.40575 66.5112 
-29.5503 -4.36932 67.2905 
-28.7739 -4.03878 67.1456 
-27.9139 -4.69312 66.0395 
-26.8702 -3.49864 67.0624 
-27.7034 -4.02218 68.3402 
-27.0688 -4.1261 68.3853 
-27.6879 -3.91376 69.2025 
-28.2687 -4.26712 69.9053 
-27.2255 -4.46168 69.9846 
-29.1194 -3.67087 69.0979 
-27.9501 -3.55885 71.7044 
-28.8709 -3.87234 71.3298 
-29.5062 -3.84379 70.6131 
-29.7793 -3.76779 69.832 
-28.7202 -3.01139 72.5798 
-29.8971 -0.05995 64.1319 
-29.8032 -1.42953 63.8511 
-29.8595 -2.0232 63.8924 
-32.0018 -0.831127 64.0796 
-32.1036 -2.21236 64.0394 
-35.4001 -1.26429 66.5024 
-35.3671 -1.97724 66.5265 
-34.9714 -3.30682 71.2632 
-34.1522 -4.38142 71.0471 
-33.5721 -1.11432 72.5682 
-33.0945 -3.28235 72.6839 
-31.3351 -0.189124 72.612 
-31.279 -1.46299 72.8245 
-28.4239 -0.029702 72.2801 
-28.7013 -1.18809 73.0057 
-26.7024 0.151793 71.3551 
-26.8506 -0.508403 65.9951 
-26.81 -1.13097 66.1354 
-27.379 -0.709705 65.4203 
-27.0636 -1.37416 65.3647 
-26.9503 -2.04342 65.5504 
3 0 1 22 
3 22 209 0 
3 1 23 22 
3 0 255 1 
3 209 234 0 
3 22 45 209 
3 23 46 22 
3 1 24 23 
3 255 256 1 
3 0 234 255 
3 234 210 255 
3 209 185 234 
3 45 68 209 
3 22 46 45 
3 46 68 45 
3 46 69 68 
3 23 24 46 
3 24 47 46 
3 1 2 24 
3 256 2 1 
3 256 257 2 
3 255 210 256 
3 210 211 256 
3 234 185 210 
3 185 186 210 
3 209 162 185 
3 68 139 209 
3 69 116 68 
3 46 47 69 
3 47 70 69 
3 24 25 47 
3 2 3 24 
3 257 3 2 
3 257 258 3 
3 256 211 257 
3 211 235 257 
3 210 186 211 
3 186 187 211 
3 185 140 186 
3 162 140 185 
3 162 139 140 
3 139 162 209 
3 68 116 139 
3 116 140 139 
3 116 117 140 
3 69 93 116 
3 70 93 69 
3 70 94 93 
3 47 48 70 
3 25 48 47 
3 25 26 48 
3 24 3 25 
3 3 4 25 
3 258 4 3 
3 258 5 4 
3 257 235 258 
3 235 236 258 
3 211 212 235 
3 187 212 211 
3 187 188 212 
3 186 163 187 
3 140 163 186 
3 140 141 163 
3 117 141 140 
3 117 118 141 
3 116 93 117 
3 93 94 117 
3 94 118 117 
3 94 95 118 
3 70 71 94 
3 48 71 70 
3 48 49 71 
3 26 49 48 
3 26 50 49 
3 25 27 26 
3 4 27 25 
3 4 5 27 
3 5 28 27 
3 258 259 5 
3 236 259 258 
3 236 237 259 
3 235 212 236 
3 212 213 236 
3 188 213 212 
3 188 189 213 
3 187 164 188 
3 163 164 187 
3 163 142 164 
3 141 142 163 
3 141 118 142 
3 118 119 142 
3 95 119 118 
3 95 120 119 
3 94 72 95 
3 71 72 94 
3 71 49 72 
3 49 50 72 
3 50 73 72 
3 26 27 50 
3 27 51 50 
3 28 51 27 
3 28 29 51 
3 5 7 28 
3 259 260 5 
3 237 260 259 
3 237 238 260 
3 236 213 237 
3 213 214 237 
3 189 214 213 
3 189 190 214 
3 188 165 189 
3 164 165 188 
3 164 143 165 
3 142 143 164 
3 142 119 143 
3 119 144 143 
3 120 144 119 
3 120 121 144 
3 95 96 120 
3 72 73 95 
3 73 96 95 
3 73 97 96 
3 50 51 73 
3 51 52 73 
3 29 52 51 
3 29 30 52 
3 28 7 29 
3 7 8 29 
3 5 6 7 
3 260 6 5 
3 260 261 6 
3 238 261 260 
3 238 239 261 
3 237 214 238 
3 214 215 238 
3 190 215 214 
3 190 191 215 
3 189 166 190 
3 165 166 189 
3 165 144 166 
3 144 165 143 
3 121 145 144 
3 120 96 121 
3 96 97 121 
3 97 98 121 
3 73 74 97 
3 52 74 73 
3 52 53 74 
3 30 53 52 
3 30 31 53 
3 29 8 30 
3 8 9 30 
3 7 261 8 
3 261 7 6 
3 239 240 261 
3 238 215 239 
3 215 240 239 
3 215 216 240 
3 191 192 215 
3 190 167 191 
3 166 167 190 
3 166 145 167 
3 145 166 144 
3 121 122 145 
3 98 122 121 
3 98 123 122 
3 97 74 98 
3 74 75 98 
3 53 75 74 
3 53 76 75 
3 31 54 53 
3 30 9 31 
3 9 10 31 
3 8 263 9 
3 261 262 8 
3 240 262 261 
3 240 263 262 
3 216 217 240 
3 215 192 216 
3 192 193 216 
3 191 169 192 
3 167 168 191 
3 145 168 167 
3 145 146 168 
3 122 146 145 
3 122 147 146 
3 123 147 122 
3 123 148 147 
3 98 99 123 
3 75 99 98 
3 75 76 99 
3 76 100 99 
3 53 54 76 
3 54 77 76 
3 31 32 54 
3 10 32 31 
3 10 11 32 
3 9 264 10 
3 263 264 9 
3 263 240 264 
3 240 241 264 
3 8 262 263 
3 217 241 240 
3 217 242 241 
3 216 193 217 
3 193 194 217 
3 192 169 193 
3 169 170 193 
3 191 168 169 
3 168 147 169 
3 147 168 146 
3 148 170 147 
3 123 124 148 
3 99 100 123 
3 100 124 123 
3 100 101 124 
3 76 77 100 
3 77 101 100 
3 77 78 101 
3 54 55 77 
3 32 55 54 
3 32 33 55 
3 11 33 32 
3 11 12 33 
3 10 265 11 
3 264 265 10 
3 264 243 265 
3 241 242 264 
3 242 243 264 
3 242 218 243 
3 217 218 242 
3 217 194 218 
3 194 195 218 
3 193 171 194 
3 170 171 193 
3 170 148 171 
3 148 149 171 
3 169 147 170 
3 124 149 148 
3 124 125 149 
3 101 125 124 
3 101 102 125 
3 78 102 101 
3 78 79 102 
3 77 56 78 
3 55 56 77 
3 55 33 56 
3 33 34 56 
3 12 34 33 
3 12 13 34 
3 11 265 12 
3 265 266 12 
3 243 267 265 
3 218 219 243 
3 195 219 218 
3 195 196 219 
3 194 172 195 
3 171 172 194 
3 125 150 149 
3 102 126 125 
3 79 103 102 
3 78 56 79 
3 56 57 79 
3 13 35 34 
3 12 267 13 
3 267 266 265 
3 267 12 266 
3 243 245 267 
3 219 220 243 
3 196 220 219 
3 196 197 220 
3 195 172 196 
3 172 173 196 
3 125 126 150 
3 126 127 150 
3 102 103 126 
3 103 127 126 
3 103 104 127 
3 79 80 103 
3 57 80 79 
3 57 58 80 
3 13 14 35 
3 267 14 13 
3 267 268 14 
3 245 268 267 
3 245 269 268 
3 220 244 243 
3 197 221 220 
3 196 173 197 
3 173 174 197 
3 172 150 173 
3 127 151 150 
3 104 128 127 
3 103 80 104 
3 80 81 104 
3 58 81 80 
3 58 59 81 
3 14 36 35 
3 268 269 14 
3 269 15 14 
3 245 246 269 
3 220 245 244 
3 197 198 221 
3 174 198 197 
3 174 175 198 
3 173 151 174 
3 127 128 151 
3 128 152 151 
3 104 129 128 
3 81 105 104 
3 59 82 81 
3 14 15 36 
3 15 37 36 
3 269 16 15 
3 246 247 269 
3 245 247 246 
3 245 221 247 
3 198 222 221 
3 175 199 198 
3 128 153 152 
3 129 153 128 
3 129 154 153 
3 104 105 129 
3 105 130 129 
3 81 82 105 
3 82 106 105 
3 59 60 82 
3 15 38 37 
3 16 38 15 
3 16 17 38 
3 269 270 16 
3 247 270 269 
3 247 271 270 
3 221 222 247 
3 222 248 247 
3 245 220 221 
3 198 199 222 
3 199 223 222 
3 175 176 199 
3 129 130 154 
3 130 155 154 
3 105 106 130 
3 106 107 130 
3 82 83 106 
3 60 83 82 
3 60 61 83 
3 17 39 38 
3 16 271 17 
3 271 16 270 
3 247 248 271 
3 248 249 271 
3 199 200 223 
3 176 200 199 
3 176 177 200 
3 130 131 155 
3 107 131 130 
3 107 108 131 
3 106 83 107 
3 83 84 107 
3 61 84 83 
3 61 62 84 
3 17 18 39 
3 271 18 17 
3 271 272 18 
3 249 272 271 
3 249 250 272 
3 200 201 223 
3 177 201 200 
3 177 178 201 
3 131 156 155 
3 108 109 131 
3 107 84 108 
3 84 85 108 
3 62 85 84 
3 62 63 85 
3 18 40 39 
3 272 19 18 
3 250 273 272 
3 201 224 223 
3 178 202 201 
3 131 132 156 
3 109 132 131 
3 109 110 132 
3 108 85 109 
3 85 86 109 
3 63 86 85 
3 63 64 86 
3 18 19 40 
3 19 441 40 
3 272 273 19 
3 273 441 19 
3 273 274 441 
3 250 251 273 
3 201 202 224 
3 202 225 224 
3 178 179 202 
3 132 157 156 
3 110 133 132 
3 64 65 86 
3 441 41 40 
3 273 251 274 
3 251 459 274 
3 202 203 225 
3 179 203 202 
3 179 204 203 
3 132 133 157 
3 133 158 157 
3 110 111 133 
3 65 87 86 
3 441 444 41 
3 251 457 459 
3 203 226 225 
3 204 226 203 
3 204 227 226 
3 179 180 204 
3 133 134 158 
3 111 134 133 
3 111 135 134 
3 65 88 87 
3 441 20 444 
3 457 460 459 
3 204 456 227 
3 180 181 204 
3 134 452 158 
3 135 452 134 
3 135 159 452 
3 111 112 135 
3 65 446 88 
3 20 42 444 
3 457 458 460 
3 456 228 227 
3 204 181 456 
3 181 205 456 
3 135 450 159 
3 112 450 135 
3 112 113 450 
3 446 89 88 
3 20 442 42 
3 458 252 460 
3 181 454 205 
3 450 453 159 
3 113 114 450 
3 446 447 89 
3 442 443 42 
3 252 461 460 
3 454 206 205 
3 453 455 159 
3 450 136 453 
3 114 136 450 
3 114 115 136 
3 447 90 89 
3 443 445 42 
3 252 275 461 
3 454 182 206 
3 453 183 455 
3 136 137 453 
3 115 137 136 
3 115 448 137 
3 447 66 90 
3 443 21 445 
3 252 253 275 
3 182 455 206 
3 183 208 455 
3 453 160 183 
3 137 160 453 
3 137 161 160 
3 448 451 137 
3 66 91 90 
3 21 43 445 
3 253 254 275 
3 455 207 206 
3 208 207 455 
3 183 184 208 
3 160 184 183 
3 160 161 184 
3 137 451 161 
3 451 138 161 
3 448 449 451 
3 66 67 91 
3 21 44 43 
3 254 276 275 
3 451 449 138 
3 67 92 91 
3 34 57 56 
3 34 35 57 
3 35 58 57 
3 35 36 58 
3 36 59 58 
3 36 37 59 
3 37 60 59 
3 37 61 60 
3 37 38 61 
3 38 62 61 
3 38 39 62 
3 39 63 62 
3 39 40 63 
3 150 171 149 
3 150 172 171 
3 151 173 150 
3 174 151 175 
3 151 153 175 
3 153 151 152 
3 154 177 153 
3 222 223 248 
3 223 249 248 
3 223 224 249 
3 224 225 249 
3 225 250 249 
3 225 251 250 
3 225 226 251 
3 226 457 251 
3 226 227 457 
3 227 458 457 
3 227 228 458 
3 228 252 458 
3 228 229 252 
3 175 153 176 
3 176 153 177 
3 177 155 178 
3 156 179 155 
3 109 87 110 
3 274 20 441 
3 274 459 20 
3 459 442 20 
3 459 460 442 
3 460 443 442 
3 460 461 443 
3 461 21 443 
3 461 275 21 
3 275 276 21 
3 157 180 156 
3 158 181 157 
3 87 109 86 
3 179 156 180 
3 88 111 87 
3 180 157 181 
3 452 454 158 
3 159 455 452 
3 455 182 452 
3 111 88 112 
3 88 113 112 
3 88 89 113 
3 89 90 113 
3 90 114 113 
3 90 115 114 
3 90 91 115 
3 91 448 115 
3 91 92 448 
3 92 449 448 
3 42 445 444 
3 456 229 228 
3 456 205 229 
3 205 230 229 
3 181 158 454 
3 206 230 205 
3 206 231 230 
3 454 452 182 
3 252 229 253 
3 229 230 253 
3 230 254 253 
3 230 231 254 
3 207 232 206 
3 208 232 207 
3 208 233 232 
3 44 67 43 
3 155 179 178 
3 177 154 155 
3 87 111 110 
3 206 232 231 
3 63 41 64 
3 64 446 65 
3 41 63 40 
3 444 446 41 
3 446 445 447 
3 43 66 445 
3 184 233 208 
3 66 43 67 
3 231 232 254 
3 232 233 254 
3 446 64 41 
3 445 66 447 
3 446 444 445 
3 399 398 415 
3 415 400 399 
3 398 397 415 
3 400 340 399 
3 415 418 400 
3 397 396 415 
3 398 395 397 
3 400 401 340 
3 418 401 400 
3 418 402 401 
3 415 416 418 
3 396 414 415 
3 397 395 396 
3 395 394 396 
3 401 402 340 
3 402 449 340 
3 418 403 402 
3 416 419 418 
3 415 414 416 
3 414 417 416 
3 396 393 414 
3 394 393 396 
3 394 410 393 
3 395 92 394 
3 449 423 340 
3 402 403 449 
3 403 341 449 
3 418 420 403 
3 419 420 418 
3 419 421 420 
3 416 277 419 
3 417 277 416 
3 417 278 277 
3 414 296 417 
3 393 392 414 
3 410 392 393 
3 410 67 392 
3 394 92 410 
3 92 306 410 
3 449 448 423 
3 403 404 341 
3 420 404 403 
3 420 405 404 
3 421 406 420 
3 419 301 421 
3 277 278 419 
3 278 279 419 
3 417 279 278 
3 417 298 279 
3 296 297 417 
3 414 413 296 
3 392 323 414 
3 67 391 392 
3 404 405 341 
3 405 342 341 
3 420 406 405 
3 406 342 405 
3 406 343 342 
3 421 344 406 
3 301 302 421 
3 419 299 301 
3 279 299 419 
3 279 439 299 
3 298 280 279 
3 417 297 298 
3 296 426 297 
3 413 426 296 
3 413 425 426 
3 414 323 413 
3 323 412 413 
3 392 391 323 
3 391 388 323 
3 67 390 391 
3 406 344 343 
3 421 345 344 
3 302 304 421 
3 301 438 302 
3 299 439 301 
3 439 438 301 
3 439 433 438 
3 279 280 439 
3 280 281 439 
3 298 281 280 
3 298 282 281 
3 425 427 426 
3 413 330 425 
3 412 329 413 
3 323 324 412 
3 388 324 323 
3 388 387 324 
3 391 390 388 
3 390 387 388 
3 345 408 344 
3 421 346 345 
3 304 422 421 
3 302 438 304 
3 438 437 304 
3 433 437 438 
3 439 435 433 
3 281 282 439 
3 282 283 439 
3 298 283 282 
3 427 286 426 
3 425 370 427 
3 330 331 425 
3 413 329 330 
3 329 331 330 
3 412 328 329 
3 324 326 412 
3 387 386 324 
3 408 407 344 
3 345 346 408 
3 346 161 408 
3 421 422 346 
3 422 347 346 
3 304 347 422 
3 304 348 347 
3 435 290 433 
3 439 283 435 
3 283 285 435 
3 286 285 426 
3 427 430 286 
3 370 372 427 
3 425 369 370 
3 331 424 425 
3 328 411 329 
3 412 327 328 
3 326 327 412 
3 326 44 327 
3 324 325 326 
3 386 325 324 
3 386 389 325 
3 387 389 386 
3 387 390 389 
3 407 309 344 
3 408 451 407 
3 161 311 408 
3 346 347 161 
3 347 348 161 
3 348 349 161 
3 304 349 348 
3 304 350 349 
3 290 293 433 
3 435 286 290 
3 286 435 285 
3 430 432 286 
3 427 372 430 
3 369 371 370 
3 425 368 369 
3 424 366 425 
3 331 364 424 
3 411 331 329 
3 411 362 331 
3 328 44 411 
3 44 328 327 
3 309 343 344 
3 309 342 343 
3 407 451 309 
3 408 137 451 
3 161 349 311 
3 350 184 349 
3 304 351 350 
3 290 291 293 
3 286 432 290 
3 432 291 290 
3 432 376 291 
3 430 376 432 
3 430 375 376 
3 371 430 370 
3 369 339 371 
3 425 367 368 
3 366 367 425 
3 424 364 366 
3 364 365 366 
3 331 363 364 
3 362 363 331 
3 411 361 362 
3 44 361 411 
3 44 295 361 
3 184 313 349 
3 350 352 184 
3 351 352 350 
3 351 437 352 
3 304 440 351 
3 291 376 293 
3 376 377 293 
3 430 374 375 
3 371 373 430 
3 339 320 371 
3 369 338 339 
3 363 334 364 
3 361 21 362 
3 295 21 361 
3 295 443 21 
3 44 305 295 
3 184 440 313 
3 352 353 184 
3 437 436 352 
3 377 378 293 
3 430 373 374 
3 373 371 374 
3 320 372 371 
3 339 322 320 
3 338 322 339 
3 338 337 322 
3 369 368 338 
3 368 337 338 
3 368 367 337 
3 367 336 337 
3 334 335 364 
3 363 333 334 
3 21 294 362 
3 443 294 21 
3 305 445 295 
3 184 353 440 
3 353 316 440 
3 352 355 353 
3 436 355 352 
3 436 356 355 
3 437 385 436 
3 378 379 293 
3 372 374 371 
3 372 431 374 
3 320 429 372 
3 322 321 320 
3 337 336 322 
3 367 366 336 
3 366 365 336 
3 365 335 336 
3 335 365 364 
3 334 333 335 
3 333 336 335 
3 333 428 336 
3 363 332 333 
3 294 332 362 
3 445 42 295 
3 353 354 316 
3 355 354 353 
3 355 316 354 
3 436 357 356 
3 385 358 436 
3 379 380 293 
3 431 375 374 
3 431 376 375 
3 431 378 376 
3 320 319 429 
3 321 319 320 
3 321 252 319 
3 428 322 336 
3 428 370 322 
3 332 294 333 
3 363 362 332 
3 357 358 356 
3 358 357 436 
3 385 359 358 
3 380 382 293 
3 378 377 376 
3 431 292 378 
3 321 461 252 
3 370 429 322 
3 385 360 359 
3 382 383 293 
3 380 383 382 
3 292 434 378 
3 431 289 292 
3 461 460 252 
3 429 321 322 
3 385 383 360 
3 383 384 293 
3 434 379 378 
3 434 380 379 
3 434 318 380 
3 289 433 292 
3 431 288 289 
3 460 458 252 
3 383 318 360 
3 385 384 383 
3 433 293 292 
3 293 434 292 
3 293 384 434 
3 384 381 434 
3 289 288 433 
3 288 284 433 
3 431 430 288 
3 460 457 458 
3 383 381 318 
3 288 287 284 
3 430 287 288 
3 460 459 457 
3 381 380 318 
3 381 383 380 
3 287 285 284 
3 285 283 284 
3 399 92 398 
3 395 398 92 
3 423 92 340 
3 341 451 449 
3 410 66 67 
3 92 423 306 
3 423 409 306 
3 306 66 410 
3 306 90 66 
3 448 115 423 
3 297 285 298 
3 67 389 390 
3 326 325 44 
3 325 305 44 
3 311 137 408 
3 311 453 137 
3 451 342 309 
3 451 341 342 
3 137 448 451 
3 349 313 311 
3 313 453 311 
3 430 426 370 
3 351 303 437 
3 304 303 440 
3 440 356 351 
3 295 442 443 
3 440 316 313 
3 316 455 313 
3 445 444 42 
3 42 442 295 
3 42 20 442 
3 434 231 318 
3 318 359 360 
3 318 358 359 
3 381 317 434 
3 283 433 284 
3 399 340 92 
3 409 90 306 
3 409 89 90 
3 423 115 409 
3 115 308 409 
3 90 447 66 
3 453 136 137 
3 448 449 451 
3 304 300 303 
3 455 312 313 
3 316 315 455 
3 42 444 20 
3 444 441 20 
3 89 447 90 
3 89 446 447 
3 409 88 89 
3 308 307 409 
3 115 136 308 
3 453 310 136 
3 455 315 312 
3 315 314 312 
3 89 88 446 
3 88 65 446 
3 308 450 307 
3 310 450 136 
3 314 454 312 
3 310 452 450 
3 314 205 454 
3 205 456 454 
