ply
format ascii 1.0
comment VCGLIB generated
element vertex 495
property float x
property float y
property float z
element face 902
property list uchar int vertex_indices
end_header
-33.7942 -5.10146 70.1213 
-35.1079 -3.91882 69.9204 
-35.7953 -2.14555 69.4483 
-35.0003 -3.82727 67.8196 
-31.5973 -4.09682 68.966 
-31.3131 -3.95315 68.9439 
-30.9762 -3.74781 68.9901 
-30.6038 -3.52653 68.9795 
-30.2345 -3.37138 69.0269 
-29.9928 -3.33755 69.0033 
-29.6466 -3.35236 68.9526 
-29.3566 -3.43659 68.8519 
-29.2244 -3.58759 68.7286 
-29.0072 -3.71566 68.685 
-28.5631 -3.47491 68.8399 
-28.1746 -3.45179 69.3286 
-28.0581 -3.82992 69.6127 
-28.0022 -4.17569 69.679 
-27.787 -4.20301 69.7135 
-27.5871 -4.25959 69.8253 
-27.4485 -4.53633 69.8741 
-28.9341 -3.18401 64.0241 
-28.9346 -1.77038 64.0825 
-28.5629 1.26958 64.3777 
-31.1327 -2.64312 63.9701 
-29.885 12.7605 63.3377 
-30.8274 12.6168 63.6053 
-31.1471 -4.22569 66.7187 
-31.0794 -3.8311 67.3504 
-31.0237 -3.53007 67.9163 
-30.8104 -3.41076 68.366 
-30.6764 -3.08239 68.9965 
-30.8592 -3.42763 69.2792 
-30.9831 -3.47111 69.7415 
-31.2226 -3.52951 70.2161 
-31.0416 -3.58244 70.626 
-30.7793 -3.56226 71.0903 
-30.4089 -3.52236 71.5679 
-30.0162 -3.90385 71.6585 
-29.8039 12.9134 63.3802 
-29.972 12.2689 63.6592 
-30.0289 11.7439 64.0165 
-30.1052 11.1687 64.3383 
-30.1246 10.4796 64.4595 
-30.1813 9.83836 64.421 
-30.03 9.1883 64.5777 
-30.0486 8.52514 64.3768 
-29.916 7.895 64.4129 
-29.916 7.16748 64.2524 
-29.916 6.49688 64.2524 
-29.9538 5.86364 64.2535 
-29.9349 5.18975 64.213 
-29.9349 4.48234 64.213 
-29.9159 3.83265 63.9337 
-29.9535 3.2025 63.9349 
-29.7653 2.50103 64.0085 
-29.8783 1.94684 64.0915 
-29.8971 1.24309 64.2118 
-29.8404 0.498749 64.2501 
-29.8971 -0.05995 64.1319 
-29.9348 -0.654117 64.0534 
-29.8032 -1.42953 63.8511 
-29.8595 -2.0232 63.8924 
-29.8219 -3.02715 63.9705 
-30.8563 13.1554 63.4798 
-30.9043 12.5961 63.9124 
-30.973 11.9395 64.3076 
-31.1877 11.2677 64.6683 
-31.4027 10.615 64.9432 
-31.5238 9.8466 64.7686 
-31.6074 9.23047 64.7714 
-31.8387 8.45632 64.8238 
-31.9476 7.77347 64.9617 
-31.97 7.03636 65.0073 
-32.0959 6.2942 65.0115 
-32.2185 5.62669 64.9261 
-32.2378 4.88173 64.882 
-32.212 4.17308 64.7474 
-32.2571 3.43828 64.838 
-32.2505 2.69023 64.6598 
-32.1638 1.98984 64.5682 
-32.1029 1.3351 64.6104 
-32.0358 0.67765 64.4755 
-32.1352 -0.099565 64.3467 
-32.0018 -0.831127 64.0796 
-31.993 -1.51624 63.8188 
-32.1036 -2.21236 64.0394 
-31.9691 -2.99858 64.3411 
-31.886 -3.57006 64.3383 
-31.5269 13.6092 63.8767 
-31.8082 12.9303 64.2336 
-32.0709 12.2787 64.7696 
-32.1866 11.6162 65.189 
-32.4571 10.9395 65.3965 
-32.822 10.1801 65.3167 
-33.058 9.43329 65.2122 
-33.4354 8.70179 65.2884 
-33.7826 7.97143 65.3282 
-34.0272 7.25714 65.438 
-34.4054 6.49302 65.4541 
-34.7152 5.81062 65.5167 
-34.8589 5.14551 65.6961 
-35.1102 4.39309 65.6865 
-35.0936 3.69935 65.9243 
-35.1514 2.99261 65.9964 
-35.267 2.28628 66.1407 
-35.3039 1.53948 66.0571 
-35.288 0.869543 66.297 
-35.313 0.159184 66.3934 
-35.3962 -0.552959 66.5629 
-35.4001 -1.26429 66.5024 
-35.3671 -1.97724 66.5265 
-35.1682 -2.73471 66.6717 
-34.571 -4.00041 66.5855 
-31.5839 13.7949 64.2042 
-32.2732 13.0321 64.8999 
-32.5136 12.3447 65.4931 
-32.7993 11.5525 65.9094 
-33.4519 10.7382 66.2071 
-33.917 9.956 66.4371 
-34.112 9.22388 66.7802 
-34.3192 8.49712 67.2281 
-34.9217 7.70958 67.3747 
-35.1941 6.95807 67.3613 
-35.3354 6.27225 67.5284 
-35.5345 5.53721 67.5529 
-35.6496 4.80962 67.5122 
-35.8341 4.0795 67.4334 
-35.9228 3.36059 67.4289 
-35.9608 2.68659 67.4961 
-36.0308 1.93449 67.6998 
-35.9613 1.18274 67.7382 
-36.0246 0.50739 67.7694 
-36.0252 -0.206941 68.0123 
-35.9239 -0.884534 68.1577 
-35.8793 -1.68243 68.1604 
-35.873 -2.36153 68.2307 
-35.6877 -3.08923 68.3124 
-35.0329 -4.17467 68.5668 
-32.312 13.0395 65.7628 
-32.7288 12.0844 66.6737 
-33.133 11.3 67.4743 
-33.4598 10.4868 67.9429 
-33.6521 9.77487 68.1192 
-33.8848 9.01865 68.3048 
-34.0109 8.28594 68.4204 
-34.5695 7.54856 68.6867 
-34.6719 6.77868 68.9178 
-34.7533 6.10578 69.1015 
-34.9151 5.43452 69.2229 
-34.9952 4.72239 69.4853 
-35.1746 4.01095 69.7297 
-35.1746 3.32221 69.7297 
-35.4113 2.6173 70.0254 
-35.2526 1.97875 70.0676 
-35.2518 1.37648 70.2262 
-35.3092 0.688588 70.5947 
-35.4056 -0.03552 70.8906 
-35.4046 -0.670657 71.0463 
-35.5013 -1.34462 71.1841 
-35.3062 -2.02617 71.1414 
-35.1294 -2.66747 71.1417 
-34.9714 -3.30682 71.2632 
-34.1522 -4.38142 71.0471 
-31.6691 14.0104 65.4541 
-32.0054 13.0788 66.4579 
-32.1128 12.1838 67.6089 
-31.8946 11.4783 68.0598 
-32.4101 10.5437 68.4174 
-32.6042 9.76333 68.7365 
-32.5569 9.01526 69.084 
-32.7486 8.26416 69.2191 
-32.7487 7.48533 69.3969 
-32.7963 6.75216 69.5852 
-32.891 5.97085 69.7834 
-32.8671 5.3388 70.0849 
-32.8904 4.56522 70.3951 
-33.2397 3.82523 70.7741 
-33.4225 3.10335 71.1554 
-33.4911 2.44816 71.2124 
-33.3982 1.65751 71.3625 
-33.3046 0.912221 71.6812 
-33.2798 0.262064 72.0541 
-33.3922 -0.429181 72.3679 
-33.5721 -1.11432 72.5682 
-33.3907 -1.85025 72.6161 
-33.1857 -2.58869 72.7011 
-33.0945 -3.28235 72.6839 
-32.6345 -4.28438 72.4302 
-30.8302 14.3315 64.9667 
-30.9678 13.3908 66.3598 
-31.1089 12.4772 67.2706 
-31.2201 11.7313 67.769 
-31.2767 11.0272 68.0375 
-31.3414 10.2682 68.433 
-31.3202 9.5326 68.6819 
-31.1606 8.84231 68.567 
-31.0253 8.15289 68.7925 
-31.3516 7.39022 69.1473 
-31.377 6.66117 69.5235 
-31.2511 5.89749 69.8662 
-31.1584 5.22908 70.131 
-31.3144 4.54232 70.2421 
-31.2648 3.839 70.5919 
-31.3451 3.15712 70.6872 
-31.3218 2.43185 70.8803 
-31.2413 1.82304 71.2952 
-31.2353 1.10456 71.7195 
-31.2631 0.473475 72.1072 
-31.3351 -0.189124 72.612 
-31.3432 -0.846582 72.7258 
-31.279 -1.46299 72.8245 
-31.068 -2.15476 72.8561 
-30.9627 -3.00064 72.8718 
-29.9747 13.841 64.9936 
-29.5811 12.2612 67.5209 
-29.5626 11.6084 67.7879 
-29.5014 10.959 68.0483 
-29.4709 10.2893 68.1777 
-29.321 9.56004 68.3815 
-29.2189 8.87783 68.6325 
-28.8735 8.18406 68.9407 
-28.7607 7.57373 69.057 
-28.704 6.8637 69.3067 
-28.5923 6.21483 69.4216 
-28.5552 5.62245 69.4597 
-28.5274 4.9797 69.5832 
-28.4537 4.3172 70.0349 
-28.4675 3.63851 70.1609 
-28.4539 3.09011 70.4067 
-28.4359 2.36963 70.6094 
-28.5176 1.82681 70.9844 
-28.4591 1.10966 71.5383 
-28.326 0.534549 72.1126 
-28.4239 -0.029702 72.2801 
-28.5788 -0.63362 72.6081 
-28.7013 -1.18809 73.0057 
-28.9934 -1.79646 72.8127 
-29.3433 -3.12142 73.1614 
-29.3686 13.4709 65.4421 
-28.8635 12.5608 67.0632 
-28.7796 11.8012 67.303 
-28.5805 11.186 67.6766 
-28.4273 10.4238 67.9642 
-28.297 9.79968 68.2086 
-28.1892 9.06131 68.4109 
-27.9857 8.44059 68.6326 
-27.8586 7.83115 68.8717 
-27.6257 7.10155 68.9911 
-27.3888 6.42234 69.0408 
-27.3682 5.88615 69.0801 
-27.2594 5.13629 69.2075 
-27.0293 4.49586 69.5667 
-26.9949 3.92075 69.7114 
-26.9205 3.26289 69.9321 
-26.7347 2.64424 70.2073 
-26.7148 2.08044 70.2451 
-26.799 1.39719 70.3983 
-26.7505 0.831119 70.8792 
-26.7024 0.151793 71.3551 
-26.8296 -0.443021 71.7301 
-26.6454 -1.06668 72.4487 
-27.0037 -1.73951 72.6183 
-27.2674 -2.29605 72.739 
-30.0204 13.8368 64.3598 
-29.2156 12.8707 65.6403 
-28.846 12.0213 66.3381 
-28.5243 11.2019 66.6469 
-28.3424 10.4146 66.8591 
-28.025 9.65348 67.0331 
-27.7554 8.86753 67.1748 
-27.5325 8.13341 67.2848 
-27.3552 7.29325 67.3637 
-27.18 6.573 67.527 
-26.9608 5.77741 67.5924 
-26.8301 5.03256 67.6398 
-26.6568 4.36476 67.7168 
-26.4864 3.62297 67.9191 
-26.2333 2.72868 68.2619 
-26.0246 2.03419 68.5727 
-25.9419 1.38602 68.7129 
-25.817 0.626067 68.8397 
-25.7785 -0.055128 69.0743 
-25.6966 -0.696505 69.2129 
-25.3252 -1.44093 69.4638 
-25.3717 -2.11585 69.7628 
-25.3751 -2.86439 69.9667 
-25.4244 -3.57475 70.4283 
-26.1009 -4.59421 70.8142 
-29.4277 12.9994 64.215 
-29.6158 12.3581 64.7594 
-29.6413 11.7637 65.3054 
-29.2898 11.0715 65.3307 
-29.3579 10.3707 65.4785 
-29.2627 9.7665 65.621 
-29.0457 9.01925 65.6133 
-29.0524 8.26488 65.6863 
-28.7526 7.59325 65.6391 
-28.669 6.86762 65.5999 
-28.5811 6.27304 65.8139 
-28.2554 5.49146 65.7292 
-28.232 4.85818 65.7643 
-27.7932 4.19526 65.533 
-27.8513 3.49287 65.6066 
-27.6019 2.9358 65.7403 
-27.4805 2.2281 65.8428 
-27.3076 1.52081 65.9429 
-27.279 0.894672 65.9061 
-27.073 0.230261 65.8977 
-26.8506 -0.508403 65.9951 
-26.81 -1.13097 66.1354 
-26.5379 -1.86344 66.2297 
-26.5811 -2.45123 66.4805 
-26.5838 -3.5497 66.8733 
-29.2691 12.7252 63.9101 
-29.3709 12.1231 64.3334 
-29.4274 11.5311 64.6266 
-29.2786 10.8617 64.8392 
-29.3196 10.1752 65.0902 
-29.2114 9.4513 65.1638 
-29.0272 8.77901 65.0105 
-29.0935 8.15196 65.0766 
-29.0272 7.46205 65.0105 
-28.7727 6.79794 64.9071 
-28.8535 6.09481 65.0179 
-28.9857 5.47273 65.15 
-28.6299 4.68896 65.0046 
-28.6299 3.93386 65.0046 
-28.2568 3.32223 64.9296 
-28.2294 2.6544 65.1128 
-27.9444 1.93383 65.0339 
-27.824 1.30107 65.0617 
-27.7605 0.592144 65.2687 
-27.6331 -0.039898 65.4104 
-27.379 -0.709705 65.4203 
-27.0636 -1.37416 65.3647 
-26.9503 -2.04342 65.5504 
-26.9152 -2.78971 65.5745 
-27.0754 -3.82235 65.6823 
-33.7942 -5.10146 70.1213 
-35.1079 -3.91882 69.9204 
-35.7953 -2.14555 69.4483 
-35.0003 -3.82727 67.8196 
-32.6331 -4.41605 66.6539 
-32.4661 -4.66809 65.9748 
-32.1127 -4.3207 65.816 
-31.8977 -4.24908 65.7406 
-31.5588 -4.08258 65.6592 
-31.3153 -3.99807 65.5745 
-31.1166 -3.96787 65.5519 
-30.765 -3.78059 65.5785 
-30.5708 -3.81019 65.5646 
-30.3811 -3.84813 65.6054 
-30.091 -3.76235 65.5482 
-29.9683 -3.99866 65.3589 
-29.8572 -4.25275 65.298 
-29.443 -3.87155 64.9303 
-29.2689 -4.03531 64.9075 
-29.1091 -4.09593 64.911 
-28.9678 -4.19396 64.9328 
-28.7988 -4.32121 64.9462 
-28.6031 -4.43635 64.9508 
-28.47 -4.54975 64.9634 
-28.2599 -4.59207 64.986 
-28.018 -4.57124 65.0453 
-27.7432 -4.52203 65.4443 
-27.7039 -4.92542 66.3312 
-27.4365 -4.97685 66.6215 
-33.7942 -5.10146 70.1213 
-35.1079 -3.91882 69.9204 
-35.7953 -2.14555 69.4483 
-35.0003 -3.82727 67.8196 
-33.2689 -5.05225 71.7898 
-32.836 -4.70611 72.2566 
-32.3699 -4.52212 72.5061 
-32.0283 -4.4225 72.6357 
-31.4993 -3.95019 72.6315 
-31.0644 -3.87248 72.7134 
-30.6971 -3.73968 72.7361 
-30.2239 -3.3778 72.8459 
-29.7877 -3.23439 72.9456 
-29.4286 -3.34533 73.0635 
-29.0636 -3.24423 72.9485 
-28.7478 -3.36889 72.9907 
-28.3846 -3.35158 73.2055 
-28.0653 -3.43459 73.0826 
-27.8355 -3.7383 72.883 
-27.6933 -4.09137 72.7087 
-27.4043 -4.272 72.3518 
-27.3239 -4.77261 72.1522 
-27.2252 -5.23197 71.794 
-27.1332 -5.69781 71.2655 
-28.9341 -3.18401 64.0241 
-28.9201 -1.7702 64.076 
-28.5098 1.26768 64.3399 
-31.1283 -2.62453 64.0686 
-29.7821 12.7651 63.309 
-30.7124 12.6306 63.6202 
-30.1255 -3.5206 64.317 
-29.6236 -4.30131 64.4153 
-29.1676 -4.75315 64.6243 
-28.9488 -4.93855 64.8613 
-28.734 -5.20742 65.0354 
-28.6027 -5.35942 65.3324 
-28.396 -5.48509 65.6023 
-28.2424 -5.47421 65.8657 
-28.0082 -5.25191 66.2892 
-27.8149 -4.82898 66.7515 
-27.4169 -4.91767 67.0186 
-27.0314 -4.25943 67.5724 
-27.0036 -4.2934 67.9374 
-26.9277 -4.47629 68.1391 
-26.8953 -4.60427 68.3967 
-26.8667 -4.71414 68.7147 
-26.8022 -4.89384 68.9688 
-26.8242 -4.85768 69.272 
-26.828 -4.91061 69.5767 
-26.8065 -5.02236 69.8394 
-26.8718 -4.95613 70.2856 
-27.0469 -4.97716 70.5345 
-27.0955 -5.15617 70.7154 
-27.2155 -5.07214 71.1007 
-27.5278 -5.08906 71.3919 
-28.9341 -3.18401 64.0241 
-28.9201 -1.7702 64.076 
-28.5098 1.26768 64.3399 
-31.1283 -2.62453 64.0686 
-29.7821 12.7651 63.309 
-30.7124 12.6306 63.6202 
-32.6078 -4.30602 65.954 
-32.6868 -4.39708 66.1987 
-32.7045 -4.35665 66.4143 
-32.8093 -4.1581 66.7779 
-33.4053 -4.33794 67.0148 
-33.4023 -4.54582 67.1818 
-33.4376 -4.68662 67.3905 
-33.5076 -4.69705 67.7574 
-33.5621 -4.74432 68.0003 
-33.5305 -4.82356 68.212 
-33.3779 -4.98751 68.4089 
-33.3779 -5.06531 68.6766 
-33.3881 -5.05621 68.9596 
-33.3931 -5.02558 69.2332 
-33.361 -4.99892 69.5245 
-33.3522 -5.07817 69.7553 
-33.4416 -4.97127 70.0823 
-33.3546 -4.97521 70.4009 
-33.2688 -4.88725 70.683 
-33.1901 -4.87028 70.9744 
-32.9932 -4.63338 71.3212 
-32.7472 -4.49805 71.7028 
-32.4877 -4.39638 72.0523 
-32.0862 -3.78651 72.569 
-31.7341 -3.43245 72.9181 
-33.6467 -5.09311 70.1279 
-35.0396 -4.04163 69.9826 
-35.8191 -2.31445 69.5003 
-35.8454 -0.239768 69.5354 
-34.9844 -3.94651 67.8505 
-35.6948 -1.10622 67.335 
-30.9331 -3.85144 65.3386 
-31.5462 -4.28359 66.06 
-31.1224 -4.30324 66.7265 
-31.826 -4.66512 67.675 
-32.6838 -5.10925 68.9182 
-31.9668 -4.63683 68.9083 
-31.241 -3.86503 68.7081 
-32.3259 -4.84749 70.1372 
-31.4614 -4.37692 69.9308 
-31.9717 -4.42865 70.8791 
-31.3733 -4.02839 71.4307 
-30.5736 -3.62044 71.9943 
-33.6467 -5.09311 70.1279 
-35.0396 -4.04163 69.9826 
-35.8191 -2.31445 69.5003 
-35.8454 -0.239768 69.5354 
-34.9844 -3.94651 67.8505 
-35.6948 -1.10622 67.335 
-28.6531 -4.71194 65.2722 
-29.5221 -4.40575 66.5112 
-29.5503 -4.36932 67.2905 
-28.7739 -4.03878 67.1456 
-27.9139 -4.69312 66.0395 
-26.8702 -3.49864 67.0624 
-27.7034 -4.02218 68.3402 
-27.0688 -4.1261 68.3853 
-27.6879 -3.91376 69.2025 
-28.2687 -4.26712 69.9053 
-27.2255 -4.46168 69.9846 
-29.1194 -3.67087 69.0979 
-27.9501 -3.55885 71.7044 
-28.8709 -3.87234 71.3298 
-29.5062 -3.84379 70.6131 
-29.7793 -3.76779 69.832 
-28.7202 -3.01139 72.5798 
3 0 446 447 
3 447 448 0 
3 446 467 447 
3 0 444 446 
3 448 163 0 
3 447 467 448 
3 467 469 448 
3 446 444 467 
3 444 464 467 
3 0 442 444 
3 163 455 0 
3 448 372 163 
3 469 449 448 
3 467 468 469 
3 464 465 467 
3 444 442 464 
3 442 441 464 
3 0 138 442 
3 455 138 0 
3 455 137 138 
3 163 162 455 
3 448 449 372 
3 449 450 372 
3 469 450 449 
3 469 451 450 
3 468 470 469 
3 467 465 468 
3 465 5 468 
3 464 463 465 
3 441 440 464 
3 442 138 441 
3 138 440 441 
3 138 438 440 
3 137 458 138 
3 455 474 137 
3 162 161 455 
3 450 373 372 
3 451 373 450 
3 451 374 373 
3 469 470 451 
3 470 375 451 
3 468 35 470 
3 5 6 468 
3 465 466 5 
3 463 466 465 
3 463 28 466 
3 464 439 463 
3 440 439 464 
3 440 438 439 
3 438 437 439 
3 138 437 438 
3 138 458 437 
3 458 436 437 
3 137 112 458 
3 474 136 137 
3 455 161 474 
3 161 160 474 
3 451 375 374 
3 470 376 375 
3 35 36 470 
3 468 493 35 
3 6 493 468 
3 6 7 493 
3 5 466 6 
3 466 7 6 
3 466 30 7 
3 28 29 466 
3 463 462 28 
3 439 435 463 
3 437 436 439 
3 436 435 439 
3 436 458 435 
3 458 113 435 
3 112 113 458 
3 137 136 112 
3 136 111 112 
3 474 135 136 
3 160 159 474 
3 376 377 375 
3 470 377 376 
3 470 471 377 
3 36 38 470 
3 35 492 36 
3 493 492 35 
3 493 487 492 
3 7 8 493 
3 30 12 7 
3 466 29 30 
3 29 480 30 
3 28 480 29 
3 28 462 480 
3 462 479 480 
3 463 344 462 
3 435 343 463 
3 113 434 435 
3 136 135 111 
3 135 459 111 
3 474 134 135 
3 471 38 377 
3 38 471 470 
3 36 492 38 
3 492 491 38 
3 487 491 492 
3 487 422 491 
3 493 489 487 
3 8 9 493 
3 7 9 8 
3 7 12 9 
3 12 489 9 
3 30 480 12 
3 480 13 12 
3 479 406 480 
3 462 352 479 
3 344 461 462 
3 463 343 344 
3 343 434 344 
3 434 343 435 
3 113 433 434 
3 459 110 111 
3 135 134 459 
3 134 133 459 
3 474 475 134 
3 38 378 377 
3 491 382 38 
3 422 389 491 
3 487 420 422 
3 489 13 487 
3 493 9 489 
3 13 489 12 
3 480 481 13 
3 406 407 480 
3 479 405 406 
3 352 355 479 
3 462 349 352 
3 461 349 462 
3 461 347 349 
3 344 346 461 
3 433 430 434 
3 113 430 433 
3 459 109 110 
3 133 109 459 
3 133 132 109 
3 134 475 133 
3 475 132 133 
3 378 213 377 
3 38 379 378 
3 382 381 38 
3 491 383 382 
3 389 388 491 
3 422 390 389 
3 420 391 422 
3 487 20 420 
3 13 17 487 
3 481 484 13 
3 480 407 481 
3 407 484 481 
3 407 408 484 
3 406 408 407 
3 406 367 408 
3 405 366 406 
3 479 404 405 
3 355 403 479 
3 352 349 355 
3 347 460 349 
3 461 346 347 
3 346 88 347 
3 344 345 346 
3 430 344 434 
3 430 429 344 
3 132 108 109 
3 213 453 377 
3 378 379 213 
3 379 380 213 
3 38 381 379 
3 381 380 379 
3 381 238 380 
3 382 383 381 
3 383 384 381 
3 491 387 383 
3 388 387 491 
3 388 389 387 
3 422 391 390 
3 420 288 391 
3 20 417 420 
3 487 17 20 
3 17 414 20 
3 13 484 17 
3 484 413 17 
3 408 411 484 
3 367 313 408 
3 406 366 367 
3 366 365 367 
3 405 365 366 
3 405 404 365 
3 404 364 365 
3 479 403 404 
3 403 364 404 
3 403 402 364 
3 355 401 403 
3 460 355 349 
3 460 399 355 
3 347 88 460 
3 88 398 460 
3 346 345 88 
3 345 429 88 
3 429 345 344 
3 430 432 429 
3 132 107 108 
3 453 375 377 
3 453 452 375 
3 213 212 453 
3 380 212 213 
3 380 237 212 
3 238 237 380 
3 238 384 237 
3 384 238 381 
3 383 386 384 
3 387 386 383 
3 288 390 391 
3 288 389 390 
3 420 418 288 
3 20 416 417 
3 414 415 20 
3 17 413 414 
3 413 412 414 
3 484 412 413 
3 484 411 412 
3 411 408 412 
3 313 409 408 
3 367 338 313 
3 365 338 367 
3 365 364 338 
3 402 363 364 
3 401 402 403 
3 355 400 401 
3 399 400 355 
3 399 392 400 
3 460 398 399 
3 398 63 399 
3 88 24 398 
3 430 113 432 
3 132 131 107 
3 452 188 375 
3 453 187 452 
3 212 186 453 
3 384 263 237 
3 386 385 384 
3 418 417 288 
3 416 288 417 
3 416 287 288 
3 20 415 416 
3 415 414 416 
3 409 412 408 
3 409 410 412 
3 313 410 409 
3 338 337 313 
3 363 392 364 
3 402 401 363 
3 401 400 363 
3 400 361 363 
3 392 361 400 
3 392 363 361 
3 399 63 392 
3 63 62 392 
3 398 24 63 
3 24 62 63 
3 24 61 62 
3 88 87 24 
3 131 106 107 
3 188 374 375 
3 188 373 374 
3 188 187 373 
3 187 188 452 
3 453 186 187 
3 263 236 237 
3 384 385 263 
3 385 386 263 
3 386 490 263 
3 418 420 417 
3 410 485 412 
3 337 312 313 
3 62 424 392 
3 61 424 62 
3 61 60 424 
3 24 85 61 
3 87 86 24 
3 131 130 106 
3 263 262 236 
3 386 387 490 
3 387 389 490 
3 389 421 490 
3 485 414 412 
3 485 416 414 
3 485 488 416 
3 410 483 485 
3 312 483 313 
3 337 311 312 
3 24 86 85 
3 130 105 106 
3 262 235 236 
3 421 488 490 
3 488 287 416 
3 485 486 488 
3 410 313 483 
3 337 336 311 
3 130 129 105 
3 262 261 235 
3 488 19 490 
3 421 419 488 
3 486 19 488 
3 486 16 19 
3 485 14 486 
3 336 335 311 
3 129 104 105 
3 261 234 235 
3 19 16 490 
3 419 288 488 
3 486 15 16 
3 14 15 486 
3 14 11 15 
3 335 310 311 
3 129 128 104 
3 261 260 234 
3 288 287 488 
3 419 421 288 
3 421 389 288 
3 15 11 16 
3 335 309 310 
3 128 103 104 
3 260 233 234 
3 335 334 309 
3 128 127 103 
3 260 259 233 
3 334 308 309 
3 127 102 103 
3 259 258 233 
3 334 333 308 
3 127 126 102 
3 258 232 233 
3 333 332 308 
3 126 101 102 
3 258 231 232 
3 332 307 308 
3 126 125 101 
3 258 257 231 
3 332 331 307 
3 125 124 101 
3 126 149 125 
3 257 256 231 
3 331 306 307 
3 332 394 331 
3 124 100 101 
3 149 148 125 
3 126 150 149 
3 256 230 231 
3 257 280 256 
3 331 330 306 
3 394 330 331 
3 394 329 330 
3 148 124 125 
3 148 147 124 
3 256 255 230 
3 280 279 256 
3 257 281 280 
3 330 305 306 
3 329 304 330 
3 394 55 329 
3 147 123 124 
3 148 173 147 
3 255 229 230 
3 256 279 255 
3 279 278 255 
3 330 304 305 
3 329 328 304 
3 55 328 329 
3 55 54 328 
3 394 56 55 
3 147 146 123 
3 173 172 147 
3 148 174 173 
3 255 254 229 
3 278 254 255 
3 278 253 254 
3 328 303 304 
3 54 53 328 
3 394 57 56 
3 146 122 123 
3 147 172 146 
3 172 145 146 
3 173 199 172 
3 174 200 173 
3 148 149 174 
3 254 228 229 
3 253 228 254 
3 253 227 228 
3 278 277 253 
3 328 302 303 
3 53 327 328 
3 394 58 57 
3 146 145 122 
3 145 121 122 
3 172 171 145 
3 199 198 172 
3 173 200 199 
3 174 175 200 
3 253 252 227 
3 277 252 253 
3 277 276 252 
3 328 327 302 
3 327 326 302 
3 53 52 327 
3 145 144 121 
3 171 144 145 
3 171 170 144 
3 172 198 171 
3 198 197 171 
3 175 201 200 
3 252 226 227 
3 276 251 252 
3 326 301 302 
3 327 52 326 
3 52 51 326 
3 144 120 121 
3 170 169 144 
3 171 197 170 
3 197 196 170 
3 175 202 201 
3 252 251 226 
3 251 225 226 
3 276 275 251 
3 326 300 301 
3 51 325 326 
3 120 97 121 
3 144 143 120 
3 169 143 144 
3 169 142 143 
3 170 195 169 
3 196 195 170 
3 196 219 195 
3 197 220 196 
3 175 176 202 
3 251 250 225 
3 275 250 251 
3 275 274 250 
3 326 324 300 
3 325 324 326 
3 325 51 324 
3 51 50 324 
3 97 98 121 
3 120 96 97 
3 143 119 120 
3 142 119 143 
3 142 118 119 
3 169 168 142 
3 195 194 169 
3 219 218 195 
3 196 220 219 
3 220 245 219 
3 197 221 220 
3 176 203 202 
3 250 224 225 
3 274 249 250 
3 324 299 300 
3 50 49 324 
3 96 72 97 
3 120 119 96 
3 119 95 96 
3 118 94 119 
3 142 141 118 
3 168 141 142 
3 168 167 141 
3 169 194 168 
3 194 167 168 
3 194 193 167 
3 195 218 194 
3 218 217 194 
3 219 244 218 
3 245 244 219 
3 245 270 244 
3 220 221 245 
3 221 246 245 
3 176 177 203 
3 250 249 224 
3 249 248 224 
3 274 273 249 
3 324 323 299 
3 49 323 324 
3 49 48 323 
3 72 73 97 
3 96 71 72 
3 95 71 96 
3 95 70 71 
3 119 94 95 
3 94 69 95 
3 118 93 94 
3 141 140 118 
3 167 166 141 
3 193 192 167 
3 194 217 193 
3 217 216 193 
3 218 243 217 
3 244 243 218 
3 244 269 243 
3 270 269 244 
3 270 295 269 
3 245 246 270 
3 246 271 270 
3 221 247 246 
3 177 204 203 
3 248 223 224 
3 249 273 248 
3 273 272 248 
3 323 298 299 
3 48 322 323 
3 73 98 97 
3 73 74 98 
3 71 47 72 
3 70 46 71 
3 95 69 70 
3 69 44 70 
3 94 68 69 
3 93 68 94 
3 93 92 68 
3 118 117 93 
3 140 117 118 
3 140 116 117 
3 141 166 140 
3 166 165 140 
3 167 192 166 
3 192 191 166 
3 193 216 192 
3 216 215 192 
3 217 242 216 
3 243 242 217 
3 243 268 242 
3 269 268 243 
3 269 294 268 
3 295 294 269 
3 295 319 294 
3 270 296 295 
3 246 247 271 
3 247 272 271 
3 221 222 247 
3 177 178 204 
3 248 247 223 
3 323 297 298 
3 322 297 323 
3 322 321 297 
3 48 47 322 
3 71 46 47 
3 46 320 47 
3 70 45 46 
3 44 45 70 
3 44 319 45 
3 69 43 44 
3 68 43 69 
3 68 67 43 
3 92 67 68 
3 92 91 67 
3 93 117 92 
3 117 116 92 
3 116 91 92 
3 116 115 91 
3 140 139 116 
3 165 139 140 
3 165 164 139 
3 166 191 165 
3 191 190 165 
3 192 215 191 
3 215 190 191 
3 216 241 215 
3 242 241 216 
3 242 267 241 
3 268 267 242 
3 268 293 267 
3 294 293 268 
3 294 318 293 
3 319 318 294 
3 319 44 318 
3 44 43 318 
3 43 317 318 
3 295 320 319 
3 270 271 296 
3 271 297 296 
3 247 248 272 
3 222 223 247 
3 178 205 204 
3 321 296 297 
3 47 321 322 
3 320 321 47 
3 320 296 321 
3 320 295 296 
3 46 45 320 
3 45 319 320 
3 67 42 43 
3 91 66 67 
3 115 90 91 
3 116 139 115 
3 139 164 115 
3 164 114 115 
3 165 190 164 
3 190 189 164 
3 241 240 215 
3 267 266 241 
3 293 292 267 
3 318 317 293 
3 317 292 293 
3 317 316 292 
3 43 42 317 
3 42 316 317 
3 42 41 316 
3 67 66 42 
3 66 41 42 
3 66 26 41 
3 91 90 66 
3 90 65 66 
3 115 114 90 
3 114 89 90 
3 164 189 114 
3 189 264 114 
3 190 214 189 
3 240 265 215 
3 241 266 240 
3 266 265 240 
3 266 291 265 
3 267 292 266 
3 292 291 266 
3 292 316 291 
3 316 315 291 
3 41 315 316 
3 41 40 315 
3 26 40 41 
3 26 25 40 
3 66 65 26 
3 65 90 26 
3 90 64 26 
3 89 64 90 
3 89 264 64 
3 264 89 114 
3 189 214 264 
3 214 239 264 
3 190 239 214 
3 190 265 239 
3 291 315 265 
3 315 289 265 
3 40 314 315 
3 25 314 40 
3 25 289 314 
3 26 64 25 
3 64 264 25 
3 289 239 265 
3 289 264 239 
3 289 25 264 
3 315 314 289 
3 372 187 163 
3 162 186 161 
3 161 185 160 
3 160 184 159 
3 159 475 474 
3 159 158 475 
3 475 131 132 
3 475 155 131 
3 429 87 88 
3 432 350 429 
3 237 211 212 
3 364 392 338 
3 392 337 338 
3 392 424 337 
3 424 336 337 
3 424 335 336 
3 424 334 335 
3 424 333 334 
3 424 59 333 
3 212 211 186 
3 211 185 186 
3 187 372 373 
3 186 162 187 
3 162 163 187 
3 236 211 237 
3 236 210 211 
3 61 85 60 
3 85 84 60 
3 60 59 424 
3 60 84 59 
3 84 83 59 
3 131 154 130 
3 483 14 485 
3 311 310 312 
3 86 84 85 
3 235 209 236 
3 130 153 129 
3 234 209 235 
3 234 208 209 
3 129 152 128 
3 233 208 234 
3 233 232 208 
3 232 207 208 
3 128 151 127 
3 260 284 259 
3 259 282 258 
3 127 150 126 
3 127 151 150 
3 151 177 150 
3 333 394 332 
3 333 59 394 
3 59 58 394 
3 59 82 58 
3 231 206 232 
3 258 281 257 
3 258 282 281 
3 124 123 100 
3 123 99 100 
3 100 76 101 
3 150 175 149 
3 230 205 231 
3 305 278 306 
3 304 277 305 
3 55 80 54 
3 56 80 55 
3 56 81 80 
3 303 302 304 
3 302 276 304 
3 54 78 53 
3 57 81 56 
3 57 82 81 
3 122 98 123 
3 149 176 174 
3 228 203 229 
3 278 305 277 
3 199 223 198 
3 277 304 276 
3 53 77 52 
3 198 222 197 
3 201 225 200 
3 226 201 227 
3 301 275 302 
3 52 76 51 
3 202 227 201 
3 225 201 226 
3 276 302 275 
3 300 275 301 
3 300 274 275 
3 300 273 274 
3 300 299 273 
3 299 272 273 
3 299 298 272 
3 298 297 272 
3 297 271 272 
3 175 150 176 
3 51 75 50 
3 203 227 202 
3 203 228 227 
3 224 200 225 
3 50 74 49 
3 176 150 177 
3 49 73 48 
3 72 48 73 
3 72 47 48 
3 204 229 203 
3 223 200 224 
3 223 199 200 
3 73 49 74 
3 74 99 98 
3 221 197 222 
3 177 151 178 
3 151 152 178 
3 215 265 190 
3 222 198 223 
3 178 179 205 
3 185 184 160 
3 185 211 184 
3 211 210 184 
3 210 183 184 
3 161 186 185 
3 184 158 159 
3 184 183 158 
3 183 157 158 
3 158 157 475 
3 157 156 475 
3 155 154 131 
3 155 179 154 
3 475 156 155 
3 156 180 155 
3 350 87 429 
3 350 353 87 
3 236 209 210 
3 209 183 210 
3 209 182 183 
3 154 153 130 
3 208 182 209 
3 208 181 182 
3 152 151 128 
3 129 153 152 
3 153 178 152 
3 207 181 208 
3 207 180 181 
3 232 206 207 
3 284 283 259 
3 260 285 284 
3 259 283 282 
3 82 57 58 
3 59 83 82 
3 99 75 100 
3 205 206 231 
3 80 79 54 
3 78 77 53 
3 54 79 78 
3 122 121 98 
3 52 77 76 
3 75 74 50 
3 99 123 98 
3 179 206 205 
3 178 153 179 
3 153 154 179 
3 183 182 157 
3 182 181 157 
3 181 156 157 
3 180 179 155 
3 180 206 179 
3 180 207 206 
3 156 181 180 
3 353 356 87 
3 99 74 75 
3 353 358 356 
3 353 482 358 
3 482 478 358 
3 112 432 113 
3 107 83 108 
3 106 82 107 
3 490 286 263 
3 263 286 262 
3 286 261 262 
3 286 285 261 
3 312 283 483 
3 105 80 106 
3 104 79 105 
3 16 37 490 
3 14 353 11 
3 11 32 16 
3 309 282 310 
3 308 281 309 
3 102 78 103 
3 101 77 102 
3 307 280 308 
3 280 306 279 
3 281 308 280 
3 229 205 230 
3 229 204 205 
3 432 31 350 
3 282 309 281 
3 100 75 76 
3 75 51 76 
3 278 279 306 
3 81 106 80 
3 82 106 81 
3 350 31 353 
3 31 11 353 
3 31 37 11 
3 260 261 285 
3 285 312 284 
3 283 310 282 
3 83 107 82 
3 80 105 79 
3 78 102 77 
3 79 103 78 
3 79 104 103 
3 77 101 76 
3 353 14 482 
3 286 483 285 
3 312 310 283 
3 37 494 490 
3 307 306 280 
3 432 32 31 
3 31 33 37 
3 286 16 483 
3 32 33 31 
3 33 34 37 
3 16 14 483 
3 111 86 112 
3 109 108 110 
3 108 83 110 
3 83 84 110 
3 87 112 86 
3 87 432 112 
3 87 356 432 
3 356 478 432 
3 86 432 84 
3 11 356 32 
3 14 285 482 
3 432 34 32 
3 111 110 86 
3 478 11 432 
3 356 358 478 
3 11 312 356 
3 34 33 32 
3 478 482 11 
3 16 32 37 
3 494 283 490 
3 14 490 285 
3 149 110 176 
3 11 34 432 
3 110 34 176 
