ply
format ascii 1.0
element vertex 39
property float x
property float y
property float z
element face 0
property list uchar int vertext index
end_header
-28.934111 -3.184012 64.024117
-28.934612 -1.770379 64.082478
-28.562891 1.269582 64.377742
-31.132715 -2.643115 63.970098
-29.884950 12.760518 63.337747
-30.827425 12.616841 63.605278
-31.147060 -4.225688 66.718695
-31.079422 -3.831103 67.350359
-31.023666 -3.530071 67.916293
-30.810416 -3.410763 68.366028
-30.676409 -3.082391 68.996499
-30.859179 -3.427634 69.279192
-30.983112 -3.471110 69.741536
-31.222569 -3.529513 70.216080
-31.041581 -3.582444 70.626018
-30.779267 -3.562260 71.090298
-30.408878 -3.522357 71.567871
-30.016172 -3.903851 71.658550
-33.794159 -5.101461 70.121307
-35.107911 -3.918820 69.920355
-35.795290 -2.145550 69.448310
-35.000286 -3.827265 67.819652
-31.597324 -4.096819 68.966017
-31.313129 -3.953146 68.943936
-30.976171 -3.747811 68.990115
-30.603776 -3.526525 68.979543
-30.234457 -3.371380 69.026864
-29.992838 -3.337549 69.003253
-29.646617 -3.352358 68.952631
-29.356628 -3.436589 68.851927
-29.224419 -3.587590 68.728594
-29.007176 -3.715655 68.684973
-28.563068 -3.474906 68.839849
-28.174584 -3.451790 69.328621
-28.058150 -3.829923 69.612708
-28.002170 -4.175694 69.678952
-27.786977 -4.203013 69.713496
-27.587097 -4.259590 69.825303
-27.448452 -4.536330 69.874127
