ply
format ascii 1.0
comment VCGLIB generated
element vertex 300
property float x
property float y
property float z
property uchar red
property uchar green
property uchar blue
property uchar alpha
element face 594
property list uchar int vertex_indices
end_header
-29.8039 12.9134 63.3802 255 255 255 255 
-29.972 12.2689 63.6592 255 255 255 255 
-30.0289 11.7439 64.0165 255 255 255 255 
-30.1052 11.1687 64.3383 255 255 255 255 
-30.1246 10.4796 64.4595 255 255 255 255 
-30.1813 9.83836 64.421 255 255 255 255 
-30.03 9.1883 64.5777 255 255 255 255 
-30.0486 8.52514 64.3768 255 255 255 255 
-29.916 7.895 64.4129 255 255 255 255 
-29.916 7.16748 64.2524 255 255 255 255 
-29.916 6.49688 64.2524 255 255 255 255 
-29.9538 5.86364 64.2535 255 255 255 255 
-29.9349 5.18975 64.213 255 255 255 255 
-29.9349 4.48234 64.213 255 255 255 255 
-29.9159 3.83265 63.9337 255 255 255 255 
-29.9535 3.2025 63.9349 255 255 255 255 
-29.7653 2.50103 64.0085 255 255 255 255 
-29.8783 1.94684 64.0915 255 255 255 255 
-29.8971 1.24309 64.2118 255 255 255 255 
-29.8404 0.498749 64.2501 255 255 255 255 
-29.8971 -0.05995 64.1319 255 255 255 255 
-29.9348 -0.654117 64.0534 255 255 255 255 
-29.8032 -1.42953 63.8511 255 255 255 255 
-29.8595 -2.0232 63.8924 255 255 255 255 
-29.8219 -3.02715 63.9705 255 255 255 255 
-30.8563 13.1554 63.4798 255 255 255 255 
-30.9043 12.5961 63.9124 255 255 255 255 
-30.973 11.9395 64.3076 255 255 255 255 
-31.1877 11.2677 64.6683 255 255 255 255 
-31.4027 10.615 64.9432 255 255 255 255 
-31.5238 9.8466 64.7686 255 255 255 255 
-31.6074 9.23047 64.7714 255 255 255 255 
-31.8387 8.45632 64.8238 255 255 255 255 
-31.9476 7.77347 64.9617 255 255 255 255 
-31.97 7.03636 65.0073 255 255 255 255 
-32.0959 6.2942 65.0115 255 255 255 255 
-32.2185 5.62669 64.9261 255 255 255 255 
-32.2378 4.88173 64.882 255 255 255 255 
-32.212 4.17308 64.7474 255 255 255 255 
-32.2571 3.43828 64.838 255 255 255 255 
-32.2505 2.69023 64.6598 255 255 255 255 
-32.1638 1.98984 64.5682 255 255 255 255 
-32.1029 1.3351 64.6104 255 255 255 255 
-32.0358 0.67765 64.4755 255 255 255 255 
-32.1352 -0.099565 64.3467 255 255 255 255 
-32.0018 -0.831127 64.0796 255 255 255 255 
-31.993 -1.51624 63.8188 255 255 255 255 
-32.1036 -2.21236 64.0394 255 255 255 255 
-31.9691 -2.99858 64.3411 255 255 255 255 
-31.886 -3.57006 64.3383 255 255 255 255 
-31.5269 13.6092 63.8767 255 255 255 255 
-31.8082 12.9303 64.2336 255 255 255 255 
-32.0709 12.2787 64.7696 255 255 255 255 
-32.1866 11.6162 65.189 255 255 255 255 
-32.4571 10.9395 65.3965 255 255 255 255 
-32.822 10.1801 65.3167 255 255 255 255 
-33.058 9.43329 65.2122 255 255 255 255 
-33.4354 8.70179 65.2884 255 255 255 255 
-33.7826 7.97143 65.3282 255 255 255 255 
-34.0272 7.25714 65.438 255 255 255 255 
-34.4054 6.49302 65.4541 255 255 255 255 
-34.7152 5.81062 65.5167 255 255 255 255 
-34.8589 5.14551 65.6961 255 255 255 255 
-35.1102 4.39309 65.6865 255 255 255 255 
-35.0936 3.69935 65.9243 255 255 255 255 
-35.1514 2.99261 65.9964 255 255 255 255 
-35.267 2.28628 66.1407 255 255 255 255 
-35.3039 1.53948 66.0571 255 255 255 255 
-35.288 0.869543 66.297 255 255 255 255 
-35.313 0.159184 66.3934 255 255 255 255 
-35.3962 -0.552959 66.5629 255 255 255 255 
-35.4001 -1.26429 66.5024 255 255 255 255 
-35.3671 -1.97724 66.5265 255 255 255 255 
-35.1682 -2.73471 66.6717 255 255 255 255 
-34.571 -4.00041 66.5855 255 255 255 255 
-31.5839 13.7949 64.2042 255 255 255 255 
-32.2732 13.0321 64.8999 255 255 255 255 
-32.5136 12.3447 65.4931 255 255 255 255 
-32.7993 11.5525 65.9094 255 255 255 255 
-33.4519 10.7382 66.2071 255 255 255 255 
-33.917 9.956 66.4371 255 255 255 255 
-34.112 9.22388 66.7802 255 255 255 255 
-34.3192 8.49712 67.2281 255 255 255 255 
-34.9217 7.70958 67.3747 255 255 255 255 
-35.1941 6.95807 67.3613 255 255 255 255 
-35.3354 6.27225 67.5284 255 255 255 255 
-35.5345 5.53721 67.5529 255 255 255 255 
-35.6496 4.80962 67.5122 255 255 255 255 
-35.8341 4.0795 67.4334 255 255 255 255 
-35.9228 3.36059 67.4289 255 255 255 255 
-35.9608 2.68659 67.4961 255 255 255 255 
-36.0308 1.93449 67.6998 255 255 255 255 
-35.9613 1.18274 67.7382 255 255 255 255 
-36.0246 0.50739 67.7694 255 255 255 255 
-36.0252 -0.206941 68.0123 255 255 255 255 
-35.9239 -0.884534 68.1577 255 255 255 255 
-35.8793 -1.68243 68.1604 255 255 255 255 
-35.873 -2.36153 68.2307 255 255 255 255 
-35.6877 -3.08923 68.3124 255 255 255 255 
-35.0329 -4.17467 68.5668 255 255 255 255 
-32.312 13.0395 65.7628 255 255 255 255 
-32.7288 12.0844 66.6737 255 255 255 255 
-33.133 11.3 67.4743 255 255 255 255 
-33.4598 10.4868 67.9429 255 255 255 255 
-33.6521 9.77487 68.1192 255 255 255 255 
-33.8848 9.01865 68.3048 255 255 255 255 
-34.0109 8.28594 68.4204 255 255 255 255 
-34.5695 7.54856 68.6867 255 255 255 255 
-34.6719 6.77868 68.9178 255 255 255 255 
-34.7533 6.10578 69.1015 255 255 255 255 
-34.9151 5.43452 69.2229 255 255 255 255 
-34.9952 4.72239 69.4853 255 255 255 255 
-35.1746 4.01095 69.7297 255 255 255 255 
-35.1746 3.32221 69.7297 255 255 255 255 
-35.4113 2.6173 70.0254 255 255 255 255 
-35.2526 1.97875 70.0676 255 255 255 255 
-35.2518 1.37648 70.2262 255 255 255 255 
-35.3092 0.688588 70.5947 255 255 255 255 
-35.4056 -0.03552 70.8906 255 255 255 255 
-35.4046 -0.670657 71.0463 255 255 255 255 
-35.5013 -1.34462 71.1841 255 255 255 255 
-35.3062 -2.02617 71.1414 255 255 255 255 
-35.1294 -2.66747 71.1417 255 255 255 255 
-34.9714 -3.30682 71.2632 255 255 255 255 
-34.1522 -4.38142 71.0471 255 255 255 255 
-31.6691 14.0104 65.4541 255 255 255 255 
-32.0054 13.0788 66.4579 255 255 255 255 
-32.1128 12.1838 67.6089 255 255 255 255 
-31.8946 11.4783 68.0598 255 255 255 255 
-32.4101 10.5437 68.4174 255 255 255 255 
-32.6042 9.76333 68.7365 255 255 255 255 
-32.5569 9.01526 69.084 255 255 255 255 
-32.7486 8.26416 69.2191 255 255 255 255 
-32.7487 7.48533 69.3969 255 255 255 255 
-32.7963 6.75216 69.5852 255 255 255 255 
-32.891 5.97085 69.7834 255 255 255 255 
-32.8671 5.3388 70.0849 255 255 255 255 
-32.8904 4.56522 70.3951 255 255 255 255 
-33.2397 3.82523 70.7741 255 255 255 255 
-33.4225 3.10335 71.1554 255 255 255 255 
-33.4911 2.44816 71.2124 255 255 255 255 
-33.3982 1.65751 71.3625 255 255 255 255 
-33.3046 0.912221 71.6812 255 255 255 255 
-33.2798 0.262064 72.0541 255 255 255 255 
-33.3922 -0.429181 72.3679 255 255 255 255 
-33.5721 -1.11432 72.5682 255 255 255 255 
-33.3907 -1.85025 72.6161 255 255 255 255 
-33.1857 -2.58869 72.7011 255 255 255 255 
-33.0945 -3.28235 72.6839 255 255 255 255 
-32.6345 -4.28438 72.4302 255 255 255 255 
-30.8302 14.3315 64.9667 255 255 255 255 
-30.9678 13.3908 66.3598 255 255 255 255 
-31.1089 12.4772 67.2706 255 255 255 255 
-31.2201 11.7313 67.769 255 255 255 255 
-31.2767 11.0272 68.0375 255 255 255 255 
-31.3414 10.2682 68.433 255 255 255 255 
-31.3202 9.5326 68.6819 255 255 255 255 
-31.1606 8.84231 68.567 255 255 255 255 
-31.0253 8.15289 68.7925 255 255 255 255 
-31.3516 7.39022 69.1473 255 255 255 255 
-31.377 6.66117 69.5235 255 255 255 255 
-31.2511 5.89749 69.8662 255 255 255 255 
-31.1584 5.22908 70.131 255 255 255 255 
-31.3144 4.54232 70.2421 255 255 255 255 
-31.2648 3.839 70.5919 255 255 255 255 
-31.3451 3.15712 70.6872 255 255 255 255 
-31.3218 2.43185 70.8803 255 255 255 255 
-31.2413 1.82304 71.2952 255 255 255 255 
-31.2353 1.10456 71.7195 255 255 255 255 
-31.2631 0.473475 72.1072 255 255 255 255 
-31.3351 -0.189124 72.612 255 255 255 255 
-31.3432 -0.846582 72.7258 255 255 255 255 
-31.279 -1.46299 72.8245 255 255 255 255 
-31.068 -2.15476 72.8561 255 255 255 255 
-30.9627 -3.00064 72.8718 255 255 255 255 
-29.9747 13.841 64.9936 255 255 255 255 
-29.5811 12.2612 67.5209 255 255 255 255 
-29.5626 11.6084 67.7879 255 255 255 255 
-29.5014 10.959 68.0483 255 255 255 255 
-29.4709 10.2893 68.1777 255 255 255 255 
-29.321 9.56004 68.3815 255 255 255 255 
-29.2189 8.87783 68.6325 255 255 255 255 
-28.8735 8.18406 68.9407 255 255 255 255 
-28.7607 7.57373 69.057 255 255 255 255 
-28.704 6.8637 69.3067 255 255 255 255 
-28.5923 6.21483 69.4216 255 255 255 255 
-28.5552 5.62245 69.4597 255 255 255 255 
-28.5274 4.9797 69.5832 255 255 255 255 
-28.4537 4.3172 70.0349 255 255 255 255 
-28.4675 3.63851 70.1609 255 255 255 255 
-28.4539 3.09011 70.4067 255 255 255 255 
-28.4359 2.36963 70.6094 255 255 255 255 
-28.5176 1.82681 70.9844 255 255 255 255 
-28.4591 1.10966 71.5383 255 255 255 255 
-28.326 0.534549 72.1126 255 255 255 255 
-28.4239 -0.029702 72.2801 255 255 255 255 
-28.5788 -0.63362 72.6081 255 255 255 255 
-28.7013 -1.18809 73.0057 255 255 255 255 
-28.9934 -1.79646 72.8127 255 255 255 255 
-29.3433 -3.12142 73.1614 255 255 255 255 
-29.3686 13.4709 65.4421 255 255 255 255 
-28.8635 12.5608 67.0632 255 255 255 255 
-28.7796 11.8012 67.303 255 255 255 255 
-28.5805 11.186 67.6766 255 255 255 255 
-28.4273 10.4238 67.9642 255 255 255 255 
-28.297 9.79968 68.2086 255 255 255 255 
-28.1892 9.06131 68.4109 255 255 255 255 
-27.9857 8.44059 68.6326 255 255 255 255 
-27.8586 7.83115 68.8717 255 255 255 255 
-27.6257 7.10155 68.9911 255 255 255 255 
-27.3888 6.42234 69.0408 255 255 255 255 
-27.3682 5.88615 69.0801 255 255 255 255 
-27.2594 5.13629 69.2075 255 255 255 255 
-27.0293 4.49586 69.5667 255 255 255 255 
-26.9949 3.92075 69.7114 255 255 255 255 
-26.9205 3.26289 69.9321 255 255 255 255 
-26.7347 2.64424 70.2073 255 255 255 255 
-26.7148 2.08044 70.2451 255 255 255 255 
-26.799 1.39719 70.3983 255 255 255 255 
-26.7505 0.831119 70.8792 255 255 255 255 
-26.7024 0.151793 71.3551 255 255 255 255 
-26.8296 -0.443021 71.7301 255 255 255 255 
-26.6454 -1.06668 72.4487 255 255 255 255 
-27.0037 -1.73951 72.6183 255 255 255 255 
-27.2674 -2.29605 72.739 255 255 255 255 
-30.0204 13.8368 64.3598 255 255 255 255 
-29.2156 12.8707 65.6403 255 255 255 255 
-28.846 12.0213 66.3381 255 255 255 255 
-28.5243 11.2019 66.6469 255 255 255 255 
-28.3424 10.4146 66.8591 255 255 255 255 
-28.025 9.65348 67.0331 255 255 255 255 
-27.7554 8.86753 67.1748 255 255 255 255 
-27.5325 8.13341 67.2848 255 255 255 255 
-27.3552 7.29325 67.3637 255 255 255 255 
-27.18 6.573 67.527 255 255 255 255 
-26.9608 5.77741 67.5924 255 255 255 255 
-26.8301 5.03256 67.6398 255 255 255 255 
-26.6568 4.36476 67.7168 255 255 255 255 
-26.4864 3.62297 67.9191 255 255 255 255 
-26.2333 2.72868 68.2619 255 255 255 255 
-26.0246 2.03419 68.5727 255 255 255 255 
-25.9419 1.38602 68.7129 255 255 255 255 
-25.817 0.626067 68.8397 255 255 255 255 
-25.7785 -0.055128 69.0743 255 255 255 255 
-25.6966 -0.696505 69.2129 255 255 255 255 
-25.3252 -1.44093 69.4638 255 255 255 255 
-25.3717 -2.11585 69.7628 255 255 255 255 
-25.3751 -2.86439 69.9667 255 255 255 255 
-25.4244 -3.57475 70.4283 255 255 255 255 
-26.1009 -4.59421 70.8142 255 255 255 255 
-29.4277 12.9994 64.215 255 255 255 255 
-29.6158 12.3581 64.7594 150 150 150 255 
-29.6413 11.7637 65.3054 150 150 150 255 
-29.2898 11.0715 65.3307 255 255 255 255 
-29.3579 10.3707 65.4785 255 255 255 255 
-29.2627 9.7665 65.621 255 255 255 255 
-29.0457 9.01925 65.6133 255 255 255 255 
-29.0524 8.26488 65.6863 255 255 255 255 
-28.7526 7.59325 65.6391 255 255 255 255 
-28.669 6.86762 65.5999 255 255 255 255 
-28.5811 6.27304 65.8139 255 255 255 255 
-28.2554 5.49146 65.7292 255 255 255 255 
-28.232 4.85818 65.7643 255 255 255 255 
-27.7932 4.19526 65.533 255 255 255 255 
-27.8513 3.49287 65.6066 255 255 255 255 
-27.6019 2.9358 65.7403 255 255 255 255 
-27.4805 2.2281 65.8428 255 255 255 255 
-27.3076 1.52081 65.9429 255 255 255 255 
-27.279 0.894672 65.9061 255 255 255 255 
-27.073 0.230261 65.8977 255 255 255 255 
-26.8506 -0.508403 65.9951 255 255 255 255 
-26.81 -1.13097 66.1354 255 255 255 255 
-26.5379 -1.86344 66.2297 255 255 255 255 
-26.5811 -2.45123 66.4805 255 255 255 255 
-26.5838 -3.5497 66.8733 255 255 255 255 
-29.2691 12.7252 63.9101 255 255 255 255 
-29.3709 12.1231 64.3334 255 255 255 255 
-29.4274 11.5311 64.6266 255 255 255 255 
-29.2786 10.8617 64.8392 255 255 255 255 
-29.3196 10.1752 65.0902 255 255 255 255 
-29.2114 9.4513 65.1638 255 255 255 255 
-29.0272 8.77901 65.0105 255 255 255 255 
-29.0935 8.15196 65.0766 255 255 255 255 
-29.0272 7.46205 65.0105 255 255 255 255 
-28.7727 6.79794 64.9071 255 255 255 255 
-28.8535 6.09481 65.0179 255 255 255 255 
-28.9857 5.47273 65.15 255 255 255 255 
-28.6299 4.68896 65.0046 255 255 255 255 
-28.6299 3.93386 65.0046 255 255 255 255 
-28.2568 3.32223 64.9296 255 255 255 255 
-28.2294 2.6544 65.1128 255 255 255 255 
-27.9444 1.93383 65.0339 255 255 255 255 
-27.824 1.30107 65.0617 255 255 255 255 
-27.7605 0.592144 65.2687 255 255 255 255 
-27.6331 -0.039898 65.4104 255 255 255 255 
-27.379 -0.709705 65.4203 255 255 255 255 
-27.0636 -1.37416 65.3647 255 255 255 255 
-26.9503 -2.04342 65.5504 255 255 255 255 
-26.9152 -2.78971 65.5745 255 255 255 255 
-27.0754 -3.82235 65.6823 255 255 255 255 
3 0 1 25 
3 25 225 0 
3 1 26 25 
3 0 275 1 
3 225 250 0 
3 25 50 225 
3 26 51 25 
3 1 27 26 
3 275 276 1 
3 0 250 275 
3 250 226 275 
3 225 200 250 
3 50 75 225 
3 25 51 50 
3 51 75 50 
3 51 76 75 
3 26 27 51 
3 27 52 51 
3 1 2 27 
3 276 2 1 
3 276 277 2 
3 275 226 276 
3 226 227 276 
3 250 200 226 
3 200 201 226 
3 225 175 200 
3 75 150 225 
3 76 125 75 
3 51 52 76 
3 52 77 76 
3 27 28 52 
3 2 3 27 
3 277 3 2 
3 277 278 3 
3 276 227 277 
3 227 253 277 
3 226 201 227 
3 201 202 227 
3 200 151 201 
3 175 151 200 
3 175 150 151 
3 150 175 225 
3 75 125 150 
3 125 151 150 
3 125 126 151 
3 76 100 125 
3 77 100 76 
3 77 101 100 
3 52 53 77 
3 28 53 52 
3 28 29 53 
3 27 3 28 
3 3 4 28 
3 278 4 3 
3 278 5 4 
3 277 253 278 
3 253 254 278 
3 227 228 253 
3 202 228 227 
3 202 203 228 
3 201 176 202 
3 151 176 201 
3 151 152 176 
3 126 152 151 
3 126 127 152 
3 125 100 126 
3 100 101 126 
3 101 127 126 
3 101 102 127 
3 77 78 101 
3 53 78 77 
3 53 54 78 
3 29 54 53 
3 29 55 54 
3 28 30 29 
3 4 30 28 
3 4 5 30 
3 5 31 30 
3 278 279 5 
3 254 279 278 
3 254 255 279 
3 253 228 254 
3 228 229 254 
3 203 229 228 
3 203 204 229 
3 202 177 203 
3 176 177 202 
3 176 153 177 
3 152 153 176 
3 152 127 153 
3 127 128 153 
3 102 128 127 
3 102 129 128 
3 101 79 102 
3 78 79 101 
3 78 54 79 
3 54 55 79 
3 55 80 79 
3 29 30 55 
3 30 56 55 
3 31 56 30 
3 31 32 56 
3 5 7 31 
3 279 280 5 
3 255 280 279 
3 255 256 280 
3 254 229 255 
3 229 230 255 
3 204 230 229 
3 204 205 230 
3 203 178 204 
3 177 178 203 
3 177 154 178 
3 153 154 177 
3 153 128 154 
3 128 155 154 
3 129 155 128 
3 129 130 155 
3 102 103 129 
3 79 80 102 
3 80 103 102 
3 80 104 103 
3 55 56 80 
3 56 57 80 
3 32 57 56 
3 32 33 57 
3 31 7 32 
3 7 8 32 
3 5 6 7 
3 280 6 5 
3 280 281 6 
3 256 281 280 
3 256 257 281 
3 255 230 256 
3 230 231 256 
3 205 231 230 
3 205 206 231 
3 204 179 205 
3 178 179 204 
3 178 155 179 
3 155 178 154 
3 130 156 155 
3 129 103 130 
3 103 104 130 
3 104 105 130 
3 80 81 104 
3 57 81 80 
3 57 58 81 
3 33 58 57 
3 33 34 58 
3 32 8 33 
3 8 9 33 
3 7 281 8 
3 281 7 6 
3 257 258 281 
3 256 231 257 
3 231 258 257 
3 231 232 258 
3 206 207 231 
3 205 180 206 
3 179 180 205 
3 179 156 180 
3 156 179 155 
3 130 131 156 
3 105 131 130 
3 105 132 131 
3 104 81 105 
3 81 82 105 
3 58 82 81 
3 58 83 82 
3 34 59 58 
3 33 9 34 
3 9 10 34 
3 8 283 9 
3 281 282 8 
3 258 282 281 
3 258 283 282 
3 232 233 258 
3 231 207 232 
3 207 208 232 
3 206 182 207 
3 180 181 206 
3 156 181 180 
3 156 157 181 
3 131 157 156 
3 131 158 157 
3 132 158 131 
3 132 159 158 
3 105 106 132 
3 82 106 105 
3 82 83 106 
3 83 107 106 
3 58 59 83 
3 59 84 83 
3 34 35 59 
3 10 35 34 
3 10 11 35 
3 9 284 10 
3 283 284 9 
3 283 258 284 
3 258 259 284 
3 8 282 283 
3 233 259 258 
3 233 260 259 
3 232 208 233 
3 208 209 233 
3 207 182 208 
3 182 183 208 
3 206 181 182 
3 181 158 182 
3 158 181 157 
3 159 183 158 
3 132 133 159 
3 106 107 132 
3 107 133 132 
3 107 108 133 
3 83 84 107 
3 84 108 107 
3 84 85 108 
3 59 60 84 
3 35 60 59 
3 35 36 60 
3 11 36 35 
3 11 12 36 
3 10 285 11 
3 284 285 10 
3 284 261 285 
3 259 260 284 
3 260 261 284 
3 260 234 261 
3 233 234 260 
3 233 209 234 
3 209 210 234 
3 208 184 209 
3 183 184 208 
3 183 159 184 
3 159 160 184 
3 182 158 183 
3 133 160 159 
3 133 134 160 
3 108 134 133 
3 108 109 134 
3 85 109 108 
3 85 86 109 
3 84 61 85 
3 60 61 84 
3 60 36 61 
3 36 37 61 
3 12 37 36 
3 12 13 37 
3 11 285 12 
3 285 286 12 
3 261 287 285 
3 234 235 261 
3 210 235 234 
3 210 211 235 
3 209 185 210 
3 184 185 209 
3 134 161 160 
3 109 135 134 
3 86 110 109 
3 85 61 86 
3 61 62 86 
3 13 38 37 
3 12 287 13 
3 287 286 285 
3 287 12 286 
3 261 263 287 
3 235 236 261 
3 211 236 235 
3 211 212 236 
3 210 185 211 
3 185 186 211 
3 134 135 161 
3 135 136 161 
3 109 110 135 
3 110 136 135 
3 110 111 136 
3 86 87 110 
3 62 87 86 
3 62 63 87 
3 13 14 38 
3 287 14 13 
3 287 288 14 
3 263 288 287 
3 263 289 288 
3 236 262 261 
3 212 237 236 
3 211 186 212 
3 186 187 212 
3 185 161 186 
3 136 162 161 
3 111 137 136 
3 110 87 111 
3 87 88 111 
3 63 88 87 
3 63 64 88 
3 14 39 38 
3 288 289 14 
3 289 15 14 
3 263 264 289 
3 236 263 262 
3 212 213 237 
3 187 213 212 
3 187 188 213 
3 186 162 187 
3 136 137 162 
3 137 163 162 
3 111 138 137 
3 88 112 111 
3 64 89 88 
3 14 15 39 
3 15 40 39 
3 289 16 15 
3 264 265 289 
3 263 265 264 
3 263 237 265 
3 213 238 237 
3 188 214 213 
3 137 164 163 
3 138 164 137 
3 138 165 164 
3 111 112 138 
3 112 139 138 
3 88 89 112 
3 89 113 112 
3 64 65 89 
3 15 41 40 
3 16 41 15 
3 16 17 41 
3 289 290 16 
3 265 290 289 
3 265 291 290 
3 237 238 265 
3 238 266 265 
3 263 236 237 
3 213 214 238 
3 214 239 238 
3 188 189 214 
3 138 139 165 
3 139 166 165 
3 112 113 139 
3 113 114 139 
3 89 90 113 
3 65 90 89 
3 65 66 90 
3 17 42 41 
3 16 291 17 
3 291 16 290 
3 265 266 291 
3 266 267 291 
3 214 215 239 
3 189 215 214 
3 189 190 215 
3 139 140 166 
3 114 140 139 
3 114 115 140 
3 113 90 114 
3 90 91 114 
3 66 91 90 
3 66 67 91 
3 17 18 42 
3 291 18 17 
3 291 292 18 
3 267 292 291 
3 267 268 292 
3 215 216 239 
3 190 216 215 
3 190 191 216 
3 140 167 166 
3 115 116 140 
3 114 91 115 
3 91 92 115 
3 67 92 91 
3 67 68 92 
3 18 43 42 
3 292 19 18 
3 268 293 292 
3 216 240 239 
3 191 217 216 
3 140 141 167 
3 116 141 140 
3 116 117 141 
3 115 92 116 
3 92 93 116 
3 68 93 92 
3 68 69 93 
3 18 19 43 
3 19 20 43 
3 292 293 19 
3 293 20 19 
3 293 294 20 
3 268 269 293 
3 216 217 240 
3 217 241 240 
3 191 192 217 
3 141 168 167 
3 117 142 141 
3 69 70 93 
3 20 44 43 
3 293 269 294 
3 269 295 294 
3 217 218 241 
3 192 218 217 
3 192 219 218 
3 141 142 168 
3 142 169 168 
3 117 118 142 
3 70 94 93 
3 20 45 44 
3 269 270 295 
3 218 242 241 
3 219 242 218 
3 219 243 242 
3 192 193 219 
3 142 143 169 
3 118 143 142 
3 118 144 143 
3 70 95 94 
3 20 21 45 
3 270 296 295 
3 219 220 243 
3 193 194 219 
3 143 170 169 
3 144 170 143 
3 144 171 170 
3 118 119 144 
3 70 71 95 
3 21 46 45 
3 270 271 296 
3 220 244 243 
3 219 194 220 
3 194 221 220 
3 144 145 171 
3 119 145 144 
3 119 120 145 
3 71 96 95 
3 21 22 46 
3 271 272 296 
3 194 195 221 
3 145 172 171 
3 120 121 145 
3 71 72 96 
3 22 23 46 
3 272 297 296 
3 195 222 221 
3 172 197 171 
3 145 146 172 
3 121 146 145 
3 121 122 146 
3 72 97 96 
3 23 47 46 
3 272 298 297 
3 195 196 222 
3 172 198 197 
3 146 147 172 
3 122 147 146 
3 122 123 147 
3 72 73 97 
3 23 24 47 
3 272 273 298 
3 196 197 222 
3 198 224 197 
3 172 173 198 
3 147 173 172 
3 147 174 173 
3 123 148 147 
3 73 98 97 
3 24 48 47 
3 273 274 298 
3 197 223 222 
3 224 223 197 
3 198 199 224 
3 173 199 198 
3 173 174 199 
3 147 148 174 
3 148 149 174 
3 123 124 148 
3 73 74 98 
3 24 49 48 
3 274 299 298 
3 148 124 149 
3 74 99 98 
3 37 62 61 
3 161 184 160 
3 161 185 184 
3 162 186 161 
3 187 162 188 
3 238 239 266 
3 239 267 266 
3 93 94 116 
3 94 117 116 
3 294 21 20 
3 171 196 170 
3 46 47 45 
3 220 221 244 
3 196 171 197 
3 123 99 124 
3 38 62 37 
3 38 63 62 
3 38 39 63 
3 39 64 63 
3 39 40 64 
3 40 65 64 
3 40 41 65 
3 41 66 65 
3 41 67 66 
3 41 42 67 
3 42 43 67 
3 43 68 67 
3 43 44 68 
3 44 69 68 
3 44 70 69 
3 44 71 70 
3 44 45 71 
3 45 47 71 
3 47 72 71 
3 47 73 72 
3 47 48 73 
3 48 74 73 
3 48 49 74 
3 163 164 162 
3 164 188 162 
3 164 189 188 
3 164 190 189 
3 164 165 190 
3 165 166 190 
3 166 192 190 
3 267 241 268 
3 240 267 239 
3 241 267 240 
3 191 190 192 
3 168 193 167 
3 295 22 294 
3 169 194 168 
3 117 94 118 
3 94 95 118 
3 95 119 118 
3 95 120 119 
3 95 96 120 
3 96 97 120 
3 97 121 120 
3 97 122 121 
3 97 98 122 
3 98 123 122 
3 269 242 270 
3 242 269 241 
3 269 268 241 
3 243 270 242 
3 243 271 270 
3 243 244 271 
3 244 272 271 
3 244 245 272 
3 192 167 193 
3 192 166 167 
3 193 168 194 
3 170 194 169 
3 170 195 194 
3 170 196 195 
3 21 294 22 
3 22 296 23 
3 297 23 296 
3 297 24 23 
3 297 298 24 
3 298 299 24 
3 222 245 221 
3 223 248 222 
3 224 248 223 
3 224 249 248 
3 99 123 98 
3 221 247 244 
3 295 296 22 
3 245 273 272 
3 245 274 273 
3 245 246 274 
3 222 246 245 
3 222 247 246 
3 247 274 244 
3 222 248 247 
3 247 248 274 
3 248 249 274 
3 261 262 263 
3 249 224 199 
3 49 24 299 
3 74 49 299 
3 99 74 299 
3 124 99 299 
3 149 124 299 
3 174 149 299 
3 174 299 274 
3 244 274 249 
3 244 249 199 
3 244 199 174 
3 246 247 221 
