ply
format ascii 1.0
element vertex 115
property float x
property float y
property float z
element face 0
property list uchar int vertext index
end_header
-28.934111 -3.184012 64.024117
-28.920103 -1.770195 64.075957
-28.509787 1.267682 64.339898
-31.128272 -2.624530 64.068636
-29.782070 12.765058 63.309033
-30.712423 12.630585 63.620217
-30.125513 -3.520603 64.317001
-29.623614 -4.301309 64.415257
-29.167592 -4.753151 64.624325
-28.948751 -4.938554 64.861295
-28.733966 -5.207418 65.035406
-28.602691 -5.359421 65.332428
-28.395969 -5.485089 65.602284
-28.242362 -5.474209 65.865719
-28.008190 -5.251912 66.289214
-27.814897 -4.828976 66.751547
-27.416918 -4.917667 67.018615
-27.031360 -4.259431 67.572436
-27.003552 -4.293396 67.937395
-26.927706 -4.476287 68.139061
-26.895293 -4.604265 68.396654
-26.866743 -4.714137 68.714715
-26.802180 -4.893841 68.968834
-26.824241 -4.857677 69.272030
-26.828015 -4.910611 69.576739
-26.806466 -5.022363 69.839445
-26.871793 -4.956135 70.285569
-27.046923 -4.977157 70.534530
-27.095487 -5.156165 70.715423
-27.215526 -5.072140 71.100688
-27.527822 -5.089055 71.391876
-33.794159 -5.101461 70.121307
-35.107911 -3.918820 69.920355
-35.795290 -2.145550 69.448310
-35.000286 -3.827265 67.819652
-32.633055 -4.416046 66.653861
-32.466090 -4.668089 65.974789
-32.112653 -4.320697 65.816009
-31.897738 -4.249079 65.740646
-31.558751 -4.082583 65.659157
-31.315314 -3.998067 65.574524
-31.116609 -3.967869 65.551917
-30.764961 -3.780594 65.578505
-30.570840 -3.810192 65.564634
-30.381093 -3.848132 65.605413
-30.091003 -3.762354 65.548182
-29.968324 -3.998661 65.358950
-29.857214 -4.252754 65.298048
-29.442969 -3.871545 64.930305
-29.268866 -4.035310 64.907503
-29.109149 -4.095929 64.911032
-28.967766 -4.193961 64.932798
-28.798751 -4.321205 64.946170
-28.603084 -4.436350 64.950819
-28.470044 -4.549750 64.963372
-28.259868 -4.592066 64.985962
-28.017997 -4.571241 65.045272
-27.743194 -4.522026 65.444329
-27.703878 -4.925415 66.331172
-27.436531 -4.976851 66.621489
-33.794159 -5.101461 70.121307
-35.107911 -3.918820 69.920355
-35.795290 -2.145550 69.448310
-35.000286 -3.827265 67.819652
-33.268854 -5.052252 71.789816
-32.836029 -4.706110 72.256562
-32.369914 -4.522116 72.506137
-32.028290 -4.422501 72.635679
-31.499327 -3.950192 72.631469
-31.064391 -3.872477 72.713419
-30.697122 -3.739682 72.736126
-30.223874 -3.377802 72.845925
-29.787725 -3.234394 72.945612
-29.428617 -3.345332 73.063524
-29.063593 -3.244234 72.948511
-28.747814 -3.368889 72.990684
-28.384614 -3.351578 73.205453
-28.065301 -3.434590 73.082607
-27.835536 -3.738300 72.882968
-27.693336 -4.091373 72.708720
-27.404318 -4.272000 72.351840
-27.323879 -4.772610 72.152157
-27.225231 -5.231966 71.793967
-27.133182 -5.697814 71.265535
-28.934111 -3.184012 64.024117
-28.920103 -1.770195 64.075957
-28.509787 1.267682 64.339898
-31.128272 -2.624530 64.068636
-29.782070 12.765058 63.309033
-30.712423 12.630585 63.620217
-32.607806 -4.306016 65.954023
-32.686770 -4.397081 66.198689
-32.704534 -4.356646 66.414319
-32.809350 -4.158102 66.777891
-33.405345 -4.337943 67.014785
-33.402279 -4.545821 67.181840
-33.437592 -4.686620 67.390496
-33.507649 -4.697049 67.757440
-33.562125 -4.744315 68.000268
-33.530476 -4.823562 68.212006
-33.377917 -4.987508 68.408934
-33.377905 -5.065314 68.676576
-33.388131 -5.056214 68.959590
-33.393054 -5.025582 69.233177
-33.360970 -4.998924 69.524464
-33.352191 -5.078174 69.755344
-33.441617 -4.971268 70.082327
-33.354630 -4.975208 70.400904
-33.268792 -4.887246 70.682994
-33.190061 -4.870277 70.974429
-32.993243 -4.633376 71.321239
-32.747249 -4.498052 71.702807
-32.487737 -4.396384 72.052257
-32.086161 -3.786511 72.569036
-31.734124 -3.432454 72.918137
