ply
format ascii 1.0
element vertex 41
property float x
property float y
property float z
element face 0
property list uchar int vertext index
end_header
-33.646737 -5.093115 70.127860
-35.039588 -4.041626 69.982583
-35.819096 -2.314447 69.500314
-35.845404 -0.239768 69.535373
-34.984423 -3.946506 67.850475
-35.694839 -1.106218 67.335016
-30.933138 -3.851439 65.338622
-31.546157 -4.283586 66.060001
-31.122401 -4.303241 66.726540
-31.826024 -4.665121 67.675041
-32.683820 -5.109255 68.918224
-31.966789 -4.636833 68.908255
-31.240951 -3.865029 68.708065
-32.325886 -4.847492 70.137239
-31.461407 -4.376924 69.930793
-31.971660 -4.428647 70.879099
-31.373287 -4.028391 71.430705
-30.573604 -3.620439 71.994283
-33.646737 -5.093115 70.127860
-35.039588 -4.041626 69.982583
-35.819096 -2.314447 69.500314
-35.845404 -0.239768 69.535373
-34.984423 -3.946506 67.850475
-35.694839 -1.106218 67.335016
-28.653138 -4.711942 65.272208
-29.522124 -4.405749 66.511168
-29.550324 -4.369323 67.290522
-28.773932 -4.038779 67.145645
-27.913937 -4.693122 66.039498
-26.870152 -3.498639 67.062415
-27.703375 -4.022182 68.340248
-27.068763 -4.126096 68.385298
-27.687901 -3.913756 69.202462
-28.268691 -4.267124 69.905346
-27.225452 -4.461683 69.984651
-29.119382 -3.670868 69.097916
-27.950104 -3.558852 71.704408
-28.870862 -3.872340 71.329835
-29.506210 -3.843789 70.613060
-29.779305 -3.767785 69.831996
-28.720210 -3.011391 72.579772
