ply
format ascii 1.0
element vertex 30
property float x
property float y
property float z
element face 0
property list uchar int vertext index
end_header
-26.242631 -3.261383 71.686741
-25.921479 -1.808112 71.038588
-25.967610 -0.773077 70.523989
-25.838245 -3.368492 68.808425
-25.602911 -2.315395 68.717273
-26.070093 -3.363589 67.910633
-26.046829 -2.296291 67.446415
-26.044854 -0.833552 67.536562
-26.210644 0.541408 67.547443
-31.366566 -3.211538 72.715397
-31.766867 -3.469892 72.735047
-30.920656 -3.243935 72.067603
-32.094712 -3.703479 72.191979
-31.588318 -3.480010 71.517730
-32.761801 -3.988231 71.714041
-32.345379 -3.846193 70.998351
-32.961769 -4.188872 70.307879
-32.001311 -3.752651 70.019209
-33.367671 -4.239062 69.124656
-32.466557 -3.830915 69.067108
-33.834820 -3.859783 67.820316
-32.472502 -3.960582 67.821927
-33.545644 -3.493310 66.807920
-31.853571 -3.515132 66.800316
-32.324288 -3.579964 66.248859
-33.321379 -3.396318 65.498532
-31.795587 -3.178067 65.463245
-30.213848 -3.906652 66.500811
-30.216736 -3.933626 67.295154
-29.534908 -3.792774 67.145964
