ply
format ascii 1.0
comment VCGLIB generated
element vertex 505
property float x
property float y
property float z
element face 922
property list uchar int vertex_indices
end_header
-25.9134 19.4036 66.2576 
-26.0792 18.6839 65.9414 
-26.0114 17.9765 65.6485 
-25.9167 17.2891 65.4097 
-26.026 16.6146 65.2039 
-26.2023 15.967 65.2866 
-26.301 15.3759 65.4133 
-26.352 14.7556 65.4211 
-26.436 14.0762 65.1563 
-26.6019 13.3484 64.6329 
-26.7317 12.7055 64.4897 
-26.7581 12.0828 64.4396 
-26.7821 11.4803 64.4974 
-26.7821 10.8197 64.4974 
-26.8061 10.2155 64.5553 
-26.8587 9.58661 64.4549 
-26.9091 8.97469 64.4626 
-26.9856 8.35613 64.4202 
-27.0583 7.76434 64.5937 
-27.0583 7.15003 64.5937 
-26.9594 6.52323 64.4702 
-26.7581 5.9073 64.4396 
-26.6788 5.25958 64.5902 
-26.5596 4.62454 64.3015 
-26.4385 4.00181 64.1219 
-26.365 3.38857 64.0573 
-26.3181 2.77443 63.9434 
-26.2682 2.16605 63.9358 
-26.2417 1.55921 63.9852 
-26.2151 0.951423 64.0346 
-26.1585 0.296542 64.2406 
-25.935 -0.313976 64.1529 
-25.7311 -0.925192 64.2295 
-25.4583 -1.53376 64.1343 
-24.9605 -2.15743 64.5455 
-26.407 19.9049 67.0281 
-26.5402 19.0306 66.5648 
-26.7235 18.168 66.1069 
-26.7883 17.4288 65.8807 
-26.9681 16.5859 65.4322 
-27.1449 15.8744 65.4845 
-27.2589 15.0981 65.2617 
-27.4232 14.3268 65.0395 
-27.5356 13.6122 64.8198 
-27.6797 12.8192 64.4396 
-27.6845 12.0858 64.3324 
-27.9051 11.4526 64.4894 
-28.0105 10.6697 64.3803 
-28.0379 9.99967 64.3264 
-28.0421 9.27229 64.2195 
-28.0191 8.55446 64.1667 
-28.0547 7.81181 63.9012 
-27.973 7.17299 64.0612 
-27.9687 6.47469 64.1675 
-28.1198 5.76426 64.165 
-28.4111 5.07895 64.4808 
-28.6135 4.36505 64.4773 
-28.5762 3.67791 64.051 
-28.6265 2.96896 64.0502 
-28.5025 2.25825 63.9993 
-28.4417 1.55766 64.3195 
-28.384 0.848613 64.535 
-28.3221 0.186295 64.8606 
-28.2163 -0.532488 64.9713 
-28.0124 -1.25166 64.9748 
-27.9292 -1.97582 65.1403 
-27.8969 -2.70364 65.3057 
-27.8969 -3.37481 65.3057 
-27.9672 -4.10793 65.4703 
-28.4353 -4.87734 66.077 
-26.7141 19.7349 66.9037 
-27.0618 18.856 66.4373 
-27.294 18.0627 66.2189 
-27.3704 17.3575 66.2741 
-27.5178 16.5409 66.0612 
-27.5308 15.8531 65.9436 
-27.8785 15.0726 65.753 
-28.2169 14.2678 65.6222 
-28.449 13.5657 65.7273 
-28.5453 12.9464 65.9835 
-28.6532 12.216 66.1238 
-28.7673 11.4952 65.7705 
-28.7727 10.7461 65.7126 
-28.7727 10.0498 65.7126 
-28.789 9.33063 65.5395 
-29.029 8.61302 65.1023 
-29.2876 7.84024 64.8667 
-29.2827 7.16012 64.9231 
-29.2728 6.4412 65.036 
-29.2678 5.75834 65.0927 
-29.0933 5.13235 65.2697 
-29.1138 4.42719 65.0424 
-29.391 3.66453 64.5834 
-29.502 3.02524 64.6629 
-29.4962 2.31721 65.1963 
-29.5048 1.63789 65.5652 
-29.7153 0.94281 65.4137 
-29.7107 0.297387 65.4707 
-29.5375 -0.436182 65.6495 
-29.3581 -1.13253 65.8874 
-29.2301 -1.83117 65.9801 
-29.0793 -2.52679 65.8716 
-29.4855 -3.21083 65.7952 
-29.6122 -3.92087 66.1933 
-29.7347 -4.61135 66.1583 
-26.5632 19.7134 66.8336 
-27.1247 18.8645 66.6822 
-27.1785 18.1695 66.6854 
-27.3927 17.4376 66.6981 
-27.3738 16.7367 66.8798 
-27.5871 16.0524 66.892 
-27.9929 15.2347 66.7701 
-28.2375 14.5507 66.7484 
-28.4804 13.8212 66.619 
-28.7385 13.0553 66.5274 
-28.8072 12.4627 66.5675 
-28.9269 11.613 66.6106 
-29.0292 11.0151 66.617 
-28.9781 10.4 66.6138 
-29.0289 9.63939 66.51 
-29.0628 8.92795 66.4766 
-29.2317 8.27743 66.3099 
-29.2994 7.61032 66.3498 
-29.5171 6.96148 66.1877 
-29.5341 6.34417 66.2241 
-29.4498 5.60835 66.1478 
-29.3994 4.99463 66.1444 
-29.4328 4.37353 66.1114 
-29.4328 3.6325 66.1114 
-29.4328 2.93264 66.1114 
-29.4328 2.31511 66.1114 
-29.8827 1.60079 66.0373 
-30.179 0.939531 65.9537 
-30.0485 0.20876 66.084 
-30.0494 -0.362483 66.1889 
-30.0334 -1.05696 66.2579 
-30.0998 -1.70989 66.2973 
-30.2638 -2.35847 66.2385 
-30.3141 -3.00978 66.3466 
-30.0848 -3.67335 66.4716 
-26.3786 20.2952 68.101 
-26.7278 19.4703 68.0739 
-27.154 18.6249 67.9685 
-27.2352 17.8877 68.0129 
-27.5369 17.0967 68.0256 
-27.5764 16.3661 67.9865 
-27.7356 15.6111 67.9527 
-28.0332 14.8345 67.9656 
-28.2512 14.0853 68.0557 
-28.4681 13.387 68.1454 
-28.5267 12.6671 68.1478 
-28.6235 11.9391 68.1116 
-28.7781 11.2042 68.0779 
-28.9876 10.4574 67.927 
-29.083 9.69126 67.8914 
-29.3077 8.99409 67.6635 
-29.5556 8.26664 67.7149 
-29.5953 7.61465 67.7957 
-29.5384 6.87631 67.7931 
-29.4245 6.18859 67.7878 
-29.2355 5.50745 67.8585 
-29.3301 4.79824 67.8231 
-29.3848 4.09163 67.7067 
-29.233 3.40133 67.7392 
-29.253 2.70035 67.7798 
-29.4987 1.99002 67.7122 
-29.5754 1.33684 67.7553 
-29.6889 0.637415 67.7606 
-29.9118 -0.060947 67.6532 
-30.0606 -0.754493 67.6212 
-29.9877 -1.49439 67.6961 
-30.0969 -2.18435 67.5839 
-30.1694 -2.82696 67.5093 
-29.9987 -3.52288 67.3832 
-30.2462 -4.19266 66.8908 
-26.9242 19.2255 68.1098 
-27.1097 18.475 68.189 
-27.3367 17.6929 68.4275 
-27.4244 16.9995 68.3344 
-27.765 16.2246 68.4474 
-28.0501 15.469 68.5477 
-28.108 14.7833 68.4862 
-28.2639 14.0678 68.5209 
-28.2928 13.4248 68.4902 
-28.5678 12.5981 68.6622 
-28.6705 11.9411 68.6849 
-28.5619 11.3128 68.7346 
-28.7036 10.5171 68.9127 
-28.9074 9.77145 68.9571 
-28.8627 9.26863 68.8741 
-28.9135 8.5074 68.8853 
-28.9135 7.79288 68.8853 
-28.9297 7.10839 68.9985 
-28.9236 6.4302 69.0702 
-28.8728 5.76113 69.0592 
-28.8952 5.08335 69.1005 
-28.8952 4.37011 69.1005 
-28.7996 3.74489 69.0068 
-28.6524 3.07998 68.9015 
-28.7893 2.36073 68.8214 
-28.8239 1.72555 68.7188 
-29.0275 1.00456 68.7638 
-29.1572 0.328506 68.756 
-29.2582 -0.345546 68.7783 
-29.3277 -0.979105 68.5742 
-29.3817 -1.69472 68.2555 
-29.8185 -2.32123 68.2457 
-29.8235 -3.00007 67.9154 
-29.9288 -3.71838 67.6072 
-29.9911 -4.40425 67.2126 
-26.4895 19.5241 68.4017 
-26.774 18.6601 68.8987 
-26.8489 17.952 68.8063 
-26.9207 17.2604 68.8578 
-27.087 16.459 69.0011 
-27.2044 15.7124 69.1335 
-27.3706 15.0083 69.2042 
-27.5132 14.2397 69.2341 
-27.9378 13.4582 69.3233 
-28.1226 12.7201 69.4327 
-28.3964 11.8862 69.6303 
-28.3502 11.281 69.6208 
-28.394 10.5769 69.6999 
-28.4402 9.88114 69.7094 
-28.462 9.22459 69.7488 
-28.508 8.49237 69.7583 
-28.5732 7.78877 69.8763 
-28.5949 7.09749 69.9155 
-28.5949 6.37338 69.9155 
-28.5949 5.61115 69.9155 
-28.5055 5.01201 69.8276 
-28.2772 4.38192 69.7108 
-28.1798 3.65382 69.8309 
-28.1995 2.99766 69.9398 
-28.0869 2.27759 69.812 
-28.1113 1.58672 69.7819 
-28.2528 0.89392 69.7408 
-28.5565 0.201361 69.6985 
-28.6752 -0.486439 69.6182 
-28.7802 -1.21298 69.2899 
-28.8612 -1.86556 68.9905 
-28.8287 -2.56268 68.6291 
-28.8205 -3.26504 68.2348 
-29.0439 -3.96184 67.8915 
-29.1379 -4.67495 67.2994 
-26.0257 19.7602 68.5452 
-26.0092 18.9532 68.8157 
-26.0611 18.1898 68.9397 
-26.1453 17.2895 69.2772 
-26.1473 16.6037 69.4515 
-26.1211 15.8096 69.7595 
-26.2021 15.0135 69.9176 
-26.341 14.3198 69.9793 
-26.4497 13.5188 70.0033 
-26.5687 12.8111 70.1532 
-26.7461 12.0511 70.3766 
-26.8342 11.3989 70.4876 
-26.9512 10.6246 70.635 
-27.0098 9.89534 70.5412 
-27.0193 9.17176 70.665 
-27.0873 8.54061 70.6949 
-27.2039 7.79857 70.6747 
-27.3594 7.05649 70.6478 
-27.3116 6.36753 70.5307 
-27.3316 5.59332 70.4434 
-27.3316 5.0059 70.4434 
-27.2445 4.23225 70.3324 
-27.1664 3.52606 70.3459 
-27.2536 2.81296 70.457 
-27.1657 2.10635 70.5141 
-27.2536 1.36395 70.457 
-27.3629 0.704136 70.1429 
-27.5299 -0.003612 70.0717 
-27.6784 -0.672895 69.9185 
-27.7822 -1.5466 69.4721 
-27.8185 -2.19315 68.9881 
-27.8685 -2.93747 68.2719 
-27.99 -3.69574 67.5737 
-28.1926 -4.45889 67.0334 
-28.3496 -5.24307 66.3521 
-25.7438 19.4714 68.6519 
-25.68 18.7427 68.7372 
-25.68 18.0448 68.7372 
-25.6358 17.2535 69.0665 
-25.5351 16.3899 69.3343 
-25.5165 15.7206 69.4258 
-25.4226 14.949 69.5502 
-25.342 14.2161 69.7235 
-25.3493 13.4428 69.9119 
-25.4256 12.701 70.2046 
-25.5069 12.0835 70.3581 
-25.6623 11.297 70.479 
-25.7862 10.5494 70.6395 
-25.7799 9.84881 70.7751 
-25.8109 9.1346 70.7353 
-25.8541 8.4129 70.7434 
-25.9651 7.76979 70.8551 
-26.003 7.16148 70.6798 
-26.0533 6.5898 70.5517 
-25.9419 5.73775 70.439 
-25.9922 5.06997 70.3099 
-25.886 4.47115 70.3825 
-25.8178 3.66011 70.2775 
-25.7866 3.11186 70.3179 
-25.7742 2.29641 70.2694 
-25.8243 1.61963 70.1397 
-25.9307 0.938776 70.0664 
-26.0074 0.213822 69.7058 
-26.0461 -0.335988 69.5238 
-26.0745 -1.21561 68.9551 
-26.3608 -1.97173 68.3744 
-26.4876 -2.64048 68.0017 
-26.6913 -3.37543 67.3851 
-26.8897 -4.16528 66.9095 
-27.1012 -4.9291 66.2706 
-25.7438 19.4714 68.6519 
-25.68 18.7427 68.7372 
-25.68 18.0448 68.7372 
-25.6358 17.2535 69.0665 
-25.5351 16.3899 69.3343 
-25.5165 15.7206 69.4258 
-25.4226 14.949 69.5502 
-25.342 14.2161 69.7235 
-25.3493 13.4428 69.9119 
-25.4256 12.701 70.2046 
-25.5069 12.0835 70.3581 
-25.6623 11.297 70.479 
-25.7862 10.5494 70.6395 
-25.7799 9.84881 70.7751 
-25.8109 9.1346 70.7353 
-25.8541 8.4129 70.7434 
-25.9651 7.76979 70.8551 
-26.003 7.16148 70.6798 
-26.0533 6.5898 70.5517 
-25.9419 5.73775 70.439 
-25.9922 5.06997 70.3099 
-25.886 4.47115 70.3825 
-25.8178 3.66011 70.2775 
-25.7866 3.11186 70.3179 
-25.7742 2.29641 70.2694 
-25.8243 1.61963 70.1397 
-25.9307 0.938776 70.0664 
-26.0074 0.213822 69.7058 
-26.0461 -0.335988 69.5238 
-26.0745 -1.21561 68.9551 
-26.3608 -1.97173 68.3744 
-26.4876 -2.64048 68.0017 
-26.6913 -3.37543 67.3851 
-26.8897 -4.16528 66.9095 
-27.1012 -4.9291 66.2706 
-25.3527 19.675 68.1089 
-25.2232 18.9032 68.2678 
-25.2364 18.2182 68.4084 
-25.2109 17.4848 68.5178 
-25.0448 16.6835 68.837 
-25.0073 15.9944 68.9988 
-24.8931 15.2581 69.099 
-24.7672 14.5134 69.2521 
-24.6421 13.8229 69.4042 
-24.5418 13.1585 69.4498 
-24.3919 12.4364 69.5178 
-24.38 11.7382 69.5705 
-24.4322 11.0324 69.7356 
-24.508 10.395 69.7956 
-24.4463 9.69159 69.8702 
-24.4085 9.00546 69.8402 
-24.4582 8.32681 69.8179 
-24.5838 7.64745 69.8557 
-24.7839 7.03428 69.7662 
-24.7079 6.39392 69.7059 
-24.8832 5.73018 69.5326 
-24.9338 5.0428 69.5098 
-24.6039 4.39081 69.374 
-24.4537 3.68894 69.4424 
-24.4656 3.00215 69.3895 
-24.602 2.37322 69.1843 
-24.6384 1.68574 69.024 
-24.6365 1.04468 68.8325 
-24.6469 0.351504 68.586 
-24.809 -0.344729 68.0703 
-25.0012 -1.00038 67.831 
-25.2342 -1.71599 67.4209 
-25.4177 -2.44073 67.0304 
-25.5371 -3.11934 66.7183 
-25.9972 -3.89202 65.768 
-25.8944 19.7874 67.1708 
-25.703 19.0531 67.3944 
-25.397 18.3932 67.4605 
-25.3141 17.647 67.6484 
-25.0888 16.9235 67.6401 
-24.9943 16.2091 67.7507 
-24.9682 15.5706 68.0166 
-24.7182 14.7956 68.2729 
-24.619 14.0525 68.4975 
-24.586 13.4324 68.5724 
-24.525 12.803 68.6075 
-24.3475 11.695 68.5983 
-24.2592 11.2256 68.5938 
-24.2869 10.6979 68.6333 
-24.2697 9.97474 68.3659 
-24.3579 9.04162 68.3702 
-24.2697 8.65863 68.3659 
-24.2973 7.96531 68.4053 
-24.2973 7.26566 68.4053 
-24.2973 6.40138 68.4053 
-24.3415 5.91186 68.4074 
-24.3363 5.17475 68.5215 
-24.3198 4.59786 68.5588 
-24.2921 3.89412 68.5192 
-24.3138 3.19112 68.368 
-24.2638 2.60813 68.1759 
-24.2631 1.7815 67.8733 
-24.3398 1.24991 67.8009 
-24.4872 0.511558 67.4671 
-24.4861 -0.268363 67.1665 
-24.4187 -0.881271 66.7164 
-24.7802 -1.45467 66.5008 
-25.0976 -2.19251 65.9844 
-25.4484 -2.89086 65.3928 
-25.5431 -3.58121 64.8751 
-26.0023 19.4297 66.4516 
-25.8659 18.7225 66.5315 
-25.7299 18.1076 66.6111 
-25.4772 17.3332 66.729 
-25.3916 16.6905 66.8092 
-25.0919 15.9558 66.9248 
-25.1353 15.3069 67.0493 
-25.0627 14.634 67.2117 
-25.039 14.1066 67.3758 
-24.8563 13.4021 67.4521 
-24.8382 12.6844 67.4927 
-24.741 12.0379 67.4893 
-24.7525 11.3473 67.2432 
-24.7582 10.6676 67.1205 
-24.8248 10.0047 67.0814 
-24.8248 9.37844 67.0814 
-24.7943 8.78998 67.0396 
-24.7697 8.06166 66.8755 
-24.7328 7.37404 66.6303 
-24.8474 6.7612 66.5921 
-24.8834 6.13669 66.5115 
-25.0165 5.56579 66.4327 
-24.9555 4.79862 66.3503 
-24.9611 3.99246 66.2286 
-24.7679 3.44597 66.2255 
-24.6058 2.86088 66.2633 
-24.5579 2.14956 66.2625 
-24.5696 1.526 66.021 
-24.8812 0.912332 65.8637 
-24.832 0.288007 65.5417 
-25.0713 -0.419728 65.222 
-25.245 -1.04031 64.9417 
-25.3039 -1.66026 64.7018 
-25.58 -2.32688 64.3005 
-25.618 -2.98518 63.7837 
-26.0629 19.0367 66.2218 
-26.0102 18.4818 66.2591 
-25.9399 17.9549 66.2198 
-25.8581 17.3891 66.2185 
-25.7881 16.8648 66.1794 
-25.7067 16.3017 66.1782 
-25.7241 15.7306 66.2544 
-25.7997 15.1805 66.408 
-25.7997 14.7622 66.408 
-25.7997 14.1348 66.408 
-25.8814 13.8176 66.4095 
-26.0045 13.2563 66.4118 
-26.0867 12.727 66.4133 
-26.2401 12.2131 66.4545 
-26.1335 11.6304 66.2611 
-26.269 11.1468 66.225 
-26.192 10.4916 66.071 
-26.0566 10.0339 65.8411 
-26.1386 9.46052 65.8419 
-26.1797 8.96386 65.8423 
-26.0739 8.4351 65.6516 
-25.957 7.91012 65.4997 
-26.1144 7.33901 65.3872 
-26.0559 6.82799 65.3116 
-26.0559 6.28632 65.3116 
-26.0559 5.78633 65.3116 
-26.2723 5.26182 65.2743 
-26.2893 4.7129 65.0856 
-26.3304 4.17313 65.0856 
-26.419 3.63907 65.1989 
-26.4127 3.13349 65.0855 
-26.5004 2.63244 64.9344 
-26.6295 2.09098 64.783 
-26.3509 1.5707 64.223 
-26.2272 1.02153 63.7056 
-28.0546 5.17733 64.4205 
-27.8317 4.46415 63.9088 
-27.6723 3.81752 63.8228 
-27.5551 3.17392 63.7633 
-27.3379 2.46983 63.6835 
-27.2794 1.89375 63.7601 
-27.1699 1.19737 64.0047 
-27.001 0.587154 64.1851 
-26.8637 -0.088252 64.5184 
-26.7083 -0.677289 64.8149 
-26.5423 -1.39741 65.168 
-26.6719 -2.04715 65.0284 
-26.783 -2.76069 64.9962 
-26.8594 -3.38383 65.0307 
-27.011 -4.05468 65.3221 
3 0 455 71 
3 71 105 0 
3 455 1 71 
3 0 1 455 
3 105 35 0 
3 71 106 105 
3 1 37 71 
3 35 385 0 
3 105 141 35 
3 106 175 105 
3 71 72 106 
3 37 72 71 
3 37 38 72 
3 1 2 37 
3 385 386 0 
3 35 140 385 
3 141 140 35 
3 141 210 140 
3 105 175 141 
3 175 210 141 
3 175 211 210 
3 106 142 175 
3 72 107 106 
3 38 73 72 
3 37 2 38 
3 2 3 38 
3 386 421 0 
3 385 350 386 
3 140 350 385 
3 140 245 350 
3 210 245 140 
3 210 246 245 
3 211 246 210 
3 211 247 246 
3 175 176 211 
3 142 176 175 
3 142 143 176 
3 106 107 142 
3 107 143 142 
3 107 108 143 
3 72 108 107 
3 72 73 108 
3 73 74 108 
3 38 39 73 
3 3 39 38 
3 3 4 39 
3 421 1 0 
3 421 456 1 
3 386 387 421 
3 350 351 386 
3 245 280 350 
3 246 280 245 
3 246 281 280 
3 247 281 246 
3 247 317 281 
3 211 212 247 
3 176 177 211 
3 143 177 176 
3 143 144 177 
3 108 144 143 
3 108 109 144 
3 74 109 108 
3 74 110 109 
3 73 39 74 
3 39 40 74 
3 4 5 39 
3 456 2 1 
3 456 422 2 
3 421 422 456 
3 421 387 422 
3 387 423 422 
3 386 351 387 
3 351 352 387 
3 350 280 351 
3 280 281 351 
3 281 352 351 
3 281 317 352 
3 317 353 352 
3 247 283 317 
3 212 248 247 
3 211 177 212 
3 177 213 212 
3 144 178 177 
3 109 145 144 
3 110 145 109 
3 110 146 145 
3 74 75 110 
3 40 75 74 
3 40 76 75 
3 39 5 40 
3 5 41 40 
3 4 460 5 
3 422 457 2 
3 423 457 422 
3 423 458 457 
3 387 388 423 
3 352 388 387 
3 352 353 388 
3 353 389 388 
3 317 283 353 
3 283 354 353 
3 247 248 283 
3 248 249 283 
3 212 213 248 
3 213 249 248 
3 213 214 249 
3 177 178 213 
3 178 214 213 
3 178 179 214 
3 144 179 178 
3 144 145 179 
3 145 146 179 
3 146 180 179 
3 110 111 146 
3 75 111 110 
3 75 76 111 
3 76 112 111 
3 40 41 76 
3 41 42 76 
3 5 6 41 
3 460 461 5 
3 4 459 460 
3 457 458 2 
3 458 3 2 
3 458 459 3 
3 388 389 423 
3 389 424 423 
3 353 354 389 
3 354 390 389 
3 283 319 354 
3 249 319 283 
3 249 250 319 
3 214 250 249 
3 214 215 250 
3 179 215 214 
3 179 180 215 
3 180 216 215 
3 146 147 180 
3 111 147 146 
3 111 112 147 
3 112 148 147 
3 76 77 112 
3 42 77 76 
3 42 43 77 
3 41 8 42 
3 6 7 41 
3 5 461 6 
3 461 462 6 
3 460 425 461 
3 459 424 460 
3 4 3 459 
3 458 423 459 
3 424 459 423 
3 389 425 424 
3 354 355 390 
3 319 355 354 
3 319 320 355 
3 250 320 319 
3 250 321 320 
3 215 251 250 
3 216 251 215 
3 216 252 251 
3 180 181 216 
3 147 181 180 
3 147 148 181 
3 148 182 181 
3 112 113 148 
3 77 113 112 
3 77 78 113 
3 43 78 77 
3 43 44 78 
3 42 9 43 
3 8 9 42 
3 8 466 9 
3 41 7 8 
3 7 464 8 
3 6 463 7 
3 462 463 6 
3 462 426 463 
3 461 426 462 
3 425 426 461 
3 425 391 426 
3 460 424 425 
3 389 390 425 
3 390 391 425 
3 390 355 391 
3 355 356 391 
3 320 356 355 
3 320 321 356 
3 321 357 356 
3 250 251 321 
3 251 322 321 
3 252 322 251 
3 252 323 322 
3 216 217 252 
3 181 217 216 
3 181 182 217 
3 182 218 217 
3 148 149 182 
3 113 149 148 
3 113 114 149 
3 78 114 113 
3 78 79 114 
3 44 79 78 
3 44 45 79 
3 43 9 44 
3 9 10 44 
3 466 467 9 
3 8 465 466 
3 464 465 8 
3 464 429 465 
3 7 463 464 
3 463 427 464 
3 426 427 463 
3 426 392 427 
3 391 392 426 
3 391 356 392 
3 356 357 392 
3 357 393 392 
3 321 322 357 
3 322 358 357 
3 323 358 322 
3 323 359 358 
3 252 253 323 
3 217 253 252 
3 217 218 253 
3 218 254 253 
3 182 183 218 
3 149 183 182 
3 149 184 183 
3 114 150 149 
3 79 115 114 
3 45 80 79 
3 44 10 45 
3 10 11 45 
3 9 467 10 
3 467 469 10 
3 466 430 467 
3 465 429 466 
3 429 430 466 
3 429 395 430 
3 464 428 429 
3 427 428 464 
3 427 392 428 
3 392 393 428 
3 393 429 428 
3 393 394 429 
3 357 358 393 
3 358 394 393 
3 358 359 394 
3 359 395 394 
3 323 289 359 
3 253 289 323 
3 253 254 289 
3 254 325 289 
3 218 219 254 
3 183 184 218 
3 184 219 218 
3 184 220 219 
3 149 150 184 
3 150 151 184 
3 114 115 150 
3 115 151 150 
3 115 116 151 
3 79 80 115 
3 80 116 115 
3 80 81 116 
3 45 81 80 
3 45 46 81 
3 11 12 45 
3 10 469 11 
3 469 12 11 
3 469 470 12 
3 467 431 469 
3 430 431 467 
3 395 431 430 
3 395 396 431 
3 429 394 395 
3 359 360 395 
3 289 360 359 
3 289 325 360 
3 325 361 360 
3 254 255 325 
3 219 255 254 
3 219 220 255 
3 220 256 255 
3 184 185 220 
3 151 185 184 
3 151 152 185 
3 116 152 151 
3 116 117 152 
3 81 117 116 
3 81 82 117 
3 46 82 81 
3 46 47 82 
3 45 12 46 
3 12 13 46 
3 470 13 12 
3 470 471 13 
3 469 433 470 
3 431 432 469 
3 396 397 431 
3 395 360 396 
3 360 361 396 
3 361 397 396 
3 361 362 397 
3 325 362 361 
3 325 326 362 
3 255 326 325 
3 255 256 326 
3 256 292 326 
3 220 221 256 
3 185 186 220 
3 152 186 185 
3 152 187 186 
3 117 153 152 
3 82 118 117 
3 47 83 82 
3 46 13 47 
3 13 14 47 
3 471 472 13 
3 470 433 471 
3 433 472 471 
3 433 434 472 
3 469 432 433 
3 432 397 433 
3 397 432 431 
3 362 398 397 
3 326 363 362 
3 292 363 326 
3 292 293 363 
3 256 257 292 
3 221 257 256 
3 221 222 257 
3 220 186 221 
3 186 187 221 
3 187 222 221 
3 187 188 222 
3 152 153 187 
3 153 188 187 
3 153 154 188 
3 117 118 153 
3 118 154 153 
3 118 119 154 
3 82 83 118 
3 83 119 118 
3 83 84 119 
3 47 48 83 
3 14 48 47 
3 14 15 48 
3 13 472 14 
3 472 15 14 
3 472 473 15 
3 434 435 472 
3 433 399 434 
3 397 398 433 
3 398 399 433 
3 398 364 399 
3 362 363 398 
3 363 364 398 
3 363 293 364 
3 293 329 364 
3 292 257 293 
3 257 258 293 
3 222 258 257 
3 222 223 258 
3 188 223 222 
3 188 224 223 
3 154 189 188 
3 119 155 154 
3 84 120 119 
3 83 48 84 
3 48 49 84 
3 15 49 48 
3 15 16 49 
3 473 16 15 
3 473 474 16 
3 472 435 473 
3 435 436 473 
3 434 399 435 
3 399 400 435 
3 364 400 399 
3 364 365 400 
3 329 365 364 
3 329 295 365 
3 293 259 329 
3 258 259 293 
3 258 224 259 
3 224 258 223 
3 188 189 224 
3 189 190 224 
3 154 155 189 
3 155 190 189 
3 155 156 190 
3 119 120 155 
3 120 156 155 
3 120 121 156 
3 84 85 120 
3 49 85 84 
3 49 50 85 
3 16 50 49 
3 16 17 50 
3 474 475 16 
3 473 436 474 
3 436 475 474 
3 436 437 475 
3 435 400 436 
3 400 401 436 
3 365 401 400 
3 365 366 401 
3 295 366 365 
3 295 367 366 
3 329 260 295 
3 259 260 329 
3 259 224 260 
3 224 225 260 
3 190 225 224 
3 190 226 225 
3 156 191 190 
3 121 122 156 
3 120 85 121 
3 85 86 121 
3 50 86 85 
3 50 51 86 
3 17 51 50 
3 17 18 51 
3 16 476 17 
3 475 476 16 
3 475 437 476 
3 437 438 476 
3 436 401 437 
3 401 402 437 
3 366 402 401 
3 366 367 402 
3 367 403 402 
3 295 296 367 
3 260 296 295 
3 260 261 296 
3 225 261 260 
3 225 226 261 
3 226 262 261 
3 190 191 226 
3 191 192 226 
3 156 157 191 
3 122 157 156 
3 122 123 157 
3 121 86 122 
3 86 123 122 
3 86 87 123 
3 51 87 86 
3 51 52 87 
3 18 52 51 
3 18 19 52 
3 17 476 18 
3 476 477 18 
3 438 477 476 
3 438 478 477 
3 437 403 438 
3 403 437 402 
3 367 368 403 
3 296 297 367 
3 261 262 296 
3 262 297 296 
3 262 298 297 
3 226 227 262 
3 192 227 226 
3 192 193 227 
3 191 157 192 
3 157 158 192 
3 123 158 157 
3 123 124 158 
3 87 88 123 
3 52 53 87 
3 19 20 52 
3 18 477 19 
3 477 478 19 
3 478 20 19 
3 478 21 20 
3 438 439 478 
3 403 439 438 
3 403 404 439 
3 368 369 403 
3 367 297 368 
3 297 298 368 
3 298 369 368 
3 298 334 369 
3 262 263 298 
3 227 228 262 
3 193 228 227 
3 193 194 228 
3 192 158 193 
3 158 159 193 
3 124 159 158 
3 124 125 159 
3 123 88 124 
3 88 89 124 
3 87 53 88 
3 53 54 88 
3 52 20 53 
3 20 21 53 
3 21 54 53 
3 21 491 54 
3 478 479 21 
3 439 440 478 
3 404 440 439 
3 404 405 440 
3 403 369 404 
3 369 405 404 
3 369 370 405 
3 334 370 369 
3 334 371 370 
3 298 263 334 
3 263 264 334 
3 262 228 263 
3 228 229 263 
3 194 229 228 
3 194 195 229 
3 193 159 194 
3 159 160 194 
3 125 160 159 
3 125 161 160 
3 124 89 125 
3 89 126 125 
3 88 54 89 
3 54 55 89 
3 491 55 54 
3 491 56 55 
3 21 23 491 
3 479 480 21 
3 478 440 479 
3 440 480 479 
3 440 441 480 
3 405 441 440 
3 405 406 441 
3 370 406 405 
3 370 371 406 
3 371 372 406 
3 334 335 371 
3 264 265 334 
3 263 229 264 
3 229 265 264 
3 229 230 265 
3 195 230 229 
3 195 196 230 
3 194 160 195 
3 160 161 195 
3 161 196 195 
3 161 162 196 
3 125 126 161 
3 126 127 161 
3 89 90 126 
3 55 91 89 
3 56 91 55 
3 56 92 91 
3 491 57 56 
3 23 24 491 
3 21 22 23 
3 480 22 21 
3 480 481 22 
3 441 442 480 
3 406 442 441 
3 406 407 442 
3 372 407 406 
3 372 373 407 
3 371 301 372 
3 335 301 371 
3 335 265 301 
3 265 335 334 
3 230 231 265 
3 196 231 230 
3 196 232 231 
3 162 197 196 
3 161 127 162 
3 127 128 162 
3 126 90 127 
3 90 91 127 
3 91 90 89 
3 92 127 91 
3 92 128 127 
3 92 93 128 
3 56 57 92 
3 57 58 92 
3 491 492 57 
3 24 492 491 
3 24 25 492 
3 23 482 24 
3 22 482 23 
3 22 481 482 
3 481 442 482 
3 442 481 480 
3 373 408 407 
3 372 302 373 
3 301 302 372 
3 301 267 302 
3 265 266 301 
3 231 266 265 
3 231 232 266 
3 232 267 266 
3 196 197 232 
3 197 233 232 
3 162 163 197 
3 128 163 162 
3 128 129 163 
3 93 129 128 
3 93 94 129 
3 92 58 93 
3 58 59 93 
3 57 493 58 
3 492 493 57 
3 492 25 493 
3 25 26 493 
3 24 483 25 
3 482 483 24 
3 482 443 483 
3 442 443 482 
3 373 409 408 
3 302 303 373 
3 267 303 302 
3 267 268 303 
3 301 266 267 
3 232 233 267 
3 233 268 267 
3 233 234 268 
3 197 198 233 
3 163 198 197 
3 163 164 198 
3 129 164 163 
3 129 165 164 
3 94 130 129 
3 93 59 94 
3 59 60 94 
3 58 493 59 
3 493 494 59 
3 26 494 493 
3 26 27 494 
3 25 485 26 
3 483 484 25 
3 443 484 483 
3 443 444 484 
3 409 444 408 
3 373 374 409 
3 303 374 373 
3 303 304 374 
3 268 304 303 
3 268 269 304 
3 234 269 268 
3 234 235 269 
3 233 199 234 
3 198 199 233 
3 198 164 199 
3 164 165 199 
3 165 200 199 
3 129 130 165 
3 130 131 165 
3 94 131 130 
3 94 95 131 
3 60 96 94 
3 59 495 60 
3 494 495 59 
3 494 27 495 
3 27 489 495 
3 26 486 27 
3 485 486 26 
3 485 445 486 
3 25 484 485 
3 444 485 484 
3 444 445 485 
3 444 443 408 
3 409 445 444 
3 409 410 445 
3 374 410 409 
3 374 375 410 
3 304 375 374 
3 304 305 375 
3 269 305 304 
3 269 270 305 
3 235 270 269 
3 235 236 270 
3 234 199 235 
3 199 200 235 
3 200 201 235 
3 165 166 200 
3 131 166 165 
3 131 132 166 
3 95 96 131 
3 96 95 94 
3 60 61 96 
3 495 496 60 
3 489 496 495 
3 489 497 496 
3 27 28 489 
3 486 487 27 
3 445 446 486 
3 410 446 445 
3 410 411 446 
3 375 376 410 
3 305 376 375 
3 305 306 376 
3 270 306 305 
3 270 271 306 
3 236 271 270 
3 236 272 271 
3 235 201 236 
3 201 237 236 
3 200 166 201 
3 166 167 201 
3 132 167 166 
3 132 168 167 
3 131 96 132 
3 96 97 132 
3 61 97 96 
3 61 62 97 
3 60 496 61 
3 496 497 61 
3 497 62 61 
3 497 498 62 
3 489 30 497 
3 28 29 489 
3 27 488 28 
3 487 488 27 
3 487 448 488 
3 411 412 446 
3 410 376 411 
3 376 377 411 
3 306 377 376 
3 306 342 377 
3 271 342 306 
3 271 272 342 
3 272 308 342 
3 236 237 272 
3 237 238 272 
3 201 202 237 
3 167 202 201 
3 167 168 202 
3 168 203 202 
3 132 133 168 
3 97 133 132 
3 97 134 133 
3 62 98 97 
3 498 63 62 
3 497 31 498 
3 30 31 497 
3 30 489 31 
3 29 31 489 
3 29 449 31 
3 28 488 29 
3 488 448 29 
3 448 449 29 
3 448 414 449 
3 412 447 446 
3 411 377 412 
3 377 378 412 
3 342 378 377 
3 342 308 378 
3 308 379 378 
3 272 273 308 
3 238 273 272 
3 238 239 273 
3 237 203 238 
3 203 237 202 
3 168 169 203 
3 133 134 168 
3 134 169 168 
3 134 135 169 
3 97 98 134 
3 98 135 134 
3 98 99 135 
3 62 63 98 
3 63 99 98 
3 63 64 99 
3 498 64 63 
3 498 499 64 
3 31 499 498 
3 31 32 499 
3 449 450 31 
3 414 415 449 
3 448 413 414 
3 412 413 447 
3 308 309 379 
3 273 309 308 
3 273 274 309 
3 239 274 273 
3 239 240 274 
3 238 203 239 
3 203 204 239 
3 169 204 203 
3 169 170 204 
3 135 136 169 
3 99 136 135 
3 99 100 136 
3 64 100 99 
3 64 65 100 
3 499 501 64 
3 32 501 499 
3 32 33 501 
3 31 450 32 
3 450 451 32 
3 449 415 450 
3 415 416 450 
3 414 380 415 
3 413 379 414 
3 448 447 413 
3 412 378 413 
3 309 380 379 
3 274 310 309 
3 240 275 274 
3 239 204 240 
3 204 205 240 
3 170 205 204 
3 170 206 205 
3 169 136 170 
3 136 171 170 
3 100 137 136 
3 65 101 100 
3 64 501 65 
3 501 502 65 
3 33 453 501 
3 451 33 32 
3 451 34 33 
3 450 416 451 
3 416 417 451 
3 415 381 416 
3 380 381 415 
3 380 309 381 
3 309 310 381 
3 310 311 381 
3 379 380 414 
3 413 378 379 
3 274 275 310 
3 275 311 310 
3 275 276 311 
3 240 241 275 
3 205 206 240 
3 206 241 240 
3 206 207 241 
3 170 171 206 
3 171 172 206 
3 136 137 171 
3 137 172 171 
3 137 138 172 
3 100 101 137 
3 101 102 137 
3 65 66 101 
3 502 66 65 
3 502 503 66 
3 501 453 502 
3 453 454 502 
3 33 454 453 
3 34 454 33 
3 34 419 454 
3 451 417 34 
3 417 418 34 
3 416 382 417 
3 381 382 416 
3 381 311 382 
3 311 383 382 
3 276 312 311 
3 275 241 276 
3 241 242 276 
3 207 242 241 
3 207 243 242 
3 206 172 207 
3 172 208 207 
3 138 173 172 
3 137 102 138 
3 102 139 138 
3 101 66 102 
3 66 67 102 
3 503 67 66 
3 503 504 67 
3 502 454 503 
3 454 419 503 
3 419 504 503 
3 419 384 504 
3 34 418 419 
3 418 384 419 
3 418 383 384 
3 383 417 382 
3 383 418 417 
3 311 312 383 
3 312 348 383 
3 276 277 312 
3 242 277 276 
3 242 243 277 
3 243 278 277 
3 207 208 243 
3 208 209 243 
3 172 173 208 
3 173 174 208 
3 138 174 173 
3 138 139 174 
3 139 104 174 
3 102 103 139 
3 67 68 102 
3 504 68 67 
3 504 349 68 
3 384 349 504 
3 384 348 349 
3 348 384 383 
3 312 277 348 
3 277 278 348 
3 278 349 348 
3 278 279 349 
3 243 244 278 
3 209 244 243 
3 209 104 244 
3 208 174 209 
3 104 209 174 
3 139 103 104 
3 103 68 104 
3 68 103 102 
3 349 69 68 
3 278 244 279 
3 244 104 279 
3 104 69 279 
3 69 104 68 
3 349 279 69 
3 408 443 442 
3 408 442 407 
3 447 448 487 
3 486 446 447 
3 486 447 487 
