ply
format ascii 1.0
comment VCGLIB generated
element vertex 335
property float x
property float y
property float z
element face 645
property list uchar int vertex_indices
end_header
-26.0335 19.296 66.4207 
-26.0932 18.3921 66.1256 
-26.0457 17.5027 65.8577 
-26.2565 16.4482 65.3681 
-26.1761 15.5916 65.1681 
-26.3468 14.6369 65.0207 
-26.593 13.6374 64.6413 
-26.9062 12.7094 64.5704 
-26.8134 11.9516 64.4845 
-26.7497 11.0606 64.6059 
-26.8134 10.2419 64.4845 
-26.7324 9.18826 64.2898 
-26.8161 8.44018 64.218 
-26.9198 7.52936 64.1946 
-26.8972 6.58713 64.4122 
-26.7815 5.97324 64.5451 
-26.6688 4.99306 64.4105 
-26.4525 4.01842 64.2998 
-26.4126 3.21798 64.2029 
-26.1652 2.19492 64.1529 
-25.9769 1.40323 64.2479 
-26.1133 0.72092 64.1645 
-25.8596 -0.300824 64.3802 
-25.612 -1.09654 64.3298 
-25.2603 -2.17585 64.303 
-26.4326 19.7556 66.7015 
-26.6914 18.5869 66.1971 
-26.8336 17.5447 65.9201 
-27.0345 16.5059 65.4238 
-27.3045 15.2729 65.1066 
-27.3803 14.384 65.1677 
-27.6262 13.182 64.6861 
-27.9073 12.2996 64.7606 
-28.0659 11.2162 64.5519 
-28.0436 10.2951 64.3866 
-27.9948 9.23794 64.2745 
-28.2028 8.12355 64.0724 
-28.1234 7.35215 64.2291 
-28.0192 6.27404 64.3305 
-28.0724 5.37368 64.2256 
-28.5838 4.28087 64.1524 
-28.6359 3.33692 64.0481 
-28.5576 2.50467 64.2047 
-28.4833 1.46271 64.0377 
-28.3685 0.483012 64.9029 
-28.2349 -0.518588 65.1714 
-28.046 -1.53105 65.551 
-27.9396 -2.39293 65.6566 
-27.9197 -3.48998 65.3732 
-28.1982 -4.42392 65.7882 
-28.1619 5.25405 64.3332 
-27.6776 4.20619 63.904 
-27.5848 3.05685 63.6329 
-27.4531 2.10441 63.8414 
-27.14 1.06823 63.8596 
-26.9206 0.081566 64.4573 
-26.6838 -0.943968 64.7289 
-26.6652 -2.03374 65.1729 
-26.7531 -3.06518 65.1414 
-26.9683 -4.10132 65.6037 
-26.857 19.6537 66.9002 
-27.0552 18.5176 66.5784 
-27.3307 17.3308 66.0258 
-27.6159 16.2372 65.8257 
-27.9051 15.252 65.5639 
-28.0963 14.1995 65.7234 
-28.5045 13.1083 65.7883 
-28.8065 12.2565 65.8684 
-28.8734 11.1657 65.7023 
-28.7513 10.2009 65.908 
-28.7318 9.09908 65.5676 
-29.0401 7.96251 64.9993 
-29.0401 7.0262 64.9993 
-28.9313 5.99084 65.0759 
-29.2455 5.19859 64.9701 
-29.2455 4.20907 64.9701 
-29.364 3.20771 64.771 
-29.6924 2.11544 65.0588 
-29.7106 1.24478 65.4548 
-29.6029 0.142385 65.5323 
-29.3864 -0.799225 65.6884 
-29.0587 -1.75072 65.9245 
-29.0644 -2.75196 65.8611 
-29.4086 -3.69799 66.0283 
-29.139 -4.86673 66.7669 
-26.6163 19.6745 66.893 
-27.2568 18.6551 66.66 
-27.2992 17.5975 66.7701 
-27.6462 16.5157 66.7368 
-27.9803 15.2851 66.8632 
-28.0529 14.4551 66.8674 
-28.4022 13.385 66.6757 
-28.6378 12.422 66.7427 
-29.0015 11.3154 66.6071 
-29.1012 10.3766 66.5086 
-28.7771 9.38323 66.3831 
-28.9394 8.44651 66.446 
-29.2993 7.42568 66.3128 
-29.3199 6.74115 66.3662 
-29.5086 5.52591 66.3266 
-29.5655 4.66266 66.1232 
-29.5655 3.69741 66.1232 
-29.7039 2.726 66.1328 
-29.9385 1.58447 66.0461 
-30.0755 0.904198 66.0557 
-29.9793 0.003551 66.1518 
-30.5442 -1.06551 66.2418 
-30.2251 -2.13765 66.2713 
-30.3815 -2.86537 66.3332 
-30.0812 -3.94892 66.416 
-26.7434 19.8426 67.9297 
-26.9624 18.8059 67.9391 
-27.3596 17.5709 68.0682 
-27.7912 16.4797 67.8634 
-27.6835 15.6015 67.9701 
-28.1455 14.5875 67.8792 
-28.3556 13.4886 68.1095 
-28.8439 12.4423 68.1298 
-28.8959 11.3629 68.077 
-28.9306 10.5093 67.9688 
-29.2229 9.39602 67.818 
-29.2913 8.49483 67.8212 
-29.5125 7.51581 67.6687 
-29.3596 6.59268 67.8243 
-29.5296 5.4613 67.7237 
-29.4787 4.52208 67.7755 
-29.4954 3.57238 67.6137 
-29.3593 2.74543 67.607 
-29.4445 1.68643 67.6654 
-29.6145 0.794696 67.7818 
-29.8172 -0.205177 67.7913 
-30.1185 -1.19836 67.6978 
-30.201 -2.18661 67.5409 
-30.2166 -3.17329 67.3812 
-29.8308 -4.39359 66.9854 
-26.9788 19.0393 68.2083 
-27.0882 18.3592 68.0758 
-27.3578 17.168 68.4485 
-27.8038 15.9346 68.5983 
-28.0481 14.9552 68.4978 
-28.1161 14.0499 68.5129 
-28.4185 12.9843 68.6311 
-28.5844 11.952 68.7188 
-28.7181 11.0461 68.7483 
-28.847 9.96911 68.8783 
-28.9752 9.1174 69.0075 
-28.878 8.201 68.9357 
-29.1684 7.16907 69.1502 
-29.0322 6.24656 69.2215 
-28.8426 5.17864 68.9786 
-28.9707 4.23115 69.1075 
-28.7138 3.26581 68.8491 
-28.7138 2.49433 68.8491 
-28.9178 1.44342 68.7923 
-29.2482 0.393745 68.8652 
-29.4196 -0.537036 68.7515 
-29.5654 -1.46752 68.4804 
-29.9316 -2.60949 68.4118 
-29.8028 -3.61518 67.719 
-29.9959 -4.39448 67.1988 
-26.6514 19.5365 68.4867 
-26.7736 18.5024 68.7008 
-26.831 17.4908 68.8998 
-27.1195 16.4163 68.9147 
-27.5829 15.3703 69.2439 
-27.6415 14.2927 69.348 
-27.8282 13.4057 69.387 
-28.1044 12.2527 69.4902 
-28.4394 11.1984 69.6053 
-28.4348 10.0028 69.6948 
-28.463 9.30269 69.7458 
-28.4912 8.30763 69.7967 
-28.5474 7.25848 69.8982 
-28.5754 6.31674 69.9489 
-28.5285 5.30173 69.669 
-28.5285 4.46215 69.669 
-28.0588 3.49237 69.7986 
-28.2143 2.34636 69.7851 
-28.3649 1.44986 69.861 
-28.5239 0.510314 69.7583 
-28.453 -0.525612 69.3359 
-28.8044 -1.36711 69.0924 
-28.8005 -2.56418 68.5882 
-28.947 -3.56534 68.1601 
-29.315 -4.51401 67.6427 
-25.9443 19.6421 68.6945 
-25.9737 18.6145 68.8072 
-26.1022 17.4579 69.1949 
-26.1354 16.2802 69.5332 
-26.1682 15.32 69.8679 
-26.3142 14.2784 69.9053 
-26.5832 13.1037 70.3163 
-26.5186 12.1263 70.3799 
-26.7299 11.0665 70.5727 
-26.782 10.1535 70.566 
-27.0158 9.15399 70.4259 
-27.0817 8.31841 70.582 
-27.2897 7.15227 70.5551 
-27.4198 6.25184 70.4286 
-27.3938 5.34952 70.322 
-27.2238 4.24543 70.1783 
-27.2897 3.40635 70.5551 
-27.1851 2.35369 70.349 
-27.2109 1.341 70.2353 
-27.5117 0.376455 70.0302 
-27.5906 -0.439231 69.9088 
-27.8561 -1.5693 69.4257 
-27.8748 -2.41212 68.6806 
-28.0958 -3.63909 67.9519 
-28.1694 -4.66915 67.4074 
-25.6976 19.662 68.6189 
-25.6909 18.5663 68.8025 
-25.55 17.2126 69.0774 
-25.5664 16.565 69.142 
-25.4762 15.6397 69.6051 
-25.3217 14.2176 69.8094 
-25.3161 13.3846 69.9862 
-25.3979 12.1944 70.2991 
-25.7186 11.2054 70.5463 
-25.7504 10.2871 70.6699 
-25.6577 9.21296 70.7072 
-25.9519 8.27794 70.6569 
-25.9676 7.1488 70.7185 
-25.8976 6.4265 70.6447 
-26.0915 5.38845 70.3956 
-26.0444 4.5008 70.2083 
-25.9822 3.4157 70.3712 
-25.8571 2.68599 70.2844 
-25.8801 1.61836 70.1716 
-25.9727 0.667275 69.7161 
-26.0195 -0.413679 69.4858 
-26.0016 -1.45378 68.5627 
-26.2513 -2.39623 68.0544 
-26.6132 -3.60249 67.303 
-27.17 -4.85221 66.3736 
-25.4821 19.8539 67.9638 
-25.4525 19.0647 68.0893 
-25.1887 17.7839 68.4343 
-25.0946 16.8758 68.643 
-24.9367 15.7483 68.9344 
-24.9086 14.7833 69.0559 
-24.6805 13.7751 69.2683 
-24.4816 12.752 69.359 
-24.5448 11.7474 69.2763 
-24.5625 10.824 69.5902 
-24.4726 9.76443 69.7906 
-24.4815 8.87255 69.9458 
-24.5936 7.82704 69.8426 
-24.7781 6.92116 69.8134 
-24.7559 6.05089 69.7168 
-24.8195 5.13424 69.6349 
-24.6754 4.06138 69.4857 
-24.6856 3.25222 69.0497 
-24.6356 2.31638 69.0727 
-24.618 1.34197 68.7546 
-24.7237 0.261816 68.4861 
-25.0257 -0.629137 67.9562 
-25.1492 -1.63405 67.6172 
-25.5727 -2.61709 66.7864 
-26.0783 -3.7898 65.8377 
-25.6943 19.9443 67.3184 
-25.2862 18.9083 67.3054 
-25.2579 17.8805 67.3568 
-25.01 16.9288 67.5575 
-24.8899 16.043 68.0244 
-24.6533 14.9392 68.3291 
-24.7024 14.0553 68.4894 
-24.3791 13.0297 68.5783 
-24.3791 12.0643 68.5783 
-24.3309 10.9642 68.4185 
-24.4738 10.2586 68.5306 
-24.1411 9.10454 68.1484 
-24.2168 8.16183 68.2561 
-24.1509 7.13662 68.2531 
-24.2547 6.13322 68.3102 
-24.4073 5.42045 68.5272 
-24.3791 4.39792 68.5783 
-24.1328 3.52592 68.4088 
-23.9445 2.2688 68.1395 
-24.3469 1.3209 67.8971 
-24.1757 0.579582 67.476 
-24.6319 -0.318745 66.7683 
-24.9427 -1.27749 66.5695 
-25.2232 -2.40775 66.06 
-25.7681 -3.26022 65.1925 
-26.0985 19.7006 66.5785 
-25.7256 18.6761 66.5707 
-25.5777 17.6751 66.6165 
-25.3213 16.691 67.0022 
-25.4324 16.1462 67.1528 
-25.2851 15.0428 67.1975 
-24.7981 13.9429 67.4271 
-25.1025 13.1218 67.6838 
-24.7739 11.9693 67.4753 
-24.7981 11.2762 67.4271 
-24.9315 10.2199 67.2847 
-24.762 9.33026 67.1329 
-24.714 8.2508 66.9855 
-24.582 7.53866 66.885 
-24.8829 6.49929 66.65 
-24.8106 5.58538 66.5515 
-24.7986 4.67944 66.4546 
-24.9793 3.78328 66.2164 
-24.9432 2.77856 66.409 
-24.6549 2.0212 66.2593 
-24.6078 0.801942 65.8753 
-24.823 0.065499 65.4476 
-24.8589 -0.723728 65.0201 
-24.8471 -1.87356 64.4539 
-25.444 -2.66855 63.9753 
-26.1802 19.2789 66.0748 
-25.9738 18.2274 66.2098 
-25.9115 17.3016 66.2088 
-25.7252 16.4471 66.2059 
-25.8927 15.7479 66.3464 
-25.8199 14.8467 66.5753 
-25.9634 14.0044 66.4399 
-25.901 13.1822 66.4387 
-26.187 12.3306 66.4904 
-25.8845 11.4957 66.2543 
-26.126 10.4679 66.1661 
-26.3775 9.64509 66.1699 
-26.0569 8.7106 65.7522 
-26.2986 7.9792 65.6626 
-26.3085 7.00733 65.4338 
-26.3627 6.20043 65.3426 
-26.2205 5.32181 65.16 
-26.2914 4.4746 65.2511 
-26.0523 3.69607 65.024 
-26.0625 2.7881 64.7979 
-25.661 1.96427 64.4417 
-25.7221 1.17105 64.4411 
-25.2736 0.41585 64.1798 
-25.3637 -0.619626 63.825 
-25.3331 -1.70008 63.474 
3 0 310 285 
3 285 260 0 
3 310 25 285 
3 0 286 310 
3 260 261 0 
3 285 25 260 
3 25 110 260 
3 310 60 25 
3 286 1 310 
3 0 261 286 
3 261 262 286 
3 260 235 261 
3 110 235 260 
3 110 185 235 
3 25 60 110 
3 60 135 110 
3 310 26 60 
3 1 26 310 
3 1 27 26 
3 286 287 1 
3 262 287 286 
3 262 263 287 
3 261 237 262 
3 235 236 261 
3 185 236 235 
3 185 211 236 
3 110 160 185 
3 135 160 110 
3 135 161 160 
3 60 111 135 
3 26 86 60 
3 27 62 26 
3 1 2 27 
3 287 2 1 
3 287 312 2 
3 263 288 287 
3 262 237 263 
3 237 238 263 
3 261 236 237 
3 236 211 237 
3 211 212 237 
3 185 161 211 
3 161 185 160 
3 135 136 161 
3 111 136 135 
3 111 86 136 
3 86 111 60 
3 26 62 86 
3 62 87 86 
3 27 28 62 
3 2 3 27 
3 312 313 2 
3 287 313 312 
3 287 288 313 
3 288 289 313 
3 263 264 288 
3 238 264 263 
3 238 239 264 
3 237 212 238 
3 212 213 238 
3 211 187 212 
3 161 187 211 
3 161 162 187 
3 136 112 161 
3 86 112 136 
3 86 87 112 
3 87 113 112 
3 62 88 87 
3 28 63 62 
3 27 3 28 
3 3 4 28 
3 2 313 3 
3 313 4 3 
3 313 314 4 
3 289 314 313 
3 289 290 314 
3 288 264 289 
3 264 290 289 
3 264 265 290 
3 239 265 264 
3 239 240 265 
3 238 213 239 
3 213 214 239 
3 212 188 213 
3 187 188 212 
3 187 162 188 
3 162 163 188 
3 161 137 162 
3 112 137 161 
3 112 113 137 
3 113 138 137 
3 87 88 113 
3 88 89 113 
3 62 63 88 
3 63 89 88 
3 63 64 89 
3 28 29 63 
3 4 29 28 
3 4 5 29 
3 314 315 4 
3 290 315 314 
3 290 291 315 
3 265 291 290 
3 265 266 291 
3 240 241 265 
3 239 214 240 
3 214 215 240 
3 213 188 214 
3 188 189 214 
3 163 164 188 
3 162 137 163 
3 137 138 163 
3 138 164 163 
3 138 139 164 
3 113 114 138 
3 89 114 113 
3 89 115 114 
3 64 65 89 
3 63 29 64 
3 29 30 64 
3 5 30 29 
3 5 6 30 
3 4 315 5 
3 315 316 5 
3 291 316 315 
3 291 317 316 
3 266 267 291 
3 265 241 266 
3 241 267 266 
3 241 242 267 
3 240 215 241 
3 215 216 241 
3 214 189 215 
3 189 190 215 
3 188 164 189 
3 164 190 189 
3 164 165 190 
3 139 165 164 
3 139 140 165 
3 138 114 139 
3 114 115 139 
3 115 140 139 
3 115 116 140 
3 89 90 115 
3 65 90 89 
3 65 91 90 
3 64 30 65 
3 30 31 65 
3 6 31 30 
3 6 7 31 
3 5 316 6 
3 316 317 6 
3 317 7 6 
3 317 318 7 
3 291 292 317 
3 267 292 291 
3 267 293 292 
3 242 268 267 
3 241 216 242 
3 216 217 242 
3 215 190 216 
3 190 191 216 
3 165 191 190 
3 165 166 191 
3 140 166 165 
3 140 141 166 
3 116 141 140 
3 116 117 141 
3 115 91 116 
3 91 115 90 
3 65 66 91 
3 31 66 65 
3 31 32 66 
3 7 32 31 
3 7 8 32 
3 318 319 7 
3 292 293 317 
3 293 319 317 
3 267 268 293 
3 268 269 293 
3 242 243 268 
3 217 243 242 
3 217 244 243 
3 216 191 217 
3 191 192 217 
3 166 167 191 
3 141 167 166 
3 141 142 167 
3 117 142 141 
3 117 118 142 
3 116 91 117 
3 91 92 117 
3 66 92 91 
3 66 67 92 
3 32 67 66 
3 32 33 67 
3 8 33 32 
3 8 9 33 
3 319 8 7 
3 319 9 8 
3 319 320 9 
3 319 318 317 
3 293 294 319 
3 269 294 293 
3 269 295 294 
3 268 243 269 
3 243 244 269 
3 244 270 269 
3 217 218 244 
3 192 218 217 
3 192 193 218 
3 191 167 192 
3 167 193 192 
3 167 168 193 
3 142 168 167 
3 142 143 168 
3 118 143 142 
3 118 119 143 
3 117 93 118 
3 92 93 117 
3 92 67 93 
3 67 68 93 
3 33 68 67 
3 33 34 68 
3 9 34 33 
3 9 10 34 
3 320 10 9 
3 320 322 10 
3 319 295 320 
3 295 319 294 
3 269 270 295 
3 270 271 295 
3 244 245 270 
3 218 219 244 
3 193 219 218 
3 193 194 219 
3 168 169 193 
3 143 144 168 
3 119 144 143 
3 119 120 144 
3 118 93 119 
3 93 94 119 
3 68 94 93 
3 68 69 94 
3 34 69 68 
3 34 70 69 
3 10 35 34 
3 322 11 10 
3 320 296 322 
3 295 296 320 
3 295 271 296 
3 271 297 296 
3 270 245 271 
3 245 246 271 
3 244 219 245 
3 219 220 245 
3 194 220 219 
3 194 195 220 
3 193 169 194 
3 169 195 194 
3 169 170 195 
3 168 144 169 
3 144 145 169 
3 120 145 144 
3 120 121 145 
3 119 94 120 
3 94 95 120 
3 69 70 94 
3 70 95 94 
3 70 96 95 
3 34 35 70 
3 35 71 70 
3 10 11 35 
3 11 12 35 
3 322 12 11 
3 322 323 12 
3 296 297 322 
3 297 298 322 
3 271 272 297 
3 246 272 271 
3 246 247 272 
3 245 220 246 
3 220 221 246 
3 195 196 220 
3 170 196 195 
3 170 171 196 
3 169 145 170 
3 145 171 170 
3 145 146 171 
3 121 146 145 
3 121 122 146 
3 120 96 121 
3 96 120 95 
3 70 71 96 
3 71 97 96 
3 35 36 71 
3 12 36 35 
3 12 13 36 
3 323 13 12 
3 323 324 13 
3 322 298 323 
3 298 324 323 
3 298 299 324 
3 297 272 298 
3 272 273 298 
3 247 273 272 
3 247 248 273 
3 246 221 247 
3 221 222 247 
3 220 196 221 
3 196 222 221 
3 196 197 222 
3 171 197 196 
3 171 172 197 
3 146 147 171 
3 122 147 146 
3 122 123 147 
3 121 96 122 
3 96 97 122 
3 97 98 122 
3 71 72 97 
3 36 37 71 
3 13 37 36 
3 13 14 37 
3 324 14 13 
3 324 325 14 
3 299 325 324 
3 299 300 325 
3 298 273 299 
3 273 274 299 
3 248 274 273 
3 248 249 274 
3 247 222 248 
3 222 223 248 
3 197 223 222 
3 197 198 223 
3 172 173 197 
3 171 147 172 
3 147 173 172 
3 147 148 173 
3 123 148 147 
3 123 124 148 
3 122 98 123 
3 98 99 123 
3 97 72 98 
3 72 73 98 
3 71 37 72 
3 37 38 72 
3 14 38 37 
3 14 15 38 
3 325 15 14 
3 325 326 15 
3 300 326 325 
3 300 301 326 
3 299 274 300 
3 274 275 300 
3 249 275 274 
3 249 250 275 
3 248 223 249 
3 223 224 249 
3 198 224 223 
3 198 199 224 
3 197 173 198 
3 173 199 198 
3 173 174 199 
3 148 174 173 
3 148 149 174 
3 124 149 148 
3 124 125 149 
3 123 99 124 
3 99 100 124 
3 98 73 99 
3 73 74 99 
3 72 38 73 
3 38 39 73 
3 15 39 38 
3 15 16 39 
3 326 16 15 
3 326 17 16 
3 301 327 326 
3 300 275 301 
3 275 276 301 
3 250 276 275 
3 250 251 276 
3 249 224 250 
3 224 225 250 
3 199 200 224 
3 174 175 199 
3 149 150 174 
3 125 150 149 
3 125 126 150 
3 124 100 125 
3 100 126 125 
3 100 101 126 
3 99 74 100 
3 74 75 100 
3 73 39 74 
3 39 40 74 
3 16 51 39 
3 17 51 16 
3 17 52 51 
3 326 327 17 
3 327 328 17 
3 301 302 327 
3 276 277 301 
3 251 277 276 
3 251 252 277 
3 250 225 251 
3 225 226 251 
3 224 200 225 
3 200 201 225 
3 199 175 200 
3 175 201 200 
3 175 176 201 
3 174 150 175 
3 150 176 175 
3 150 151 176 
3 126 151 150 
3 126 127 151 
3 101 102 126 
3 100 75 101 
3 75 76 101 
3 74 40 75 
3 40 76 75 
3 40 41 76 
3 39 51 40 
3 51 41 40 
3 51 52 41 
3 52 42 41 
3 17 18 52 
3 328 18 17 
3 328 329 18 
3 327 302 328 
3 302 329 328 
3 302 303 329 
3 301 277 302 
3 277 303 302 
3 277 278 303 
3 252 253 277 
3 251 227 252 
3 226 227 251 
3 226 201 227 
3 201 226 225 
3 176 177 201 
3 151 177 176 
3 151 152 177 
3 127 152 151 
3 127 128 152 
3 126 102 127 
3 102 128 127 
3 102 103 128 
3 101 76 102 
3 76 77 102 
3 41 42 76 
3 42 77 76 
3 42 43 77 
3 52 53 42 
3 18 19 52 
3 329 330 18 
3 303 330 329 
3 303 304 330 
3 278 304 303 
3 278 279 304 
3 277 253 278 
3 253 254 278 
3 252 227 253 
3 227 228 253 
3 201 202 227 
3 177 202 201 
3 177 178 202 
3 152 178 177 
3 152 153 178 
3 128 153 152 
3 128 129 153 
3 103 104 128 
3 102 77 103 
3 77 78 103 
3 43 78 77 
3 43 79 78 
3 42 53 43 
3 53 54 43 
3 52 19 53 
3 19 54 53 
3 19 20 54 
3 18 330 19 
3 330 20 19 
3 330 332 20 
3 304 305 330 
3 279 280 304 
3 278 254 279 
3 254 255 279 
3 253 228 254 
3 228 229 254 
3 227 202 228 
3 202 203 228 
3 178 203 202 
3 178 204 203 
3 153 154 178 
3 129 154 153 
3 129 130 154 
3 128 104 129 
3 104 130 129 
3 104 105 130 
3 103 78 104 
3 78 79 104 
3 79 105 104 
3 79 106 105 
3 43 44 79 
3 54 44 43 
3 54 55 44 
3 20 21 54 
3 332 21 20 
3 332 333 21 
3 305 331 330 
3 304 280 305 
3 280 281 305 
3 279 255 280 
3 255 256 280 
3 254 229 255 
3 229 230 255 
3 228 203 229 
3 203 204 229 
3 204 230 229 
3 204 205 230 
3 178 179 204 
3 154 179 178 
3 154 155 179 
3 130 155 154 
3 130 131 155 
3 105 106 130 
3 106 131 130 
3 106 132 131 
3 79 80 106 
3 44 45 79 
3 55 45 44 
3 55 56 45 
3 54 21 55 
3 21 333 55 
3 333 56 55 
3 333 334 56 
3 332 307 333 
3 305 332 331 
3 281 306 305 
3 280 256 281 
3 256 257 281 
3 255 230 256 
3 230 231 256 
3 205 206 230 
3 204 179 205 
3 179 180 205 
3 155 180 179 
3 155 181 180 
3 131 156 155 
3 132 157 131 
3 106 107 132 
3 80 107 106 
3 80 81 107 
3 79 45 80 
3 45 46 80 
3 56 46 45 
3 56 57 46 
3 334 57 56 
3 334 309 57 
3 307 308 333 
3 332 306 307 
3 281 307 306 
3 281 282 307 
3 257 282 281 
3 257 283 282 
3 256 231 257 
3 231 232 257 
3 230 206 231 
3 206 207 231 
3 205 180 206 
3 180 181 206 
3 181 182 206 
3 155 156 181 
3 156 157 181 
3 157 156 131 
3 132 133 157 
3 107 108 132 
3 81 82 107 
3 80 46 81 
3 46 82 81 
3 46 47 82 
3 57 47 46 
3 57 58 47 
3 309 58 57 
3 309 284 58 
3 308 334 333 
3 308 309 334 
3 307 282 308 
3 282 283 308 
3 283 284 308 
3 332 305 306 
3 257 258 283 
3 232 258 257 
3 232 233 258 
3 231 207 232 
3 207 208 232 
3 206 182 207 
3 182 183 207 
3 181 157 182 
3 157 183 182 
3 157 158 183 
3 133 158 157 
3 133 159 158 
3 132 108 133 
3 108 109 133 
3 107 82 108 
3 82 83 108 
3 47 48 82 
3 58 48 47 
3 58 59 48 
3 284 59 58 
3 284 259 59 
3 309 24 284 
3 284 24 308 
3 24 309 308 
3 283 259 284 
3 283 258 259 
3 258 233 259 
3 233 234 259 
3 232 208 233 
3 208 209 233 
3 207 183 208 
3 183 209 208 
3 183 184 209 
3 158 184 183 
3 158 159 184 
3 159 84 184 
3 133 109 159 
3 109 84 159 
3 109 83 84 
3 83 109 108 
3 82 48 83 
3 48 49 83 
3 59 49 48 
3 59 234 49 
3 234 59 259 
3 233 209 234 
3 209 84 234 
3 84 209 184 
3 83 49 84 
3 49 234 84 
