ply
format ascii 1.0
comment VCGLIB generated
element vertex 685
property float x
property float y
property float z
element face 1291
property list uchar int vertex_indices
end_header
-27.2926 7.49101 63.0291 
-27.3716 6.97004 62.7599 
-27.443 6.43464 62.6253 
-27.6248 5.93684 62.5213 
-27.6713 5.38751 62.553 
-27.8059 4.79228 62.4176 
-27.9135 4.31259 62.5135 
-27.896 3.76261 62.547 
-27.8494 3.2087 62.5152 
-27.8379 2.71734 62.4167 
-27.7738 2.16626 62.4184 
-27.7274 1.6467 62.3868 
-27.5993 1.09589 62.3903 
-27.5529 0.544705 62.3587 
-27.4712 0.058893 62.3937 
-27.4249 -0.491793 62.3621 
-27.2506 -1.0096 62.334 
-27.0445 -1.52696 62.3067 
-26.8165 -2.04712 62.3785 
-26.5747 -2.64172 62.6488 
-26.4369 -3.16925 62.7852 
-26.2938 -3.67031 62.9893 
-26.2749 -4.27744 63.2587 
-26.2509 -4.82897 63.5987 
-26.3816 -5.27794 63.8349 
-28.4865 5.54409 63.1196 
-28.6305 5.09309 63.1016 
-28.7672 4.61612 63.1142 
-28.8576 4.22125 62.9609 
-28.9406 3.65441 62.8387 
-29.045 3.24205 62.8671 
-29.1056 2.82034 62.596 
-28.8977 2.38546 62.5391 
-28.8316 1.94655 62.4653 
-28.7274 1.48015 62.4368 
-28.6336 1.04338 62.4829 
-28.6614 0.603258 62.363 
-28.8483 0.164486 62.2714 
-28.9413 -0.272102 62.2258 
-28.9723 -0.708079 62.2107 
-28.9374 -1.17231 62.1222 
-28.7923 -1.60837 62.0349 
-28.5468 -2.10663 62.0223 
-28.3559 -2.51817 62.0092 
-28.2274 -2.98658 61.9658 
-27.9533 -3.47127 62.1768 
-27.985 -3.82143 62.1616 
-27.8189 -4.30273 62.2681 
-27.5256 -4.86152 62.5431 
-27.4158 -5.41386 62.7573 
-30.2542 1.95091 63.2819 
-30.2725 1.53166 63.1037 
-30.2281 1.23768 62.8823 
-30.2694 0.84485 62.7969 
-30.2939 0.473382 62.6772 
-30.265 0.103565 62.7024 
-30.2439 -0.327436 62.5737 
-30.194 -0.654574 62.4705 
-30.1709 -1.03937 62.2116 
-30.1296 -1.38419 62.1266 
-30.105 -1.74936 62.0757 
-30.0865 -2.1158 62.0796 
-29.9983 -2.47989 62.0235 
-29.8875 -2.80628 62.0467 
-29.781 -3.27136 61.9945 
-29.6748 -3.59352 61.9424 
-29.5882 -3.9841 62.0162 
-29.5303 -4.37386 62.0656 
-29.3562 -4.73106 62.2141 
-29.1602 -5.28868 62.5373 
-29.3797 11.7376 66.5245 
-29.9712 11.1245 65.6771 
-30.396 10.6088 65.5934 
-30.6063 10.1136 65.1376 
-30.8142 9.52312 64.7694 
-31.1519 8.93365 64.3651 
-31.262 8.52314 64.125 
-31.3155 8.04552 63.9263 
-31.4617 7.52872 63.6894 
-31.6068 6.94107 63.4542 
-31.6603 6.55575 63.3373 
-31.772 6.14594 63.3373 
-31.921 5.62438 63.3372 
-31.8642 5.09969 63.2984 
-31.9563 4.65006 63.2595 
-32.0875 4.1689 63.2982 
-32.009 3.7873 63.1433 
-32.007 3.30044 63.0661 
-32.0986 2.85356 63.0275 
-32.175 2.37452 63.1046 
-32.0615 1.96383 63.0275 
-32.0049 1.48099 62.9891 
-31.8706 1.07018 62.7974 
-31.8531 0.627328 62.8357 
-31.8881 0.183595 62.7592 
-31.8475 -0.332394 62.6069 
-31.7722 -0.73657 62.531 
-31.7512 -1.24922 62.4175 
-31.8072 -1.72753 62.4553 
-31.8054 -2.27581 62.3797 
-31.7529 -2.72103 62.4931 
-31.767 -3.15258 62.3044 
-31.697 -3.5643 62.4553 
-31.6427 -4.15458 62.4932 
-31.4672 -4.59231 62.9509 
-30.7993 10.885 65.9596 
-31.2589 10.3042 65.4692 
-31.5692 9.812 65.219 
-31.9996 9.20438 64.6388 
-32.4285 8.64665 64.4014 
-32.5202 8.26978 64.2391 
-32.6748 7.85565 64.0798 
-32.7234 7.31754 63.9792 
-32.9329 6.94392 63.8642 
-33.0652 6.37573 63.8282 
-33.2444 6.00716 63.6931 
-33.2852 5.48104 63.6342 
-33.4566 5.05122 63.5402 
-33.5589 4.59468 63.484 
-33.5868 4.21578 63.5051 
-33.5745 3.73785 63.5846 
-33.6086 3.25308 63.5659 
-33.667 2.83109 63.3885 
-33.5372 2.38833 63.4233 
-33.4598 2.04271 63.3206 
-33.5341 1.52389 63.244 
-33.5001 1.11233 63.2625 
-33.5587 0.69777 63.0865 
-33.648 0.183591 63.11 
-33.6358 -0.227658 63.1887 
-33.5803 -0.570564 63.1468 
-33.497 -1.05059 63.084 
-33.4539 -1.42613 62.9637 
-33.3583 -1.94198 62.9793 
-33.275 -2.35332 62.9165 
-33.275 -2.79903 62.9165 
-33.1727 -3.21584 62.9715 
-33.07 -3.70288 63.0266 
-33.0357 -4.01476 63.045 
-32.6995 -4.81881 63.5522 
-31.9479 10.004 65.5182 
-32.4118 9.4656 65.1862 
-33.1281 8.79493 64.8297 
-33.373 8.30766 64.6926 
-33.5393 7.83333 64.5343 
-33.8398 7.24816 64.5882 
-33.9322 6.68572 64.4444 
-33.953 6.26959 64.314 
-34.1993 5.76639 64.2516 
-34.1993 5.35686 64.2516 
-34.2325 4.91028 64.2276 
-34.1951 4.29873 64.2164 
-34.3692 3.9121 64.1672 
-34.3404 3.36982 64.2262 
-34.4022 2.82164 64.1433 
-34.3649 2.51695 64.132 
-34.5094 1.8325 64.142 
-34.4723 1.42589 64.1308 
-34.6448 1.04948 64.082 
-34.7186 0.540993 64.1045 
-34.8572 -3.4e-005 64.0797 
-34.7837 -0.3718 64.0572 
-34.8445 -0.877397 63.9752 
-34.8078 -1.35064 63.9639 
-34.8728 -1.88847 63.9168 
-34.8319 -2.3956 63.8707 
-34.6564 -2.8765 63.8837 
-34.7626 -3.31054 63.8829 
-34.5994 -3.72739 64.0008 
-34.2029 -4.77441 63.9812 
-34.2857 6.00134 64.5949 
-34.2857 5.33323 64.5949 
-34.4359 4.84563 64.6637 
-34.4562 4.17933 64.7916 
-34.5019 3.63745 64.8294 
-34.4799 3.0986 64.7741 
-34.6293 2.45877 64.8424 
-34.8468 1.78835 64.9304 
-34.7765 1.31649 64.9827 
-34.9246 0.714661 65.0502 
-35.1062 0.052522 65.1273 
-35.356 -0.54252 65.1518 
-35.4787 -1.13561 65.2357 
-35.511 -1.69806 65.3172 
-35.621 -2.25759 65.4452 
-35.5417 -2.91739 65.4704 
-35.5982 -3.41431 65.4626 
-35.5095 -4.01272 65.3889 
-35.4099 -4.55035 65.2879 
-34.8528 -5.66456 65.1749 
-29.9874 11.9494 67.3058 
-30.7116 11.2609 66.6108 
-31.4948 10.5446 66.0901 
-32.0955 9.95627 65.9098 
-32.8427 9.28271 65.7426 
-33.107 8.65441 65.7151 
-33.4098 8.09993 65.6991 
-33.6129 7.67352 65.755 
-33.8067 7.10396 65.7756 
-34.0074 6.64673 65.831 
-34.0636 6.09763 65.9118 
-34.1833 5.47038 65.9447 
-34.1833 4.99895 65.9447 
-34.3341 4.5532 65.9536 
-34.3261 4.04677 65.9189 
-34.2628 3.50804 65.9665 
-34.3657 2.92354 65.9298 
-34.6024 2.33701 65.9951 
-34.6889 1.90249 66.0513 
-34.7673 1.36121 66.0729 
-34.9703 0.891587 66.161 
-34.9703 0.497396 66.161 
-35.0261 -0.040122 66.4018 
-35.2435 -0.504125 66.5573 
-35.4981 -1.03593 66.7221 
-35.668 -1.70886 66.9917 
-35.836 -2.09447 67.1001 
-35.8059 -2.59222 67.1241 
-35.8059 -3.08873 67.1241 
-35.8202 -3.9023 67.032 
-30.5325 11.415 67.4255 
-30.9533 10.8404 67.0785 
-31.5164 10.2265 67.0586 
-32.0863 9.72141 66.9491 
-32.5531 9.06916 66.9111 
-32.9213 8.64437 66.9428 
-33.1418 8.07267 66.9682 
-33.187 7.62707 67.0105 
-33.4131 7.06088 67.0682 
-33.4353 6.72249 67.1659 
-33.6225 6.19832 67.2134 
-33.7421 5.68046 67.1216 
-33.7793 5.17299 67.131 
-33.8535 4.7979 67.15 
-33.8164 4.33001 67.1405 
-33.8462 3.79031 67.1176 
-34.0014 3.24588 67.1878 
-34.1046 2.83921 67.1838 
-34.2442 2.33242 67.1892 
-34.3539 1.86211 67.2173 
-34.5867 1.39055 67.1866 
-34.4777 0.960739 67.3095 
-34.7458 0.493547 67.5887 
-34.9332 -0.003712 67.9668 
-35.0624 -0.433167 68.0889 
-35.2628 -0.95952 68.3781 
-35.4407 -1.45064 68.5709 
-35.5826 -1.8093 68.7545 
-35.7168 -2.29793 68.9059 
-35.7173 -3.05355 69.0555 
-29.9076 11.3423 67.8749 
-30.2773 10.8463 67.7395 
-30.7716 10.332 67.6676 
-31.2531 9.80569 67.8848 
-31.8661 9.29921 68.1305 
-32.4168 8.56763 68.2576 
-32.5749 8.1424 68.3176 
-32.645 7.67313 68.2631 
-32.9469 7.23949 68.2704 
-32.9629 6.77695 68.2429 
-33.1502 6.17483 68.2475 
-33.1606 5.80851 68.164 
-33.2616 5.3437 68.055 
-33.3416 4.8446 68.113 
-33.49 4.40569 68.117 
-33.4212 3.91817 68.1708 
-33.4425 3.5488 68.1991 
-33.622 3.01764 68.3422 
-33.7112 2.58425 68.5099 
-33.8525 2.1243 68.4578 
-34.2358 1.59673 68.6849 
-34.2153 1.17497 68.6572 
-34.2973 0.66071 68.7678 
-34.4398 0.268427 68.9602 
-34.7328 -0.210063 69.2608 
-34.8481 -0.65561 69.3692 
-34.8969 -1.12932 69.53 
-35.1991 -1.5642 69.7972 
-35.1686 -1.85933 69.8501 
-35.2034 -2.56604 69.8501 
-30.4828 9.68699 68.3963 
-30.9491 9.19534 68.7518 
-31.5555 8.72957 69.1282 
-31.8395 8.30987 69.3181 
-32.0736 7.88461 69.353 
-32.1209 7.45682 69.5062 
-32.2059 7.04077 69.5488 
-32.3699 6.52481 69.7011 
-32.4787 6.13445 69.802 
-32.514 5.70522 69.7264 
-32.5766 5.30138 69.676 
-32.6989 4.92563 69.6087 
-32.7288 4.54844 69.6004 
-32.7558 4.08242 69.6257 
-32.7799 3.78888 69.6846 
-32.8963 3.26551 69.6847 
-32.9768 2.9138 69.7603 
-33.0867 2.5054 69.8273 
-33.1902 2.09646 69.9606 
-33.3288 1.66238 70.0187 
-33.5132 1.22747 70.192 
-33.6929 0.85241 70.3968 
-33.8552 0.509708 70.4779 
-33.9328 -0.001569 70.5509 
-34.1196 -0.425681 70.6555 
-34.1929 -0.763415 70.7602 
-34.3089 -1.10186 70.7272 
-34.3457 -1.54869 70.904 
-34.4541 -1.94026 70.9354 
-34.5768 -2.6166 70.8383 
-30.2704 9.39957 68.593 
-30.6494 8.94898 68.8503 
-30.7612 8.49486 68.9967 
-30.9707 7.89143 69.4943 
-31.0779 7.61778 69.6785 
-31.2954 7.11923 69.9617 
-31.3178 6.75624 70.0679 
-31.4831 6.27978 70.2171 
-31.6144 5.87257 70.4209 
-31.7319 5.48689 70.399 
-31.6473 5.07399 70.3653 
-31.7262 4.61067 70.4791 
-31.853 4.1057 70.7205 
-31.904 3.85695 70.8085 
-31.9607 3.40562 70.8173 
-32.178 2.97999 70.9706 
-32.181 2.56805 70.9313 
-32.3438 2.21776 71.0359 
-32.44 1.69588 71.2482 
-32.6729 1.34661 71.4992 
-32.8167 0.971555 71.4623 
-32.9674 0.563303 71.3481 
-33.2218 0.086182 71.3281 
-33.3578 -0.219684 71.3685 
-33.4604 -0.592108 71.4621 
-33.3835 -0.932768 71.3919 
-33.4166 -1.40913 71.3383 
-33.4822 -1.8786 71.5238 
-33.5803 -2.21133 71.655 
-33.8238 -2.84611 71.7109 
-30.3643 7.43142 69.5738 
-30.411 7.04406 69.526 
-30.359 6.54149 69.7612 
-30.398 6.09049 70.1131 
-30.4479 5.59949 70.3314 
-30.5696 5.06082 70.5057 
-30.7226 4.63202 70.7357 
-30.8089 4.24054 70.8256 
-30.9783 3.87531 70.9786 
-31.181 3.17705 71.2133 
-31.1841 2.72533 71.4962 
-31.3568 2.37242 71.4431 
-31.3798 1.81733 71.6763 
-31.4207 1.4859 71.8344 
-31.5482 0.936921 72.1046 
-31.6907 0.473671 72.2751 
-31.7608 0.120704 72.4847 
-31.8975 -0.312043 72.6033 
-32.141 -0.774292 72.513 
-32.3602 -1.21164 72.4185 
-32.5202 -1.64529 72.516 
-32.6267 -1.99739 72.5809 
-32.8928 -2.57798 72.4175 
-33.0233 -3.12295 72.4608 
-33.301 -4.13949 72.4239 
-29.942 5.9972 69.4905 
-29.8898 5.45839 69.8108 
-29.8425 5.05688 69.9769 
-29.7881 4.57672 70.2663 
-29.8087 4.05032 70.6217 
-29.8861 3.71113 70.7158 
-29.998 3.2963 70.9174 
-30.0356 2.83781 71.0502 
-30.0742 2.37437 71.3783 
-30.1905 1.89449 71.6263 
-30.2641 1.53496 71.8861 
-30.2561 1.10935 72.004 
-30.3315 0.662266 72.0949 
-30.4319 0.286441 72.2158 
-30.4208 -0.158544 72.3081 
-30.3876 -0.625567 72.3945 
-30.4265 -0.973716 72.5461 
-30.615 -1.44282 72.4996 
-30.8499 -1.89623 72.2743 
-31.0275 -2.32739 72.1039 
-31.3087 -2.78986 71.8614 
-31.4461 -3.23877 71.9205 
-31.5112 -3.59538 71.9127 
-31.5917 -4.02811 71.8359 
-32.2383 -5.16789 71.1361 
-29.2787 4.44839 69.5231 
-29.1856 4.0392 69.8422 
-29.1146 3.69224 69.9792 
-29.0991 3.21559 70.3705 
-29.0217 2.85171 70.4505 
-28.9433 2.45959 70.686 
-28.9193 2.07357 70.8337 
-28.9457 1.69237 70.8681 
-28.9279 1.30562 71.2219 
-28.8769 0.924003 71.4853 
-28.8938 0.522209 71.7681 
-28.9765 0.076731 71.7444 
-28.999 -0.322097 71.7516 
-29.0355 -0.625843 71.8638 
-28.9977 -1.09335 71.9017 
-29.0012 -1.4438 71.9279 
-29.0685 -1.74793 71.9495 
-29.2253 -2.26256 71.9999 
-29.4393 -2.52293 71.9935 
-29.6729 -2.90231 71.9682 
-29.9815 -3.33662 71.8403 
-30.1361 -3.73818 71.8647 
-30.3088 -4.10798 71.6658 
-30.3979 -4.57195 71.4895 
-31.0539 -5.97722 70.6031 
-28.2182 4.44292 68.7725 
-28.3502 4.05571 68.9942 
-28.3253 3.75418 69.2511 
-28.2324 3.39103 69.4487 
-28.2201 2.93799 69.7861 
-28.1747 2.57946 70.0271 
-28.2118 2.27161 70.1478 
-28.1298 1.94218 70.2663 
-28.0732 1.59193 70.4213 
-27.8939 1.26277 70.6733 
-27.964 0.873775 70.8824 
-27.9622 0.550746 71.1337 
-27.9692 0.166409 71.3121 
-28.0435 -0.280165 71.4201 
-28.0603 -0.556866 71.4027 
-28.0256 -0.830791 71.5613 
-28.0749 -1.21149 71.6329 
-28.1577 -1.55035 71.6698 
-28.172 -1.93746 71.5024 
-28.2719 -2.29915 71.5222 
-28.4321 -2.60325 71.4191 
-28.538 -2.9708 71.3411 
-28.6101 -3.35851 71.2979 
-28.6652 -3.767 71.2722 
-29.0729 -4.77468 70.7932 
-26.4573 9.59418 67.5491 
-26.4516 9.16431 67.5138 
-26.3573 8.77553 67.5805 
-26.3468 8.38738 67.6765 
-26.3756 7.96368 67.8521 
-26.3384 7.47418 68.1022 
-26.3337 7.08755 68.2313 
-26.3404 6.6389 68.4289 
-26.314 6.2529 68.5815 
-26.3219 5.7671 68.9375 
-26.29 5.36038 69.0539 
-26.2787 4.96897 68.9862 
-26.2197 4.67728 69.0928 
-26.3568 4.13037 69.2994 
-26.5203 3.67048 69.5145 
-26.6287 3.30464 69.5526 
-26.8127 2.93343 69.7428 
-26.9045 2.56615 69.8376 
-27.05 2.17153 69.9512 
-27.0598 1.82989 70.1724 
-26.9839 1.43554 70.3312 
-26.9997 0.933394 70.4291 
-26.998 0.569172 70.8863 
-27.0032 0.210345 70.9185 
-26.9762 -0.230137 71.06 
-26.9653 -0.586892 71.1465 
-26.9653 -0.999166 71.1465 
-27.1241 -1.35631 71.2021 
-27.1872 -1.7392 71.2843 
-27.2878 -2.12449 71.2895 
-27.5442 -2.57243 71.1685 
-27.607 -2.92758 71.2509 
-27.7033 -3.26086 71.2243 
-27.8069 -3.65702 71.0789 
-28.0284 -4.7406 70.6978 
-25.6545 9.71241 67.0819 
-25.4969 9.13125 67.703 
-25.5072 8.72324 67.5947 
-25.4832 8.15859 67.958 
-25.5526 7.73348 68.0198 
-25.4246 7.23363 68.1215 
-25.276 6.81132 68.105 
-25.3423 6.27824 68.312 
-25.3773 5.84447 68.5067 
-25.3843 5.36057 68.5455 
-25.5286 4.90357 68.7059 
-25.5937 4.31613 68.9096 
-25.7649 4.00074 68.8988 
-25.8452 3.4045 69.3574 
-25.8452 2.99203 69.3574 
-25.9196 2.51344 69.4551 
-25.9352 2.06255 69.7082 
-26.0351 1.61574 69.9547 
-26.0307 1.07883 70.0929 
-25.9789 0.700317 70.2829 
-25.9919 0.19946 70.3567 
-26.1226 -0.266982 70.7813 
-26.3449 -0.670024 70.9288 
-26.3748 -1.10461 70.9395 
-26.4171 -1.59938 71.0226 
-26.5183 -2.19211 70.9565 
-26.6198 -2.56892 70.8901 
-26.7155 -2.88621 70.7871 
-26.8719 -3.51696 70.7051 
-27.2854 -4.93571 70.2607 
-24.9153 9.43747 66.8194 
-24.828 8.8953 66.9361 
-24.7045 8.40286 67.2811 
-24.7544 7.84537 67.394 
-24.7163 7.49533 67.4033 
-24.7721 6.96988 67.577 
-24.7882 6.55887 67.542 
-24.7896 6.13167 67.7594 
-24.8936 5.54874 67.8279 
-24.9871 5.02901 67.992 
-25.0262 4.47062 68.1992 
-25.0701 4.12641 68.2509 
-25.1358 3.64449 68.3283 
-25.0329 3.22314 68.4746 
-24.9741 2.56444 68.6715 
-24.9752 2.18367 68.8846 
-24.9123 1.69914 69.2315 
-25.0639 1.29089 69.4102 
-24.8399 0.709992 69.6674 
-24.926 0.303778 69.769 
-24.8842 -0.10162 69.9266 
-25.0029 -0.708741 70.1698 
-25.03 -1.04557 70.2533 
-25.1692 -1.72258 70.3144 
-25.2122 -2.19549 70.3651 
-25.3733 -2.63804 70.4519 
-25.4055 -3.25051 70.3863 
-25.8008 -3.91945 70.2789 
-26.5231 -4.72758 70.016 
-26.7385 -5.17135 69.7302 
-24.5843 8.47907 66.5713 
-24.6003 8.03982 66.6794 
-24.6592 7.57881 66.6925 
-24.6386 7.07027 66.8097 
-24.6752 6.64192 66.8005 
-24.7707 6.18342 66.8044 
-24.8535 5.74708 66.9795 
-24.8837 5.17999 67.0557 
-24.9874 4.71784 67.1138 
-24.982 4.34273 67.3378 
-25.0566 3.84401 67.4585 
-24.9257 3.43629 67.6006 
-24.9062 2.86689 67.8531 
-24.797 2.40165 67.8788 
-24.6961 1.93721 67.9573 
-24.6616 1.47488 68.1019 
-24.4835 1.07808 68.2791 
-24.4138 0.554714 68.4305 
-24.2791 0.033904 68.5151 
-24.2183 -0.484043 68.717 
-24.2892 -0.744495 68.701 
-24.2068 -1.32399 68.8801 
-24.3368 -1.81009 69.0115 
-24.2429 -2.18696 69.3508 
-24.4294 -2.70525 69.4961 
-24.7787 -3.13968 69.5015 
-24.9872 -3.69957 69.5373 
-25.3853 -4.27237 69.5871 
-25.6037 -4.71255 69.5417 
-25.934 -5.13156 69.4729 
-24.6676 7.45366 65.5578 
-24.587 7.0765 65.6809 
-24.7121 6.59895 65.8381 
-24.8107 6.14782 66.0371 
-24.8123 5.77801 66.0665 
-25.0504 5.33522 66.1197 
-25.2016 4.94442 66.179 
-25.2339 4.48118 66.2264 
-25.2388 4.01591 66.3149 
-25.0972 3.60476 66.4321 
-25.0699 3.1696 66.4731 
-25.2196 2.61765 66.5038 
-25.0781 2.24056 66.6205 
-24.8191 1.76934 66.7235 
-24.765 1.30544 66.805 
-24.765 0.904444 66.805 
-24.5605 0.50255 66.7965 
-24.4518 0.133792 66.9293 
-24.1962 -0.47716 67.001 
-24.2306 -0.844697 67.1063 
-24.1525 -1.33236 67.256 
-24.0746 -1.66633 67.4054 
-24 -2.15226 67.6125 
-24.0341 -2.55049 67.718 
-24.1213 -2.95174 67.7437 
-24.3277 -3.42274 67.843 
-24.4504 -3.92218 67.9755 
-24.5104 -4.38775 68.0125 
-25.001 -4.82981 68.4303 
-25.1912 -5.62452 68.6631 
-25.0142 6.85705 64.8794 
-25.085 6.50547 64.9191 
-25.1509 6.12874 64.9842 
-25.2457 5.70559 65.0374 
-25.3884 5.35736 65.1175 
-25.4739 4.93078 65.2222 
-25.5546 4.59933 65.3527 
-25.5205 4.16255 65.3903 
-25.4865 3.79861 65.4278 
-25.4424 3.33822 65.5163 
-25.4613 3.0498 65.5554 
-25.3934 2.58906 65.6302 
-25.3357 2.20169 65.6539 
-25.2206 1.78956 65.7013 
-25.2243 1.38118 65.8165 
-25.1132 1.06732 65.9785 
-25.056 0.682922 66.0019 
-24.8899 0.227349 66.0463 
-24.673 -0.130117 66.0885 
-24.5602 -0.486316 66.1346 
-24.3967 -1.00644 66.1784 
-24.3261 -1.28958 66.2763 
-24.2654 -1.66703 66.3241 
-24.2424 -2.0687 66.3105 
-24.3394 -2.47548 66.34 
-24.2968 -2.73449 66.4264 
-24.2773 -3.18396 66.5264 
-24.3366 -3.6382 66.6177 
-24.401 -3.97492 66.684 
-24.7413 -4.90609 66.8029 
-26.0895 6.60058 63.583 
-26.1267 6.21421 63.6614 
-26.1765 5.7555 63.8055 
-26.0315 5.49981 63.9632 
-26.1783 5.09697 64.0419 
-26.3376 4.76631 64.0683 
-26.307 4.37224 64.0815 
-26.2587 4.00226 64.1735 
-26.302 3.61309 64.2262 
-26.4996 3.25538 64.3326 
-26.4698 2.81212 64.4645 
-26.3481 2.39067 64.6349 
-26.1776 2.06713 64.7779 
-26.0316 1.69683 64.8154 
-25.9164 1.28001 64.8401 
-25.754 0.93717 64.9555 
-25.6332 0.596192 64.8885 
-25.4954 0.135562 64.8995 
-25.3583 -0.202308 64.9105 
-25.2751 -0.539366 64.9222 
-25.0091 -0.944285 64.9183 
-24.939 -1.30287 64.9946 
-24.8862 -1.68503 64.9938 
-24.8626 -2.0676 64.9805 
-24.746 -2.446 65.0301 
-24.6764 -2.80152 65.106 
-24.817 -3.14394 65.1858 
-24.8348 -3.50435 65.2248 
-24.9997 -4.01912 65.3185 
-25.2781 -4.44877 65.3894 
-27.2516 6.60113 62.891 
-27.0879 6.2369 62.7605 
-27.1062 5.923 62.7376 
-27.2935 5.56532 62.7423 
-27.3771 5.20064 62.7818 
-27.2699 4.68211 62.8681 
-27.1601 4.39511 63.0058 
-27.0841 4.05283 63.1492 
-27.0181 3.6865 63.4251 
-26.8869 3.31434 63.6379 
-26.8754 3.00368 63.8461 
-26.8726 2.6309 63.8982 
-26.7527 2.25367 63.9029 
-26.8087 1.79858 64.1242 
-26.6243 1.44901 64.0639 
-26.4806 1.10111 63.9061 
-26.5507 0.729228 63.8664 
-26.5567 0.328034 63.7626 
-26.3622 -0.071771 63.6233 
-26.3622 -0.356867 63.6233 
-26.347 -0.78407 63.5945 
-26.0998 -1.14942 63.5247 
-26.0551 -1.48774 63.4391 
-26.0008 -1.8561 63.5072 
-25.9466 -2.22441 63.5753 
-25.7938 -2.56036 63.6257 
-25.7396 -2.92804 63.6937 
-25.6167 -3.35039 63.801 
-25.8744 -3.77395 64.1876 
-26.1692 -4.29179 64.5861 
3 4 5 26 
3 26 25 4 
3 5 27 26 
3 4 659 5 
3 25 655 4 
3 5 28 27 
3 659 660 5 
3 4 658 659 
3 655 656 4 
3 5 6 28 
3 660 6 5 
3 660 661 6 
3 659 629 660 
3 658 627 659 
3 4 657 658 
3 656 657 4 
3 656 626 657 
3 655 625 656 
3 6 29 28 
3 661 7 6 
3 660 630 661 
3 629 630 660 
3 629 631 630 
3 659 627 629 
3 627 628 629 
3 658 657 627 
3 657 626 627 
3 626 628 627 
3 626 597 628 
3 656 625 626 
3 625 596 626 
3 6 7 29 
3 7 8 29 
3 661 662 7 
3 630 631 661 
3 631 662 661 
3 631 663 662 
3 629 600 631 
3 628 599 629 
3 597 598 628 
3 626 596 597 
3 596 567 597 
3 625 595 596 
3 8 31 29 
3 7 662 8 
3 662 663 8 
3 663 664 8 
3 631 632 663 
3 600 601 631 
3 629 599 600 
3 599 570 600 
3 628 598 599 
3 598 569 599 
3 597 569 598 
3 597 568 569 
3 567 568 597 
3 567 539 568 
3 596 566 567 
3 595 566 596 
3 595 565 566 
3 31 30 29 
3 8 9 31 
3 664 9 8 
3 664 666 9 
3 663 632 664 
3 632 633 664 
3 631 601 632 
3 601 602 632 
3 600 571 601 
3 570 571 600 
3 570 542 571 
3 599 569 570 
3 569 542 570 
3 569 541 542 
3 568 540 569 
3 539 540 568 
3 539 511 540 
3 567 538 539 
3 566 538 567 
3 566 537 538 
3 565 537 566 
3 565 536 537 
3 31 32 30 
3 9 32 31 
3 9 10 32 
3 666 10 9 
3 666 667 10 
3 664 665 666 
3 633 665 664 
3 633 634 665 
3 632 603 633 
3 602 603 632 
3 602 573 603 
3 601 572 602 
3 571 572 601 
3 571 543 572 
3 542 543 571 
3 542 514 543 
3 541 513 542 
3 569 540 541 
3 540 512 541 
3 511 512 540 
3 511 510 512 
3 539 510 511 
3 539 538 510 
3 538 509 510 
3 537 509 538 
3 537 536 509 
3 536 508 509 
3 565 535 536 
3 10 33 32 
3 666 635 667 
3 665 635 666 
3 665 634 635 
3 634 633 635 
3 633 604 635 
3 603 604 633 
3 603 574 604 
3 573 574 603 
3 573 544 574 
3 602 572 573 
3 572 543 573 
3 543 544 573 
3 543 514 544 
3 514 515 544 
3 542 513 514 
3 513 484 514 
3 541 512 513 
3 512 483 513 
3 510 481 512 
3 509 480 510 
3 508 480 509 
3 508 479 480 
3 536 507 508 
3 535 507 536 
3 535 506 507 
3 33 50 32 
3 10 11 33 
3 635 636 667 
3 604 605 635 
3 574 575 604 
3 544 545 574 
3 515 516 544 
3 514 484 515 
3 484 485 515 
3 513 483 484 
3 483 450 484 
3 512 482 483 
3 481 482 512 
3 481 447 482 
3 510 480 481 
3 480 447 481 
3 480 446 447 
3 479 445 480 
3 508 478 479 
3 507 478 508 
3 507 477 478 
3 506 476 507 
3 535 505 506 
3 50 30 32 
3 33 51 50 
3 11 34 33 
3 636 637 667 
3 635 605 636 
3 605 606 636 
3 604 575 605 
3 575 606 605 
3 575 576 606 
3 574 546 575 
3 545 546 574 
3 545 516 546 
3 516 545 544 
3 515 486 516 
3 485 486 515 
3 485 452 486 
3 484 450 485 
3 450 452 485 
3 483 449 450 
3 482 448 483 
3 447 448 482 
3 480 445 446 
3 479 444 445 
3 478 444 479 
3 478 443 444 
3 477 476 478 
3 476 477 507 
3 506 505 476 
3 505 475 476 
3 33 52 51 
3 34 52 33 
3 34 53 52 
3 11 35 34 
3 637 669 667 
3 636 606 637 
3 606 607 637 
3 576 607 606 
3 576 577 607 
3 575 577 576 
3 575 547 577 
3 546 547 575 
3 546 518 547 
3 516 517 546 
3 486 517 516 
3 486 518 517 
3 452 453 486 
3 483 448 449 
3 478 442 443 
3 475 440 476 
3 52 92 51 
3 53 92 52 
3 53 93 92 
3 34 35 53 
3 35 36 53 
3 11 12 35 
3 637 638 669 
3 607 638 637 
3 607 608 638 
3 577 608 607 
3 577 578 608 
3 547 548 577 
3 518 519 547 
3 546 517 518 
3 486 487 518 
3 453 488 486 
3 478 476 442 
3 476 441 442 
3 440 441 476 
3 92 91 51 
3 93 127 92 
3 53 54 93 
3 36 54 53 
3 36 37 54 
3 35 12 36 
3 12 13 36 
3 638 670 669 
3 608 639 638 
3 578 609 608 
3 577 548 578 
3 548 549 578 
3 547 519 548 
3 519 549 548 
3 519 520 549 
3 518 489 519 
3 487 488 518 
3 453 454 488 
3 92 126 91 
3 127 126 92 
3 127 125 126 
3 93 94 127 
3 54 94 93 
3 54 55 94 
3 37 55 54 
3 37 38 55 
3 36 13 37 
3 13 14 37 
3 670 671 669 
3 638 639 670 
3 639 641 670 
3 608 640 639 
3 609 640 608 
3 609 641 640 
3 578 610 609 
3 549 579 578 
3 520 550 549 
3 519 489 520 
3 489 490 520 
3 488 489 518 
3 488 455 489 
3 487 486 488 
3 454 455 488 
3 454 418 455 
3 126 125 91 
3 125 90 91 
3 94 128 127 
3 55 95 94 
3 38 56 55 
3 37 14 38 
3 14 15 38 
3 13 672 14 
3 641 671 670 
3 641 672 671 
3 639 640 641 
3 609 610 641 
3 610 611 641 
3 578 579 610 
3 579 580 610 
3 549 550 579 
3 550 551 579 
3 520 521 550 
3 490 521 520 
3 490 491 521 
3 489 456 490 
3 455 456 489 
3 455 418 456 
3 418 419 456 
3 125 124 90 
3 128 159 127 
3 55 56 95 
3 56 96 95 
3 38 57 56 
3 15 39 38 
3 14 673 15 
3 672 673 14 
3 672 641 673 
3 641 642 673 
3 13 671 672 
3 611 642 641 
3 611 612 642 
3 610 580 611 
3 580 581 611 
3 579 581 580 
3 579 551 581 
3 551 582 581 
3 550 521 551 
3 521 522 551 
3 491 522 521 
3 491 492 522 
3 490 456 491 
3 456 457 491 
3 419 420 456 
3 418 392 419 
3 124 89 90 
3 125 156 124 
3 159 158 127 
3 128 160 159 
3 56 57 96 
3 57 58 96 
3 38 58 57 
3 38 39 58 
3 39 40 58 
3 15 40 39 
3 15 16 40 
3 673 674 15 
3 642 643 673 
3 612 643 642 
3 612 613 643 
3 611 581 612 
3 581 613 612 
3 581 582 613 
3 582 614 613 
3 551 552 582 
3 522 523 551 
3 492 493 522 
3 491 458 492 
3 457 458 491 
3 457 420 458 
3 420 457 456 
3 419 394 420 
3 392 393 419 
3 418 417 392 
3 89 88 90 
3 124 123 89 
3 156 123 124 
3 156 155 123 
3 125 157 156 
3 158 125 127 
3 158 157 125 
3 158 156 157 
3 158 177 156 
3 159 179 158 
3 160 180 159 
3 128 129 160 
3 58 97 96 
3 40 59 58 
3 16 41 40 
3 674 675 15 
3 673 643 674 
3 643 644 674 
3 613 644 643 
3 613 645 644 
3 614 645 613 
3 614 615 645 
3 582 583 614 
3 552 553 582 
3 551 523 552 
3 523 553 552 
3 523 524 553 
3 522 493 523 
3 493 494 523 
3 492 460 493 
3 458 459 492 
3 420 421 458 
3 394 395 420 
3 419 393 394 
3 393 371 394 
3 392 369 393 
3 417 391 392 
3 89 123 88 
3 123 122 88 
3 155 122 123 
3 155 154 122 
3 156 176 155 
3 177 176 156 
3 177 207 176 
3 158 178 177 
3 179 178 158 
3 179 210 178 
3 159 180 179 
3 180 211 179 
3 160 181 180 
3 129 161 160 
3 58 59 97 
3 59 98 97 
3 40 60 59 
3 41 60 40 
3 41 61 60 
3 16 42 41 
3 675 16 15 
3 675 676 16 
3 674 676 675 
3 674 644 676 
3 644 645 676 
3 615 646 645 
3 614 583 615 
3 583 616 615 
3 582 553 583 
3 553 584 583 
3 524 554 553 
3 523 494 524 
3 494 495 524 
3 493 461 494 
3 460 461 493 
3 460 462 461 
3 492 459 460 
3 459 424 460 
3 458 422 459 
3 421 422 458 
3 421 396 422 
3 420 395 421 
3 395 396 421 
3 395 373 396 
3 394 372 395 
3 371 372 394 
3 371 349 372 
3 393 370 371 
3 369 370 393 
3 369 347 370 
3 392 391 369 
3 391 368 369 
3 417 416 391 
3 122 121 88 
3 154 121 122 
3 154 153 121 
3 155 176 154 
3 176 175 154 
3 207 206 176 
3 177 208 207 
3 178 209 177 
3 210 209 178 
3 210 240 209 
3 179 211 210 
3 211 242 210 
3 180 212 211 
3 181 212 180 
3 181 213 212 
3 160 161 181 
3 161 162 181 
3 129 162 161 
3 129 130 162 
3 98 132 97 
3 59 60 98 
3 60 99 98 
3 61 99 60 
3 61 100 99 
3 41 62 61 
3 42 62 41 
3 42 63 62 
3 16 17 42 
3 676 17 16 
3 676 677 17 
3 615 616 646 
3 616 647 646 
3 583 584 616 
3 584 585 616 
3 553 554 584 
3 554 555 584 
3 524 525 554 
3 495 525 524 
3 495 526 525 
3 494 462 495 
3 462 494 461 
3 460 424 462 
3 424 425 462 
3 459 423 424 
3 422 423 459 
3 422 396 423 
3 396 424 423 
3 396 397 424 
3 373 398 396 
3 395 372 373 
3 372 350 373 
3 349 350 372 
3 349 325 350 
3 371 348 349 
3 370 348 371 
3 370 347 348 
3 347 322 348 
3 369 346 347 
3 368 346 369 
3 368 345 346 
3 391 390 368 
3 416 390 391 
3 416 415 390 
3 121 87 88 
3 153 152 121 
3 154 175 153 
3 175 174 153 
3 176 206 175 
3 206 174 175 
3 206 205 174 
3 207 237 206 
3 208 238 207 
3 177 209 208 
3 209 240 208 
3 240 239 208 
3 210 241 240 
3 242 241 210 
3 211 212 242 
3 212 213 242 
3 213 243 242 
3 181 182 213 
3 162 182 181 
3 162 163 182 
3 130 131 162 
3 98 133 132 
3 99 134 98 
3 100 101 99 
3 42 43 63 
3 17 43 42 
3 17 18 43 
3 677 18 17 
3 677 678 18 
3 676 678 677 
3 616 617 647 
3 585 617 616 
3 585 586 617 
3 584 555 585 
3 555 586 585 
3 555 556 586 
3 554 556 555 
3 554 526 556 
3 526 554 525 
3 495 496 526 
3 462 496 495 
3 462 463 496 
3 425 426 462 
3 424 398 425 
3 398 397 396 
3 398 424 397 
3 373 374 398 
3 350 374 373 
3 350 352 374 
3 325 351 350 
3 349 324 325 
3 348 323 349 
3 322 323 348 
3 322 294 323 
3 347 321 322 
3 346 321 347 
3 346 320 321 
3 345 320 346 
3 345 319 320 
3 368 367 345 
3 390 367 368 
3 390 366 367 
3 121 120 87 
3 152 120 121 
3 152 119 120 
3 153 174 152 
3 174 173 152 
3 205 204 174 
3 206 236 205 
3 237 236 206 
3 237 267 236 
3 207 238 237 
3 238 268 237 
3 208 239 238 
3 239 269 238 
3 240 270 239 
3 243 272 242 
3 213 244 243 
3 182 214 213 
3 163 183 182 
3 162 131 163 
3 131 132 163 
3 133 164 132 
3 98 134 133 
3 134 165 133 
3 99 135 134 
3 100 102 101 
3 43 64 63 
3 18 44 43 
3 678 19 18 
3 617 618 647 
3 586 618 617 
3 586 587 618 
3 556 587 586 
3 556 557 587 
3 526 527 556 
3 496 527 526 
3 496 497 527 
3 463 464 496 
3 462 427 463 
3 426 427 462 
3 426 400 427 
3 425 399 426 
3 398 399 425 
3 398 375 399 
3 374 375 398 
3 374 352 375 
3 352 353 375 
3 350 351 352 
3 351 327 352 
3 325 326 351 
3 324 295 325 
3 349 323 324 
3 323 294 324 
3 294 295 324 
3 294 266 295 
3 322 293 294 
3 321 292 322 
3 320 290 321 
3 319 290 320 
3 319 289 290 
3 345 318 319 
3 367 344 345 
3 366 344 367 
3 366 343 344 
3 120 86 87 
3 119 85 120 
3 152 151 119 
3 173 172 152 
3 174 204 173 
3 204 203 173 
3 205 235 204 
3 236 235 205 
3 236 266 235 
3 237 268 267 
3 268 296 267 
3 238 269 268 
3 269 298 268 
3 239 270 269 
3 270 298 269 
3 270 299 298 
3 240 271 270 
3 272 271 242 
3 243 273 272 
3 244 274 243 
3 213 214 244 
3 214 245 244 
3 182 183 214 
3 183 215 214 
3 163 164 183 
3 164 163 132 
3 133 165 164 
3 134 166 165 
3 135 166 134 
3 135 136 166 
3 100 136 102 
3 43 44 64 
3 44 65 64 
3 18 19 44 
3 19 45 44 
3 678 679 19 
3 618 648 647 
3 587 620 618 
3 557 588 587 
3 556 558 557 
3 497 498 527 
3 496 464 497 
3 464 465 497 
3 463 427 464 
3 427 428 464 
3 400 428 427 
3 400 401 428 
3 426 399 400 
3 399 376 400 
3 375 376 399 
3 375 353 376 
3 353 354 376 
3 352 328 353 
3 327 328 352 
3 327 298 328 
3 351 326 327 
3 326 325 327 
3 295 296 325 
3 266 267 295 
3 294 265 266 
3 293 265 294 
3 293 264 265 
3 322 292 293 
3 292 264 293 
3 292 263 264 
3 321 291 292 
3 290 291 321 
3 290 261 291 
3 289 261 290 
3 289 260 261 
3 319 288 289 
3 318 288 319 
3 318 317 288 
3 345 344 318 
3 344 317 318 
3 344 343 317 
3 343 316 317 
3 366 365 343 
3 120 85 86 
3 85 84 86 
3 119 118 85 
3 151 118 119 
3 151 150 118 
3 152 172 151 
3 172 150 151 
3 172 149 150 
3 173 203 172 
3 203 202 172 
3 204 234 203 
3 235 234 204 
3 235 264 234 
3 266 265 235 
3 296 295 267 
3 268 297 296 
3 298 297 268 
3 298 327 297 
3 327 325 297 
3 325 296 297 
3 299 328 298 
3 299 300 328 
3 270 300 299 
3 271 300 270 
3 271 272 300 
3 272 301 300 
3 240 241 271 
3 241 242 271 
3 273 301 272 
3 273 302 301 
3 243 274 273 
3 274 302 273 
3 274 303 302 
3 244 245 274 
3 245 275 274 
3 214 215 245 
3 215 246 245 
3 183 184 215 
3 164 184 183 
3 164 165 184 
3 166 167 165 
3 135 101 136 
3 136 137 102 
3 44 66 65 
3 45 46 44 
3 19 20 45 
3 679 680 19 
3 618 649 648 
3 620 619 618 
3 587 588 620 
3 588 621 620 
3 557 558 588 
3 558 589 588 
3 556 527 558 
3 527 528 558 
3 498 528 527 
3 498 499 528 
3 497 466 498 
3 465 466 497 
3 465 430 466 
3 464 428 465 
3 428 430 465 
3 428 402 430 
3 401 402 428 
3 401 379 402 
3 400 377 401 
3 376 377 400 
3 376 354 377 
3 354 378 377 
3 353 329 354 
3 328 329 353 
3 328 300 329 
3 300 330 329 
3 266 236 267 
3 264 235 265 
3 263 233 264 
3 292 291 263 
3 291 262 263 
3 261 262 291 
3 261 231 262 
3 260 230 261 
3 289 288 260 
3 288 287 260 
3 317 287 288 
3 317 316 287 
3 316 286 287 
3 343 342 316 
3 365 342 343 
3 365 341 342 
3 85 118 84 
3 118 117 84 
3 150 117 118 
3 150 149 117 
3 149 148 117 
3 172 171 149 
3 202 201 172 
3 203 233 202 
3 301 330 300 
3 301 331 330 
3 302 331 301 
3 302 332 331 
3 303 332 302 
3 303 333 332 
3 274 304 303 
3 275 304 274 
3 275 305 304 
3 245 246 275 
3 246 276 275 
3 215 216 246 
3 184 216 215 
3 184 217 216 
3 166 168 167 
3 101 137 136 
3 101 102 137 
3 44 46 66 
3 46 67 66 
3 45 47 46 
3 19 680 20 
3 680 681 20 
3 679 648 680 
3 649 680 648 
3 649 681 680 
3 649 682 681 
3 618 650 649 
3 619 650 618 
3 619 620 650 
3 620 621 650 
3 621 651 650 
3 588 589 621 
3 589 622 621 
3 558 559 589 
3 528 529 558 
3 499 529 528 
3 499 500 529 
3 498 466 499 
3 466 467 499 
3 430 467 466 
3 430 431 467 
3 402 403 430 
3 379 403 402 
3 379 380 403 
3 401 378 379 
3 378 401 377 
3 354 355 378 
3 329 355 354 
3 329 330 355 
3 330 331 355 
3 331 356 355 
3 233 234 264 
3 233 203 234 
3 263 232 233 
3 262 232 263 
3 262 231 232 
3 231 201 232 
3 261 230 231 
3 230 200 231 
3 260 229 230 
3 287 259 260 
3 286 259 287 
3 286 258 259 
3 316 315 286 
3 342 315 316 
3 342 340 315 
3 341 340 342 
3 341 313 340 
3 117 83 84 
3 148 116 117 
3 149 171 148 
3 171 170 148 
3 201 171 172 
3 201 170 171 
3 201 200 170 
3 202 232 201 
3 202 233 232 
3 333 358 332 
3 303 304 333 
3 304 334 333 
3 305 334 304 
3 305 335 334 
3 275 276 305 
3 276 306 305 
3 246 277 276 
3 216 247 246 
3 184 185 217 
3 46 68 67 
3 47 68 46 
3 47 69 68 
3 681 21 20 
3 682 21 681 
3 682 22 21 
3 649 650 682 
3 650 651 682 
3 651 652 682 
3 621 652 651 
3 621 622 652 
3 622 653 652 
3 589 590 622 
3 559 590 589 
3 559 560 590 
3 558 529 559 
3 529 530 559 
3 500 530 529 
3 500 501 530 
3 499 468 500 
3 467 468 499 
3 467 431 468 
3 431 432 468 
3 430 404 431 
3 403 404 430 
3 403 381 404 
3 380 381 403 
3 380 357 381 
3 379 357 380 
3 379 356 357 
3 356 378 355 
3 356 379 378 
3 200 201 231 
3 230 199 200 
3 229 199 230 
3 229 228 199 
3 260 259 229 
3 259 258 229 
3 258 228 229 
3 258 227 228 
3 286 285 258 
3 315 285 286 
3 315 314 285 
3 340 314 315 
3 340 313 314 
3 313 283 314 
3 117 116 83 
3 116 82 83 
3 148 115 116 
3 170 147 148 
3 200 199 170 
3 199 146 170 
3 333 334 358 
3 334 359 358 
3 335 359 334 
3 335 360 359 
3 305 307 335 
3 306 307 305 
3 306 277 307 
3 277 306 276 
3 246 247 277 
3 247 248 277 
3 216 248 247 
3 185 218 217 
3 47 48 69 
3 22 48 21 
3 682 683 22 
3 652 683 682 
3 652 653 683 
3 653 654 683 
3 622 623 653 
3 590 623 622 
3 590 591 623 
3 560 591 590 
3 560 561 591 
3 559 530 560 
3 530 531 560 
3 501 531 530 
3 501 502 531 
3 500 469 501 
3 468 469 500 
3 468 432 469 
3 432 433 469 
3 431 405 432 
3 404 405 431 
3 404 381 405 
3 381 406 405 
3 357 382 381 
3 228 198 199 
3 227 197 228 
3 258 257 227 
3 285 257 258 
3 285 284 257 
3 314 284 285 
3 314 283 284 
3 283 256 284 
3 313 282 283 
3 116 115 82 
3 115 81 82 
3 148 147 115 
3 147 114 115 
3 170 146 147 
3 146 114 147 
3 146 113 114 
3 199 145 146 
3 335 336 360 
3 307 336 335 
3 307 337 336 
3 277 308 307 
3 248 278 277 
3 185 186 218 
3 48 49 69 
3 48 47 21 
3 22 49 48 
3 22 23 49 
3 683 23 22 
3 683 684 23 
3 654 684 683 
3 653 623 654 
3 623 624 654 
3 591 592 623 
3 561 592 591 
3 561 593 592 
3 560 531 561 
3 531 532 561 
3 502 503 531 
3 501 471 502 
3 469 471 501 
3 469 470 471 
3 433 434 469 
3 432 434 433 
3 432 406 434 
3 406 432 405 
3 381 382 406 
3 382 407 406 
3 357 358 382 
3 198 145 199 
3 198 197 145 
3 197 198 228 
3 227 226 197 
3 257 226 227 
3 257 256 226 
3 256 257 284 
3 283 255 256 
3 282 255 283 
3 282 254 255 
3 313 312 282 
3 115 114 81 
3 114 80 81 
3 113 80 114 
3 113 79 80 
3 146 145 113 
3 145 144 113 
3 336 337 360 
3 337 361 360 
3 307 308 337 
3 308 338 337 
3 277 278 308 
3 278 309 308 
3 248 279 278 
3 186 219 218 
3 185 167 186 
3 23 24 49 
3 684 24 23 
3 623 592 624 
3 592 593 624 
3 561 562 593 
3 532 562 561 
3 532 563 562 
3 531 503 532 
3 503 533 532 
3 502 471 503 
3 471 472 503 
3 470 434 471 
3 434 470 469 
3 406 407 434 
3 407 435 434 
3 382 408 407 
3 358 359 382 
3 359 383 382 
3 197 144 145 
3 197 196 144 
3 226 196 197 
3 226 225 196 
3 256 225 226 
3 256 255 225 
3 255 224 225 
3 254 224 255 
3 254 223 224 
3 282 281 254 
3 312 311 282 
3 313 341 312 
3 113 112 79 
3 144 112 113 
3 144 111 112 
3 337 338 361 
3 338 362 361 
3 308 339 338 
3 309 339 308 
3 278 279 309 
3 248 249 279 
3 186 187 219 
3 167 168 186 
3 168 187 186 
3 168 188 187 
3 562 563 593 
3 563 594 593 
3 532 533 563 
3 533 564 563 
3 503 504 533 
3 472 473 503 
3 471 435 472 
3 435 471 434 
3 407 436 435 
3 408 436 407 
3 408 409 436 
3 382 383 408 
3 383 409 408 
3 383 384 409 
3 359 360 383 
3 360 384 383 
3 360 361 384 
3 361 385 384 
3 196 143 144 
3 225 195 196 
3 224 194 225 
3 223 194 224 
3 223 193 194 
3 254 253 223 
3 281 253 254 
3 281 280 253 
3 282 311 281 
3 311 310 281 
3 112 78 79 
3 111 78 112 
3 111 110 78 
3 144 143 111 
3 143 110 111 
3 143 142 110 
3 338 339 362 
3 339 363 362 
3 563 564 594 
3 533 534 564 
3 504 534 533 
3 503 473 504 
3 473 474 504 
3 472 437 473 
3 435 436 472 
3 436 437 472 
3 436 409 437 
3 409 438 437 
3 384 410 409 
3 385 386 384 
3 361 362 385 
3 362 386 385 
3 362 363 386 
3 363 387 386 
3 196 142 143 
3 196 195 142 
3 195 194 142 
3 194 195 225 
3 193 141 194 
3 223 192 193 
3 253 222 223 
3 280 252 253 
3 281 310 280 
3 110 77 78 
3 142 109 110 
3 339 364 363 
3 473 438 474 
3 438 473 437 
3 409 410 438 
3 410 411 438 
3 384 386 410 
3 386 411 410 
3 386 387 411 
3 387 412 411 
3 363 388 387 
3 194 141 142 
3 141 108 142 
3 193 140 141 
3 192 140 193 
3 192 106 140 
3 223 222 192 
3 222 221 192 
3 253 252 222 
3 252 221 222 
3 252 220 221 
3 280 251 252 
3 110 76 77 
3 109 76 110 
3 109 108 76 
3 438 439 474 
3 411 412 438 
3 412 439 438 
3 412 413 439 
3 387 388 412 
3 388 413 412 
3 108 109 142 
3 141 107 108 
3 140 107 141 
3 140 106 107 
3 106 73 107 
3 192 105 106 
3 221 191 192 
3 220 191 221 
3 220 190 191 
3 252 251 220 
3 251 250 220 
3 108 75 76 
3 107 74 108 
3 73 74 107 
3 106 72 73 
3 105 72 106 
3 105 71 72 
3 192 191 105 
3 191 71 105 
3 191 70 71 
3 190 70 191 
3 220 250 190 
3 250 70 190 
3 250 251 70 
3 108 74 75 
3 655 1 625 
3 667 11 10 
3 667 669 11 
3 669 12 11 
3 669 671 12 
3 671 13 12 
3 51 90 50 
3 452 451 453 
3 453 417 454 
3 90 51 91 
3 94 95 128 
3 95 130 128 
3 96 131 95 
3 418 454 417 
3 88 50 90 
3 88 87 50 
3 97 132 96 
3 645 678 676 
3 645 646 678 
3 646 647 678 
3 647 679 678 
3 647 648 679 
3 417 415 416 
3 417 453 415 
3 453 451 415 
3 451 450 415 
3 129 128 130 
3 61 63 100 
3 63 101 62 
3 130 95 131 
3 390 365 366 
3 131 96 132 
3 136 168 166 
3 136 138 168 
3 65 103 64 
3 165 185 184 
3 165 167 185 
3 135 99 101 
3 66 103 65 
3 66 67 103 
3 67 104 103 
3 20 47 45 
3 20 21 47 
3 332 357 331 
3 217 248 216 
3 217 218 248 
3 218 249 248 
3 218 219 249 
3 68 104 67 
3 356 331 357 
3 654 24 684 
3 357 332 358 
3 593 594 624 
3 187 188 219 
3 168 169 188 
3 364 388 363 
3 364 389 388 
3 413 414 439 
3 388 389 413 
3 389 414 413 
3 72 71 73 
3 251 71 70 
3 1 0 625 
3 655 2 1 
3 451 452 450 
3 63 64 100 
3 64 103 100 
3 103 136 100 
3 103 138 136 
3 103 139 138 
3 101 61 62 
3 63 103 101 
3 138 169 168 
3 138 139 169 
3 169 189 188 
3 655 3 2 
3 655 25 3 
3 25 26 3 
