ply
format ascii 1.0
element vertex 27
property float x
property float y
property float z
element face 0
property list uchar int vertex_index
end_header
-29.722684 -5.615206 62.795266
-30.668385 -5.273554 62.809210
-31.686363 -5.012455 63.383589
-32.262245 -5.674746 64.372522
-33.499681 -5.912301 65.194632
-34.408485 -5.901450 65.379228
-34.937656 -5.564549 66.174856
-35.160325 -4.555577 67.461347
-35.915739 -3.722344 68.680029
-35.255127 -2.859451 69.711114
-34.843296 -2.960580 70.606911
-33.850018 -3.296666 71.446426
-33.295062 -4.106713 71.412292
-32.252546 -5.137508 71.010649
-30.668385 -5.273554 62.809210
-29.293794 -5.125451 70.503509
-28.074771 -4.773560 70.162724
-26.880158 -5.151161 70.058604
-26.281353 -5.402733 69.445098
-25.975906 -5.918550 68.631400
-25.526174 -5.982054 67.890251
-24.992291 -5.305608 67.220976
-24.894985 -4.674872 66.268859
-25.103461 -4.487417 65.255039
-26.169957 -4.419718 64.361409
-26.989928 -5.137005 63.597882
-28.167605 -5.699074 63.718195
